<svg width="24" height="22" viewBox="0 0 24 22" fill="none" xmlns="http://www.w3.org/2000/svg">
<path fill-rule="evenodd" clip-rule="evenodd" d="M7.21604 14.6694C7.05604 14.6694 6.89504 14.6226 6.75904 14.5273C6.43104 14.2954 6.36904 13.8636 6.62204 13.5629L9.61504 9.99711C9.73704 9.85136 9.91804 9.75694 10.116 9.73402C10.318 9.71019 10.516 9.76152 10.673 9.87611L13.493 11.9065L15.96 8.98877C16.214 8.68719 16.684 8.63127 17.012 8.86594C17.34 9.09877 17.4 9.53052 17.146 9.83027L14.216 13.2953C14.094 13.4401 13.914 13.5345 13.716 13.5565C13.516 13.5813 13.318 13.5281 13.16 13.4154L10.342 11.3859L7.81104 14.4008C7.66304 14.5768 7.44104 14.6694 7.21604 14.6694Z" fill="#414A56"/>
<mask id="mask0_239_10513" style="mask-type:luminance" maskUnits="userSpaceOnUse" x="17" y="1" width="6" height="6">
<path fill-rule="evenodd" clip-rule="evenodd" d="M17.2954 1.83337H22.6394V6.73287H17.2954V1.83337Z" fill="white"/>
</mask>
<g mask="url(#mask0_239_10513)">
<path fill-rule="evenodd" clip-rule="evenodd" d="M19.9674 3.20843C19.3214 3.20843 18.7954 3.68968 18.7954 4.28277C18.7954 4.87493 19.3214 5.35802 19.9674 5.35802C20.6134 5.35802 21.1394 4.87493 21.1394 4.28277C21.1394 3.68968 20.6134 3.20843 19.9674 3.20843ZM19.9674 6.73296C18.4944 6.73296 17.2954 5.63387 17.2954 4.28271C17.2954 2.93154 18.4944 1.83337 19.9674 1.83337C21.4414 1.83337 22.6394 2.93154 22.6394 4.28271C22.6394 5.63387 21.4414 6.73296 19.9674 6.73296Z" fill="#414A56"/>
</g>
<mask id="mask1_239_10513" style="mask-type:luminance" maskUnits="userSpaceOnUse" x="1" y="2" width="21" height="19">
<path fill-rule="evenodd" clip-rule="evenodd" d="M1.99951 2.60522H21.8614V20.8111H1.99951V2.60522Z" fill="white"/>
</mask>
<g mask="url(#mask1_239_10513)">
<path fill-rule="evenodd" clip-rule="evenodd" d="M16.2325 20.8111H7.62851C4.26151 20.8111 1.99951 18.6432 1.99951 15.4166V8.00806C1.99951 4.77681 4.26151 2.60522 7.62851 2.60522H14.8965C15.3105 2.60522 15.6465 2.91322 15.6465 3.29272C15.6465 3.67222 15.3105 3.98022 14.8965 3.98022H7.62851C5.12051 3.98022 3.49951 5.56056 3.49951 8.00806V15.4166C3.49951 17.8961 5.08151 19.4361 7.62851 19.4361H16.2325C18.7405 19.4361 20.3615 17.8586 20.3615 15.4166V8.96414C20.3615 8.58464 20.6975 8.27664 21.1115 8.27664C21.5255 8.27664 21.8615 8.58464 21.8615 8.96414V15.4166C21.8615 18.6432 19.5995 20.8111 16.2325 20.8111Z" fill="#414A56"/>
</g>
</svg>
