<svg width="24" height="24" viewBox="0 0 24 24" fill="none" xmlns="http://www.w3.org/2000/svg">
<mask id="mask0_239_10479" style="mask-type:alpha" maskUnits="userSpaceOnUse" x="0" y="0" width="24" height="24">
<rect width="24" height="24" fill="#D9D9D9"/>
</mask>
<g mask="url(#mask0_239_10479)">
<path d="M9.5095 21.5C8.40067 21.5 7.45517 21.1138 6.673 20.3413C5.891 19.569 5.5 18.6347 5.5 17.5385C5.5 17.0065 5.62725 16.5139 5.88175 16.0605C6.13625 15.6074 6.5795 15.0808 7.2115 14.4808C7.41417 14.304 7.59333 14.118 7.749 13.923C7.90483 13.7282 8.08342 13.5167 8.28475 13.2885C7.48592 12.0654 6.875 10.7894 6.452 9.46055C6.02883 8.13171 5.81725 6.82755 5.81725 5.54805C5.81725 4.69688 5.95058 4.05305 6.21725 3.61655C6.48392 3.17988 6.86667 2.96155 7.3655 2.96155C8.11667 2.96155 8.83042 3.3638 9.50675 4.1683C10.1831 4.9728 10.7225 5.79688 11.125 6.64055C11.3392 7.11488 11.5183 7.60463 11.6625 8.1098C11.8067 8.61496 11.9192 9.12455 12 9.63855C12.0808 9.12455 12.1949 8.61496 12.3423 8.1098C12.4898 7.60463 12.6725 7.11488 12.8905 6.64055C13.2763 5.79688 13.809 4.9728 14.4885 4.1683C15.168 3.3638 15.8833 2.96155 16.6345 2.96155C17.1333 2.96155 17.5161 3.17988 17.7828 3.61655C18.0494 4.05305 18.1827 4.69688 18.1827 5.54805C18.1827 6.82755 17.9712 8.13171 17.548 9.46055C17.125 10.7894 16.5141 12.0654 15.7153 13.2885C15.9166 13.5167 16.0952 13.7282 16.251 13.923C16.4067 14.118 16.5858 14.304 16.7885 14.4808C17.4205 15.0808 17.8637 15.6074 18.1182 16.0605C18.3728 16.5139 18.5 17.0065 18.5 17.5385C18.5 18.6347 18.109 19.569 17.327 20.3413C16.5448 21.1138 15.5993 21.5 14.4905 21.5C13.8045 21.5 13.2179 21.407 12.7308 21.221L12 20.9423L11.2692 21.221C10.7821 21.407 10.1955 21.5 9.5095 21.5ZM9.548 20C9.91217 20 10.2859 19.9526 10.6693 19.8578C11.0526 19.763 11.4109 19.6239 11.7442 19.4405C11.5738 19.3572 11.4183 19.2235 11.278 19.0395C11.1375 18.8555 11.0673 18.695 11.0673 18.5578C11.0673 18.4245 11.1567 18.3125 11.3355 18.222C11.5143 18.1317 11.7358 18.0865 12 18.0865C12.2577 18.0865 12.4743 18.1334 12.65 18.227C12.8257 18.3205 12.9135 18.4308 12.9135 18.5578C12.9135 18.695 12.8433 18.8555 12.703 19.0395C12.5625 19.2235 12.407 19.3572 12.2365 19.4405C12.5698 19.6239 12.9282 19.763 13.3115 19.8578C13.6948 19.9526 14.0686 20 14.4327 20C15.1456 20 15.7484 19.7615 16.2413 19.2845C16.7343 18.8077 16.9808 18.2257 16.9808 17.5385C16.9808 17.2129 16.8926 16.9052 16.7163 16.6155C16.5401 16.3257 16.2725 16.0295 15.9135 15.727C15.693 15.5399 15.5173 15.3777 15.3865 15.2405C15.2558 15.1032 15.0655 14.8775 14.8155 14.5635C14.2872 13.8969 13.8551 13.4696 13.5193 13.2818C13.1834 13.094 12.6738 13 11.9905 13C11.3072 13 10.7949 13.094 10.4538 13.2818C10.1128 13.4696 9.68325 13.8969 9.16525 14.5635C8.91542 14.8775 8.72508 15.1032 8.59425 15.2405C8.46342 15.3777 8.28775 15.5399 8.06725 15.727C7.70825 16.0295 7.44067 16.3257 7.2645 16.6155C7.08817 16.9052 7 17.2129 7 17.5385C7 18.2257 7.2465 18.8077 7.7395 19.2845C8.23233 19.7615 8.83517 20 9.548 20ZM10.5 16.75C10.3667 16.75 10.25 16.675 10.15 16.525C10.05 16.375 10 16.2 10 16C10 15.8 10.05 15.625 10.15 15.475C10.25 15.325 10.3667 15.25 10.5 15.25C10.6333 15.25 10.75 15.325 10.85 15.475C10.95 15.625 11 15.8 11 16C11 16.2 10.95 16.375 10.85 16.525C10.75 16.675 10.6333 16.75 10.5 16.75ZM13.5 16.75C13.3667 16.75 13.25 16.675 13.15 16.525C13.05 16.375 13 16.2 13 16C13 15.8 13.05 15.625 13.15 15.475C13.25 15.325 13.3667 15.25 13.5 15.25C13.6333 15.25 13.75 15.325 13.85 15.475C13.95 15.625 14 15.8 14 16C14 16.2 13.95 16.375 13.85 16.525C13.75 16.675 13.6333 16.75 13.5 16.75ZM9.3635 12.1885C9.55967 12.0424 9.776 11.9225 10.0125 11.829C10.249 11.7354 10.5089 11.6597 10.7923 11.602C10.7589 10.8405 10.6445 10.0767 10.449 9.31055C10.2535 8.54455 10.0007 7.83013 9.6905 7.1673C9.36733 6.4623 9.00767 5.87255 8.6115 5.39805C8.21533 4.92371 7.82558 4.61988 7.44225 4.48655C7.40892 4.59938 7.37975 4.7398 7.35475 4.9078C7.32975 5.0758 7.31725 5.27963 7.31725 5.5193C7.31725 6.62063 7.49483 7.74821 7.85 8.90205C8.20517 10.0559 8.70967 11.1514 9.3635 12.1885ZM14.6365 12.1885C15.2903 11.1514 15.7948 10.0559 16.15 8.90205C16.5052 7.74821 16.6827 6.62063 16.6827 5.5193C16.6827 5.27963 16.6702 5.0758 16.6453 4.9078C16.6203 4.7398 16.5911 4.59938 16.5577 4.48655C16.1744 4.61988 15.7847 4.92371 15.3885 5.39805C14.9923 5.87255 14.6327 6.4623 14.3095 7.1673C14.0095 7.83013 13.7618 8.54455 13.5663 9.31055C13.3708 10.0767 13.2512 10.8405 13.2077 11.602C13.4706 11.6494 13.7203 11.7225 13.9568 11.8213C14.1933 11.92 14.4198 12.0424 14.6365 12.1885Z" fill="#414A56"/>
</g>
</svg>
