<svg width="15" height="15" viewBox="0 0 15 15" fill="none" xmlns="http://www.w3.org/2000/svg">
<path d="M7.5 15L6.4125 13.9373C5.15 12.6975 4.10625 11.6281 3.28125 10.7289C2.45625 9.8297 1.8 9.02248 1.3125 8.30722C0.825 7.59196 0.484375 6.9346 0.290625 6.33515C0.096875 5.73569 0 5.12262 0 4.49591C0 3.21526 0.39375 2.14578 1.18125 1.28747C1.96875 0.429155 2.95 0 4.125 0C4.775 0 5.39375 0.149864 5.98125 0.449591C6.56875 0.749319 7.075 1.17166 7.5 1.71662C7.925 1.17166 8.43125 0.749319 9.01875 0.449591C9.60625 0.149864 10.225 0 10.875 0C12.05 0 13.0313 0.429155 13.8188 1.28747C14.6063 2.14578 15 3.21526 15 4.49591C15 5.12262 14.9031 5.73569 14.7094 6.33515C14.5156 6.9346 14.175 7.59196 13.6875 8.30722C13.2 9.02248 12.5437 9.8297 11.7188 10.7289C10.8938 11.6281 9.85 12.6975 8.5875 13.9373L7.5 15ZM7.5 12.7929C8.7 11.6213 9.6875 10.6165 10.4625 9.77861C11.2375 8.94074 11.85 8.21185 12.3 7.59196C12.75 6.97207 13.0625 6.4203 13.2375 5.93665C13.4125 5.453 13.5 4.97275 13.5 4.49591C13.5 3.67847 13.25 2.99728 12.75 2.45232C12.25 1.90736 11.625 1.63488 10.875 1.63488C10.2875 1.63488 9.74375 1.8154 9.24375 2.17643C8.74375 2.53747 8.4 2.99728 8.2125 3.55586H6.7875C6.6 2.99728 6.25625 2.53747 5.75625 2.17643C5.25625 1.8154 4.7125 1.63488 4.125 1.63488C3.375 1.63488 2.75 1.90736 2.25 2.45232C1.75 2.99728 1.5 3.67847 1.5 4.49591C1.5 4.97275 1.5875 5.453 1.7625 5.93665C1.9375 6.4203 2.25 6.97207 2.7 7.59196C3.15 8.21185 3.7625 8.94074 4.5375 9.77861C5.3125 10.6165 6.3 11.6213 7.5 12.7929Z" fill="#414A56"/>
</svg>
