<svg width="24" height="24" viewBox="0 0 24 24" fill="none" xmlns="http://www.w3.org/2000/svg">
<mask id="mask0_22_16658" style="mask-type:luminance" maskUnits="userSpaceOnUse" x="2" y="1" width="21" height="22">
<path fill-rule="evenodd" clip-rule="evenodd" d="M2 1.00024H22.4998V22.5052H2V1.00024Z" fill="white"/>
</mask>
<g mask="url(#mask0_22_16658)">
<path fill-rule="evenodd" clip-rule="evenodd" d="M13.7169 15.2915C14.9209 15.2915 15.9009 16.2645 15.9009 17.4605V20.5365C15.9009 20.7935 16.1069 20.9995 16.3709 21.0055H18.2769C19.7789 21.0055 20.9999 19.7995 20.9999 18.3175V9.59346C20.9929 9.08346 20.7499 8.60346 20.3329 8.28446L13.7399 3.02646C12.8549 2.32546 11.6169 2.32546 10.7289 3.02846L4.18086 8.28246C3.74786 8.61146 3.50486 9.09146 3.49986 9.61046V18.3175C3.49986 19.7995 4.72086 21.0055 6.22286 21.0055H8.14686C8.41786 21.0055 8.63786 20.7905 8.63786 20.5265C8.63786 20.4685 8.64486 20.4105 8.65686 20.3555V17.4605C8.65686 16.2715 9.63086 15.2995 10.8259 15.2915H13.7169ZM18.277 22.5055H16.353C15.251 22.4795 14.401 21.6145 14.401 20.5365V17.4605C14.401 17.0915 14.094 16.7915 13.717 16.7915H10.831C10.462 16.7935 10.157 17.0945 10.157 17.4605V20.5265C10.157 20.6015 10.147 20.6735 10.126 20.7415C10.018 21.7315 9.172 22.5055 8.147 22.5055H6.223C3.894 22.5055 2 20.6265 2 18.3175V9.60349C2.01 8.60949 2.468 7.69949 3.259 7.10049L9.794 1.85549C11.233 0.715494 13.238 0.715494 14.674 1.85349L21.256 7.10349C22.029 7.69249 22.487 8.60049 22.5 9.58249V18.3175C22.5 20.6265 20.606 22.5055 18.277 22.5055Z" fill="white"/>
</g>
</svg>
