<svg width="24" height="24" viewBox="0 0 24 24" fill="none" xmlns="http://www.w3.org/2000/svg">
<mask id="mask0_22_16569" style="mask-type:luminance" maskUnits="userSpaceOnUse" x="2" y="1" width="21" height="22">
<path fill-rule="evenodd" clip-rule="evenodd" d="M2 1.00024H22.4998V22.5052H2V1.00024Z" fill="white"/>
</mask>
<g mask="url(#mask0_22_16569)">
<path fill-rule="evenodd" clip-rule="evenodd" d="M13.7159 15.2913C14.9199 15.2913 15.8999 16.2643 15.8999 17.4603V20.5363C15.8999 20.7933 16.1059 20.9993 16.3699 21.0053H18.2759C19.7779 21.0053 20.9989 19.7993 20.9989 18.3173V9.59329C20.9919 9.08329 20.7489 8.60329 20.3319 8.28429L13.7389 3.02629C12.8539 2.32529 11.6159 2.32529 10.7279 3.02829L4.17991 8.28229C3.74691 8.61129 3.50391 9.09129 3.49891 9.61029V18.3173C3.49891 19.7993 4.71991 21.0053 6.22191 21.0053H8.14591C8.41691 21.0053 8.63691 20.7903 8.63691 20.5263C8.63691 20.4683 8.64391 20.4103 8.65591 20.3553V17.4603C8.65591 16.2713 9.62991 15.2993 10.8249 15.2913H13.7159ZM18.276 22.5053H16.352C15.25 22.4793 14.4 21.6143 14.4 20.5363V17.4603C14.4 17.0913 14.093 16.7913 13.716 16.7913H10.83C10.461 16.7933 10.156 17.0943 10.156 17.4603V20.5263C10.156 20.6013 10.146 20.6733 10.125 20.7413C10.017 21.7313 9.17102 22.5053 8.14602 22.5053H6.22202C3.89302 22.5053 1.99902 20.6262 1.99902 18.3172V9.60325C2.00902 8.60925 2.46702 7.69925 3.25802 7.10025L9.79302 1.85525C11.232 0.71525 13.237 0.71525 14.673 1.85325L21.255 7.10325C22.028 7.69225 22.486 8.60025 22.499 9.58225V18.3172C22.499 20.6262 20.605 22.5053 18.276 22.5053Z" fill="black"/>
</g>
</svg>
