<svg width="20" height="19" viewBox="0 0 20 19" fill="none" xmlns="http://www.w3.org/2000/svg">
<path d="M10.0039 19.0004L8.55391 17.7004C6.87057 16.1837 5.47891 14.8754 4.37891 13.7754C3.27891 12.6754 2.40391 11.6879 1.75391 10.8129C1.10391 9.93789 0.64974 9.13372 0.391406 8.40039C0.133073 7.66706 0.00390625 6.91706 0.00390625 6.15039C0.00390625 4.58372 0.528906 3.27539 1.57891 2.22539C2.62891 1.17539 3.93724 0.650391 5.50391 0.650391C6.37057 0.650391 7.19557 0.833724 7.97891 1.20039C8.76224 1.56706 9.43724 2.08372 10.0039 2.75039C10.5706 2.08372 11.2456 1.56706 12.0289 1.20039C12.8122 0.833724 13.6372 0.650391 14.5039 0.650391C16.0706 0.650391 17.3789 1.17539 18.4289 2.22539C19.4789 3.27539 20.0039 4.58372 20.0039 6.15039C20.0039 6.91706 19.8747 7.66706 19.6164 8.40039C19.3581 9.13372 18.9039 9.93789 18.2539 10.8129C17.6039 11.6879 16.7289 12.6754 15.6289 13.7754C14.5289 14.8754 13.1372 16.1837 11.4539 17.7004L10.0039 19.0004ZM10.0039 16.3004C11.6039 14.8671 12.9206 13.6379 13.9539 12.6129C14.9872 11.5879 15.8039 10.6962 16.4039 9.93789C17.0039 9.17956 17.4206 8.50456 17.6539 7.91289C17.8872 7.32122 18.0039 6.73372 18.0039 6.15039C18.0039 5.15039 17.6706 4.31706 17.0039 3.65039C16.3372 2.98372 15.5039 2.65039 14.5039 2.65039C13.7206 2.65039 12.9956 2.87122 12.3289 3.31289C11.6622 3.75456 11.2039 4.31706 10.9539 5.00039H9.05391C8.80391 4.31706 8.34557 3.75456 7.67891 3.31289C7.01224 2.87122 6.28724 2.65039 5.50391 2.65039C4.50391 2.65039 3.67057 2.98372 3.00391 3.65039C2.33724 4.31706 2.00391 5.15039 2.00391 6.15039C2.00391 6.73372 2.12057 7.32122 2.35391 7.91289C2.58724 8.50456 3.00391 9.17956 3.60391 9.93789C4.20391 10.6962 5.02057 11.5879 6.05391 12.6129C7.08724 13.6379 8.40391 14.8671 10.0039 16.3004Z" fill="#414A56"/>
</svg>
