<svg width="25" height="24" viewBox="0 0 25 24" fill="none" xmlns="http://www.w3.org/2000/svg">
<mask id="mask0_22_16657" style="mask-type:luminance" maskUnits="userSpaceOnUse" x="2" y="3" width="22" height="20">
<path fill-rule="evenodd" clip-rule="evenodd" d="M2.0835 3H23.409V22.501H2.0835V3Z" fill="white"/>
</mask>
<g mask="url(#mask0_22_16657)">
<path fill-rule="evenodd" clip-rule="evenodd" d="M3.98279 12.1231C5.44321 16.4851 11.213 20.0121 12.7463 20.8851C14.2849 20.0031 20.0963 16.4371 21.5099 12.1271C22.438 9.34112 21.5765 5.81212 18.1536 4.75312C16.4953 4.24212 14.5609 4.55312 13.2255 5.54512C12.9463 5.75112 12.5588 5.75512 12.2776 5.55112C10.863 4.53012 9.01509 4.23112 7.33071 4.75312C3.913 5.81112 3.05467 9.34012 3.98279 12.1231ZM12.7475 22.5011C12.6184 22.5011 12.4903 22.4711 12.3736 22.4101C12.0475 22.2391 4.36734 18.1751 2.49546 12.5811C2.49442 12.5811 2.49442 12.5801 2.49442 12.5801C1.31942 9.05812 2.62775 4.63212 6.85171 3.32512C8.83505 2.70912 10.9965 2.98012 12.7444 4.03912C14.4382 3.01112 16.6882 2.72712 18.6319 3.32512C22.86 4.63412 24.1725 9.05912 22.9986 12.5801C21.1871 18.1101 13.4507 22.2351 13.1225 22.4081C13.0059 22.4701 12.8767 22.5011 12.7475 22.5011Z" fill="black"/>
</g>
<path fill-rule="evenodd" clip-rule="evenodd" d="M18.9098 10.625C18.5067 10.625 18.165 10.328 18.1317 9.93602C18.0629 9.11402 17.49 8.42002 16.6744 8.16702C16.2629 8.03902 16.0379 7.61602 16.1702 7.22302C16.3046 6.82902 16.7411 6.61502 17.1536 6.73902C18.5733 7.18002 19.5681 8.38702 19.69 9.81402C19.7244 10.227 19.4046 10.589 18.9744 10.622C18.9525 10.624 18.9317 10.625 18.9098 10.625Z" fill="black"/>
</svg>
