<svg width="24" height="24" viewBox="0 0 24 24" fill="none" xmlns="http://www.w3.org/2000/svg">
<mask id="mask0_239_10486" style="mask-type:alpha" maskUnits="userSpaceOnUse" x="0" y="0" width="24" height="24">
<rect width="24" height="24" fill="#D9D9D9"/>
</mask>
<g mask="url(#mask0_239_10486)">
<path d="M16.5655 15.05L17.4345 14.2115L15.1615 11.9385C15.3448 11.6551 15.4792 11.3711 15.5645 11.0865C15.6497 10.802 15.6923 10.4847 15.6923 10.1347C15.6923 9.24105 15.3785 8.48555 14.751 7.86821C14.1233 7.25088 13.373 6.94221 12.5 6.94221C11.627 6.94221 10.8767 7.25088 10.249 7.86821C9.62152 8.48555 9.30777 9.24105 9.30777 10.1347C9.30777 11.0282 9.62152 11.7836 10.249 12.401C10.8767 13.0183 11.627 13.327 12.5 13.327C12.85 13.327 13.1663 13.2811 13.449 13.1895C13.7317 13.0978 14.023 12.9603 14.323 12.777L16.5655 15.05ZM12.5 12.1347C11.95 12.1347 11.4792 11.9389 11.0875 11.5472C10.6958 11.1555 10.5 10.6847 10.5 10.1347C10.5 9.58471 10.6958 9.11388 11.0875 8.72221C11.4792 8.33055 11.95 8.13471 12.5 8.13471C13.0397 8.13471 13.5079 8.33055 13.9048 8.72221C14.3016 9.11388 14.5 9.58471 14.5 10.1347C14.5 10.6847 14.3042 11.1555 13.9125 11.5472C13.5208 11.9389 13.05 12.1347 12.5 12.1347ZM5.30777 17.7307C4.8026 17.7307 4.37502 17.5557 4.02502 17.2057C3.67502 16.8557 3.50002 16.4281 3.50002 15.923V5.53846C3.50002 5.0333 3.67502 4.60571 4.02502 4.25571C4.37502 3.90571 4.8026 3.73071 5.30777 3.73071H20.6923C21.1974 3.73071 21.625 3.90571 21.975 4.25571C22.325 4.60571 22.5 5.0333 22.5 5.53846V15.923C22.5 16.4281 22.325 16.8557 21.975 17.2057C21.625 17.5557 21.1974 17.7307 20.6923 17.7307H5.30777ZM5.30777 16.2307H20.6923C20.7693 16.2307 20.8398 16.1987 20.9038 16.1347C20.9679 16.0705 21 16 21 15.923V5.53846C21 5.46146 20.9679 5.39096 20.9038 5.32696C20.8398 5.2628 20.7693 5.23071 20.6923 5.23071H5.30777C5.23077 5.23071 5.16027 5.2628 5.09627 5.32696C5.0321 5.39096 5.00002 5.46146 5.00002 5.53846V15.923C5.00002 16 5.0321 16.0705 5.09627 16.1347C5.16027 16.1987 5.23077 16.2307 5.30777 16.2307ZM2.38477 20.2307V18.7307H23.6153V20.2307H2.38477Z" fill="#414A56"/>
</g>
</svg>
