<svg width="24" height="24" viewBox="0 0 24 24" fill="none" xmlns="http://www.w3.org/2000/svg">
<mask id="mask0_108_11139" style="mask-type:alpha" maskUnits="userSpaceOnUse" x="0" y="0" width="24" height="24">
<rect width="24" height="24" fill="#D9D9D9"/>
</mask>
<g mask="url(#mask0_108_11139)">
<path d="M6.40375 16H7.59625V15.75C7.59625 14.5282 8.02475 13.4888 8.88175 12.6318C9.73875 11.7747 10.7782 11.3463 12 11.3463C13.2218 11.3463 14.2612 11.7747 15.1182 12.6318C15.9753 13.4888 16.4038 14.5282 16.4038 15.75V16H17.5962V15.75C17.5962 14.1928 17.053 12.8708 15.9665 11.784C14.8802 10.6972 13.5588 10.1538 12.0022 10.1538C10.4456 10.1538 9.12333 10.6972 8.0355 11.784C6.94767 12.8708 6.40375 14.1928 6.40375 15.75V16ZM7.23475 9.06725C7.86025 8.95442 8.51375 8.70375 9.19525 8.31525C9.87658 7.92692 10.4294 7.48658 10.8538 6.99425L9.9345 6.2365C9.60117 6.61083 9.1595 6.9535 8.6095 7.2645C8.05967 7.57533 7.5475 7.77883 7.073 7.875L7.23475 9.06725ZM16.7653 9.06725L16.927 7.875C16.4462 7.7725 15.9323 7.56742 15.3855 7.25975C14.8388 6.95192 14.3988 6.61083 14.0655 6.2365L13.1462 6.99425C13.5706 7.48008 14.1234 7.91883 14.8048 8.3105C15.4863 8.70217 16.1398 8.95442 16.7653 9.06725ZM12.0017 21.5C10.6877 21.5 9.45267 21.2507 8.2965 20.752C7.14033 20.2533 6.13467 19.5766 5.2795 18.7218C4.42433 17.8669 3.74725 16.8617 3.24825 15.706C2.74942 14.5503 2.5 13.3156 2.5 12.0017C2.5 10.6877 2.74933 9.45267 3.248 8.2965C3.74667 7.14033 4.42342 6.13467 5.27825 5.2795C6.13308 4.42433 7.13833 3.74725 8.294 3.24825C9.44967 2.74942 10.6844 2.5 11.9983 2.5C13.3123 2.5 14.5473 2.74933 15.7035 3.248C16.8597 3.74667 17.8653 4.42342 18.7205 5.27825C19.5757 6.13308 20.2528 7.13833 20.7518 8.294C21.2506 9.44967 21.5 10.6844 21.5 11.9983C21.5 13.3123 21.2507 14.5473 20.752 15.7035C20.2533 16.8597 19.5766 17.8653 18.7218 18.7205C17.8669 19.5757 16.8617 20.2528 15.706 20.7518C14.5503 21.2506 13.3156 21.5 12.0017 21.5ZM12 20C14.2333 20 16.125 19.225 17.675 17.675C19.225 16.125 20 14.2333 20 12C20 9.76667 19.225 7.875 17.675 6.325C16.125 4.775 14.2333 4 12 4C9.76667 4 7.875 4.775 6.325 6.325C4.775 7.875 4 9.76667 4 12C4 14.2333 4.775 16.125 6.325 17.675C7.875 19.225 9.76667 20 12 20Z" fill="white"/>
</g>
</svg>
