<svg width="24" height="24" viewBox="0 0 24 24" fill="none" xmlns="http://www.w3.org/2000/svg">
<mask id="mask0_108_11133" style="mask-type:alpha" maskUnits="userSpaceOnUse" x="0" y="0" width="24" height="24">
<rect width="24" height="24" fill="#D9D9D9"/>
</mask>
<g mask="url(#mask0_108_11133)">
<path d="M8.548 11.8463C9.184 11.8463 9.71925 11.6193 10.1537 11.1655C10.5884 10.7115 10.8974 10.1698 11.0808 9.5405L9.92875 9.25775C9.82625 9.62442 9.66125 9.94875 9.43375 10.2307C9.20608 10.5127 8.91083 10.6538 8.548 10.6538C8.18517 10.6538 7.89 10.5127 7.6625 10.2307C7.435 9.94875 7.26992 9.62442 7.16725 9.25775L6.0155 9.5405C6.19883 10.1698 6.50775 10.7115 6.94225 11.1655C7.37692 11.6193 7.91217 11.8463 8.548 11.8463ZM12.0027 17.3462C12.6124 17.3462 13.198 17.2132 13.7595 16.947C14.3212 16.681 14.8443 16.2852 15.3288 15.7595L14.4595 14.9615C14.0865 15.3423 13.6917 15.6321 13.275 15.8307C12.8583 16.0294 12.4333 16.1288 12 16.1288C11.5667 16.1288 11.1417 16.0294 10.725 15.8307C10.3083 15.6321 9.9135 15.3423 9.5405 14.9615L8.67125 15.7595C9.17242 16.2917 9.7005 16.6892 10.2555 16.952C10.8105 17.2148 11.3929 17.3462 12.0027 17.3462ZM15.452 11.8463C16.0878 11.8463 16.6231 11.6193 17.0577 11.1655C17.4922 10.7115 17.8012 10.1698 17.9845 9.5405L16.8328 9.25775C16.7301 9.62442 16.565 9.94875 16.3375 10.2307C16.11 10.5127 15.8148 10.6538 15.452 10.6538C15.0892 10.6538 14.7939 10.5127 14.5663 10.2307C14.3388 9.94875 14.1737 9.62442 14.0712 9.25775L12.9193 9.5405C13.1026 10.1698 13.4116 10.7115 13.8462 11.1655C14.2807 11.6193 14.816 11.8463 15.452 11.8463ZM12.0017 21.5C10.6877 21.5 9.45267 21.2507 8.2965 20.752C7.14033 20.2533 6.13467 19.5766 5.2795 18.7218C4.42433 17.8669 3.74725 16.8617 3.24825 15.706C2.74942 14.5503 2.5 13.3156 2.5 12.0017C2.5 10.6877 2.74933 9.45267 3.248 8.2965C3.74667 7.14033 4.42342 6.13467 5.27825 5.2795C6.13308 4.42433 7.13833 3.74725 8.294 3.24825C9.44967 2.74942 10.6844 2.5 11.9983 2.5C13.3123 2.5 14.5473 2.74933 15.7035 3.248C16.8597 3.74667 17.8653 4.42342 18.7205 5.27825C19.5757 6.13308 20.2528 7.13833 20.7518 8.294C21.2506 9.44967 21.5 10.6844 21.5 11.9983C21.5 13.3123 21.2507 14.5473 20.752 15.7035C20.2533 16.8597 19.5766 17.8653 18.7218 18.7205C17.8669 19.5757 16.8617 20.2528 15.706 20.7518C14.5503 21.2506 13.3156 21.5 12.0017 21.5ZM12 20C14.2333 20 16.125 19.225 17.675 17.675C19.225 16.125 20 14.2333 20 12C20 9.76667 19.225 7.875 17.675 6.325C16.125 4.775 14.2333 4 12 4C9.76667 4 7.875 4.775 6.325 6.325C4.775 7.875 4 9.76667 4 12C4 14.2333 4.775 16.125 6.325 17.675C7.875 19.225 9.76667 20 12 20Z" fill="white"/>
</g>
</svg>
