<svg width="24" height="24" viewBox="0 0 24 24" fill="none" xmlns="http://www.w3.org/2000/svg">
<mask id="mask0_108_11136" style="mask-type:alpha" maskUnits="userSpaceOnUse" x="0" y="0" width="24" height="24">
<rect width="24" height="24" fill="#D9D9D9"/>
</mask>
<g mask="url(#mask0_108_11136)">
<path d="M8.15375 12.1538V14C8.15375 15.0615 8.52942 15.9679 9.28075 16.7193C10.0321 17.4706 10.9385 17.8462 12 17.8462C13.0615 17.8462 13.9679 17.4706 14.7193 16.7193C15.4706 15.9679 15.8462 15.0615 15.8462 14V12.1538H8.15375ZM12 16.6538C11.2615 16.6538 10.6346 16.3961 10.1192 15.8807C9.60392 15.3654 9.34625 14.7385 9.34625 14V13.3463H14.6538V14C14.6538 14.7385 14.3961 15.3654 13.8807 15.8807C13.3654 16.3961 12.7385 16.6538 12 16.6538ZM8.5 7.15375C7.92433 7.15375 7.40833 7.35892 6.952 7.76925C6.4955 8.17942 6.16725 8.74283 5.96725 9.4595L7.11925 9.74225C7.23842 9.32175 7.42267 8.98558 7.672 8.73375C7.9215 8.48175 8.1975 8.35258 8.5 8.34625C8.8025 8.35258 9.0785 8.48175 9.328 8.73375C9.57733 8.98558 9.76158 9.32175 9.88075 9.74225L11.0328 9.4595C10.8328 8.74283 10.5045 8.17942 10.048 7.76925C9.59167 7.35892 9.07567 7.15375 8.5 7.15375ZM15.5 7.15375C14.9243 7.15375 14.4083 7.35892 13.952 7.76925C13.4955 8.17942 13.1672 8.74283 12.9672 9.4595L14.1193 9.74225C14.2384 9.31542 14.4211 8.976 14.6673 8.724C14.9134 8.47217 15.191 8.34625 15.5 8.34625C15.809 8.34625 16.0866 8.47217 16.3328 8.724C16.5789 8.976 16.7616 9.31542 16.8807 9.74225L18.0328 9.4595C17.8328 8.74283 17.5045 8.17942 17.048 7.76925C16.5917 7.35892 16.0757 7.15375 15.5 7.15375ZM12.0017 21.5C10.6877 21.5 9.45267 21.2507 8.2965 20.752C7.14033 20.2533 6.13467 19.5766 5.2795 18.7218C4.42433 17.8669 3.74725 16.8617 3.24825 15.706C2.74942 14.5503 2.5 13.3156 2.5 12.0017C2.5 10.6877 2.74933 9.45267 3.248 8.2965C3.74667 7.14033 4.42342 6.13467 5.27825 5.2795C6.13308 4.42433 7.13833 3.74725 8.294 3.24825C9.44967 2.74942 10.6844 2.5 11.9983 2.5C13.3123 2.5 14.5473 2.74933 15.7035 3.248C16.8597 3.74667 17.8653 4.42342 18.7205 5.27825C19.5757 6.13308 20.2528 7.13833 20.7518 8.294C21.2506 9.44967 21.5 10.6844 21.5 11.9983C21.5 13.3123 21.2507 14.5473 20.752 15.7035C20.2533 16.8597 19.5766 17.8653 18.7218 18.7205C17.8669 19.5757 16.8617 20.2528 15.706 20.7518C14.5503 21.2506 13.3156 21.5 12.0017 21.5ZM12 20C14.2333 20 16.125 19.225 17.675 17.675C19.225 16.125 20 14.2333 20 12C20 9.76667 19.225 7.875 17.675 6.325C16.125 4.775 14.2333 4 12 4C9.76667 4 7.875 4.775 6.325 6.325C4.775 7.875 4 9.76667 4 12C4 14.2333 4.775 16.125 6.325 17.675C7.875 19.225 9.76667 20 12 20Z" fill="white"/>
</g>
</svg>
