<svg width="103" height="113" viewBox="0 0 103 113" fill="none" xmlns="http://www.w3.org/2000/svg">
<g clip-path="url(#clip0_365_9336)">
<path d="M39.02 26.49L35.8 33.2L35.57 38.41C35.57 38.41 32.42 34.34 32.37 34.1C32.32 33.86 26.48 23.57 26.48 23.57L22.47 18.17L18.59 17.61L13.34 22.62L10.83 26.78L9.88002 30.99L11.07 34.4L18.98 44.13L27.16 50.84L29.23 51.68L33.35 45.81L37.64 41.67L40.59 44.59L51.01 49.03L53.26 52.4L57.18 53.86H58.82L59.58 62.64L61.4 71.89L63.87 75.98L58.82 76.79L47.22 76.23L35.59 71.5L33.16 69.55L30.82 72.17L27.49 82.22L26.6 83.9L19.02 84.76L15.02 83.32L11.75 81.15L8.26002 80.3L4.10002 81.63L1.70002 84.77L0.77002 89.99L3.08002 94.6L10.11 103.92L15.93 107.09L20.99 106.89L25.8 105.01L32.58 101.53L39.42 99.14L45.69 97.42L47.22 104.41L51.56 108.72L54.38 110.32L59.81 111.37L63.17 110.3L67.15 108.86L75.31 106.78L82.5 101.78L85.66 94.27L84.8 87.95L82.5 85.2L81.18 76.67L86.14 72.2L85.69 68.07L82.5 63.39L77.62 62.34L76.81 60.27L76.23 51.95L80.73 51.48L87 49.06L89.09 44.77L90.95 36.12L94.73 34.89L99.91 28.91L101.65 21.79L97.77 13.57L92.63 10.63L86.56 10.09L80.65 13.22L78.04 13.9L75.55 12.68L71.77 10.09L65.46 7.62003L63.32 7.09003L56.69 8.13003L53.52 3.01003L45 0.780029L38.75 2.88003L33.89 7.40003L31.39 13.96L32.65 19.07L39.02 26.51V26.49Z" fill="#D8D3F4"/>
<path d="M48.4598 60.2401C48.3698 60.3701 48.3198 60.43 48.2498 60.57C48.1198 60.83 47.9298 60.87 47.8698 61.14C47.1598 64.21 45.4498 67.03 43.0798 69.1C42.7598 69.15 42.3698 69.13 42.0498 69.18" stroke="#9BA1AD" stroke-width="2" stroke-miterlimit="10"/>
<path d="M46.8101 65.1901L50.7101 66.7201" stroke="#9BA1AD" stroke-width="2" stroke-miterlimit="10"/>
<path d="M51.9398 61.84L48.8498 71.08C48.7598 71.36 48.4598 71.7 48.2798 71.93" stroke="#9BA1AD" stroke-width="2" stroke-miterlimit="10"/>
<path d="M55.2002 63.58C55.5902 64.17 56.0602 64.71 56.5802 65.18" stroke="#9BA1AD" stroke-width="2" stroke-miterlimit="10"/>
<path d="M54.8498 68.15C54.8498 69.22 54.0898 70.01 53.6898 70.98C53.3098 71.88 53.2498 72.83 53.0298 73.76" stroke="#9BA1AD" stroke-width="2" stroke-miterlimit="10"/>
<path d="M56.5103 65.06C56.6403 65.03 56.7703 65.1 56.8303 65.22" stroke="#9BA1AD" stroke-width="2" stroke-miterlimit="10"/>
<path d="M65.6569 37.9601C65.7483 37.5958 64.8238 37.0497 63.5918 36.7403C62.3598 36.4308 61.2869 36.4752 61.1954 36.8394C61.104 37.2037 62.0285 37.7498 63.2605 38.0593C64.4925 38.3687 65.5654 38.3243 65.6569 37.9601Z" fill="#3F4854" stroke="#404955" stroke-width="1.5" stroke-linecap="round" stroke-linejoin="round"/>
<path d="M68.6877 35.0704C68.8424 34.4544 68.5814 33.8579 68.1047 33.7382C67.6279 33.6184 67.116 34.0207 66.9613 34.6367C66.8066 35.2527 67.0676 35.8491 67.5443 35.9689C68.0211 36.0886 68.533 35.6863 68.6877 35.0704Z" fill="#404955"/>
<path d="M62.112 33.4198C62.2667 32.8039 62.0057 32.2074 61.529 32.0877C61.0522 31.9679 60.5404 32.3702 60.3856 32.9862C60.2309 33.6022 60.4919 34.1986 60.9687 34.3184C61.4454 34.4381 61.9573 34.0358 62.112 33.4198Z" fill="#404955"/>
<path d="M57.6602 7.90999C60.1902 6.75999 63.1602 6.87999 65.8102 7.69999C68.4602 8.51999 70.8802 9.96999 73.2402 11.43" stroke="#404955" stroke-width="1.5" stroke-linecap="round" stroke-linejoin="round"/>
<path d="M75.8799 13.19L78.5999 13.87" stroke="#404955" stroke-width="1.5" stroke-linecap="round" stroke-linejoin="round"/>
<path d="M51.5701 15.02C47.5901 15.93 44.3701 19.52 43.8901 23.57" stroke="#404955" stroke-width="1.5" stroke-linecap="round" stroke-linejoin="round"/>
<path d="M39.2798 26.09C37.5798 28.7 35.8298 31.47 35.5898 34.57C35.2798 38.58 37.6498 42.45 40.8898 44.82C44.1298 47.19 48.1298 48.28 52.0998 48.93" stroke="#404955" stroke-width="1.5" stroke-linecap="round" stroke-linejoin="round"/>
<path d="M57.16 8.66999C55.75 3.88999 50.69 0.649993 45.71 0.749993C40.72 0.849993 36.06 3.91999 33.38 8.12999C32.27 9.87999 31.45 11.87 31.39 13.94C31.31 16.33 32.24 18.66 33.58 20.63C34.92 22.6 36.64 24.28 38.36 25.94" stroke="#404955" stroke-width="1.5" stroke-linecap="round" stroke-linejoin="round"/>
<path d="M79.7798 14.08C83.3898 9.88999 90.0798 8.83999 94.8998 11.57C99.7198 14.3 102.27 20.4 101.03 25.8C99.7898 31.2 94.9798 35.52 89.5098 36.39" stroke="#404955" stroke-width="1.5" stroke-linecap="round" stroke-linejoin="round"/>
<path d="M41.73 10.39C43.29 9.41 45.37 9.33 47 10.19C48.63 11.05 49.73 12.82 49.8 14.66" stroke="#404955" stroke-width="1.5" stroke-linecap="round" stroke-linejoin="round"/>
<path d="M59.2401 57.5C58.6201 53.84 60.4401 49.88 63.6201 47.97C65.5901 46.79 68.0301 46.38 70.2701 46.93C72.5101 47.48 74.4901 49.02 75.5201 51.08C76.6301 53.31 76.5901 55.91 76.6801 58.4C76.7701 60.89 77.0901 63.56 78.7301 65.44" stroke="#404955" stroke-width="1.5" stroke-linecap="round" stroke-linejoin="round"/>
<path d="M59.7798 60.31C59.8598 63.98 59.9598 67.72 61.1298 71.2C62.2998 74.68 64.7198 77.94 68.1698 79.19C70.4798 80.02 73.0398 79.9 75.4198 79.29C80.6398 77.96 85.3198 74.08 86.8798 68.92C88.4398 63.76 86.3598 57.53 81.6398 54.93" stroke="#404955" stroke-width="1.5" stroke-linecap="round" stroke-linejoin="round"/>
<path d="M88.6797 44.42C88.4997 46.55 87.4097 48.59 85.7397 49.93C84.0697 51.27 81.8297 51.87 79.7197 51.56" stroke="#404955" stroke-width="1.5" stroke-linecap="round" stroke-linejoin="round"/>
<path d="M32.96 69.86C29.6 73.91 27.74 77.58 27.46 82.83" stroke="#404955" stroke-width="1.5" stroke-linecap="round" stroke-linejoin="round"/>
<path d="M81.1602 79.26L82.4802 85.16" stroke="#404955" stroke-width="1.5" stroke-linecap="round" stroke-linejoin="round"/>
<path d="M29.63 82.36C25.52 83.87 20.26 85.92 16.3 84.04C14.43 83.15 12.93 81.59 11.01 80.78C7.17997 79.18 2.20997 81.56 1.05997 85.55C-0.190033 89.89 2.63997 94.24 5.31997 97.87C7.10997 100.29 8.92997 102.75 11.29 104.62C13.65 106.49 16.65 107.75 19.65 107.39C22.06 107.1 24.21 105.82 26.35 104.68C32.93 101.15 38.43 98.45 45.77 97.11" stroke="#404955" stroke-width="1.5" stroke-linecap="round" stroke-linejoin="round"/>
<path d="M82.9399 85.62C85.6799 88.99 86.4399 93.87 84.8399 97.91C83.3099 101.78 79.8799 104.66 76.0999 106.41C72.3199 108.16 68.4899 107.71 64.9199 109.87C60.0399 112.81 53.2199 111.12 49.4899 106.8C45.7599 102.48 44.9099 96.19 46.2899 90.66C47.0699 87.54 48.6099 84.47 51.2399 82.63C54.9699 80.03 60.4299 80.58 63.8899 83.53C67.3499 86.48 68.7999 91.44 67.9499 95.9" stroke="#404955" stroke-width="1.5" stroke-linecap="round" stroke-linejoin="round"/>
<path d="M40.79 54.77C38.36 58.83 35.11 62.4 31.29 65.2C31.63 67.43 32.72 69.43 34.42 70.91C36.12 72.39 38.18 73.4 40.28 74.22C47.73 77.13 56.06 77.75 63.86 75.97" stroke="#404955" stroke-width="1.5" stroke-linecap="round" stroke-linejoin="round"/>
<path d="M35.3699 61C32.9599 60.14 30.5499 59.28 28.1399 58.41C28.9499 51.83 32.2599 45.56 37.6199 41.66C33.1699 36.42 29.4999 30.52 26.7499 24.22C26.0999 22.74 25.4999 21.21 24.5099 19.94C23.5199 18.67 22.0599 17.65 20.4399 17.61C18.4099 17.56 16.6799 19.01 15.2599 20.47C13.7299 22.04 12.2899 23.72 11.2999 25.68C10.3099 27.64 9.80994 29.89 10.2299 32.04C10.6799 34.35 12.1199 36.34 13.5899 38.18C16.3199 41.61 19.4899 44.83 22.8199 47.68C24.9399 49.49 26.8199 51.15 29.5599 51.68" stroke="#404955" stroke-width="1.5" stroke-linecap="round" stroke-linejoin="round"/>
<path d="M77.27 62.15C80.56 62.15 83.77 64.13 85.25 67.06C86.73 69.99 86.43 73.75 84.48 76.4" stroke="#404955" stroke-width="1.5" stroke-linecap="round" stroke-linejoin="round"/>
<path d="M50.71 49.02C51.1 50.72 52.23 52.23 53.75 53.08C55.27 53.93 57.15 54.1 58.8 53.54" stroke="#404955" stroke-width="1.5" stroke-linecap="round" stroke-linejoin="round"/>
<path d="M48.8599 51.67C49.3199 52.99 50.2099 54.15 51.3699 54.94C53.3299 56.27 55.8199 56.44 58.1799 56.57" stroke="#404955" stroke-width="1.5" stroke-linecap="round" stroke-linejoin="round"/>
<path d="M48.1998 60.23C48.2498 60.23 48.3098 60.23 48.3598 60.25C48.7198 60.34 48.9398 60.7 48.8498 61.06C48.5298 62.36 48.0298 63.61 47.3798 64.78C48.3698 65.08 49.3198 65.53 50.1898 66.11C50.5598 64.94 50.8198 63.74 50.9698 62.52C51.0098 62.17 51.3098 61.93 51.6498 61.93C51.6698 61.93 51.6898 61.93 51.7098 61.93C52.0798 61.97 52.3398 62.3 52.2998 62.67C51.9298 65.83 50.8198 68.91 49.0898 71.57C48.9598 71.77 48.7498 71.87 48.5298 71.87C48.4098 71.87 48.2798 71.83 48.1698 71.76C47.8598 71.56 47.7698 71.14 47.9698 70.83C48.6698 69.75 49.2598 68.59 49.7298 67.39C48.8098 66.73 47.7598 66.22 46.6598 65.93C45.7098 67.32 44.5398 68.57 43.1898 69.56C43.0698 69.65 42.9298 69.69 42.7898 69.69C42.5798 69.69 42.3798 69.6 42.2498 69.42C42.0298 69.12 42.0898 68.7 42.3898 68.48C44.9298 66.61 46.8098 63.78 47.5498 60.72C47.6198 60.42 47.8998 60.21 48.1998 60.21M48.1998 59.23C47.4298 59.23 46.7598 59.75 46.5798 60.5C45.8898 63.34 44.1398 65.96 41.7898 67.69C41.0498 68.24 40.8898 69.28 41.4398 70.02C41.7498 70.45 42.2598 70.7 42.7798 70.7C43.1398 70.7 43.4798 70.59 43.7698 70.38C44.9998 69.47 46.0998 68.38 47.0398 67.11C47.5298 67.29 48.0098 67.51 48.4698 67.78C48.0798 68.67 47.6198 69.51 47.1098 70.29C46.6098 71.06 46.8298 72.1 47.5998 72.6C47.8798 72.78 48.1898 72.87 48.5098 72.87C49.0798 72.87 49.5998 72.59 49.9098 72.11C51.7198 69.31 52.8898 66.09 53.2698 62.78C53.3798 61.87 52.7198 61.04 51.8098 60.93C51.7298 60.93 51.6798 60.93 51.6298 60.93C50.7798 60.93 50.0598 61.56 49.9598 62.4C49.8798 63.12 49.7398 63.86 49.5598 64.59C49.2998 64.46 49.0398 64.34 48.7698 64.22C49.2198 63.26 49.5698 62.28 49.8098 61.29C49.9198 60.86 49.8498 60.41 49.6098 60.03C49.3798 59.65 49.0098 59.38 48.5798 59.28C48.4498 59.25 48.3198 59.23 48.1898 59.23H48.1998Z" fill="#404955"/>
<path d="M55.58 63.68C55.75 63.68 55.92 63.73 56.05 63.84L56.65 64.35C56.91 64.57 56.92 64.94 56.66 65.17C56.53 65.29 56.36 65.34 56.18 65.34C56 65.34 55.84 65.29 55.71 65.18L55.11 64.67C54.85 64.45 54.84 64.08 55.1 63.85C55.23 63.73 55.41 63.68 55.58 63.68ZM55.58 62.68C55.16 62.68 54.75 62.83 54.44 63.1C54.1 63.4 53.9 63.83 53.91 64.27C53.91 64.71 54.12 65.14 54.47 65.43L55.07 65.94C55.38 66.2 55.77 66.34 56.18 66.34C56.59 66.34 57.01 66.19 57.32 65.92C57.66 65.62 57.85 65.19 57.85 64.75C57.85 64.31 57.64 63.88 57.29 63.59L56.69 63.08C56.39 62.82 55.99 62.68 55.58 62.68Z" fill="#404955"/>
<path d="M54.6797 68.28C54.7697 68.28 54.8597 68.3 54.9497 68.34C55.2897 68.49 55.4397 68.88 55.2897 69.22C54.7597 70.42 54.3697 71.68 54.1097 72.97C54.0497 73.29 53.7697 73.51 53.4597 73.51C53.4197 73.51 53.3697 73.51 53.3297 73.5C52.9697 73.43 52.7297 73.08 52.7997 72.71C53.0697 71.33 53.4997 69.98 54.0697 68.69C54.1797 68.44 54.4197 68.29 54.6797 68.29M54.6797 67.28C54.0197 67.28 53.4197 67.67 53.1497 68.28C52.5597 69.63 52.1097 71.05 51.8197 72.51C51.7297 72.95 51.8197 73.39 52.0697 73.76C52.3197 74.13 52.6897 74.38 53.1297 74.47C53.2397 74.49 53.3497 74.5 53.4597 74.5C54.2497 74.5 54.9397 73.93 55.0997 73.16C55.3397 71.95 55.7197 70.75 56.2097 69.62C56.3897 69.21 56.3997 68.76 56.2397 68.34C56.0797 67.92 55.7597 67.6 55.3497 67.42C55.1397 67.33 54.9097 67.28 54.6797 67.28Z" fill="#404955"/>
<path d="M63.3199 37.8L61.8999 42.57" stroke="#404955" stroke-width="1.5" stroke-linecap="round" stroke-linejoin="round"/>
</g>
<defs>
<clipPath id="clip0_365_9336">
<rect width="102.1" height="112.09" fill="white"/>
</clipPath>
</defs>
</svg>
