<svg width="89" height="122" viewBox="0 0 89 122" fill="none" xmlns="http://www.w3.org/2000/svg">
<g clip-path="url(#clip0_365_9374)">
<path d="M32.87 9.43003L30.86 6.76003L25.7 4.35003H18.84L14.73 7.20003L13.04 11.06L13.47 14.3L15.01 17.76L15.28 19.58L17.76 23.57L23.3 25.51V29.44L24.03 35.25L27.77 40.64L38.25 45.16L43.3 45.8L44.37 47.39L48.86 49.12L57.3 48.45L61.38 44.79L69.82 43.08L75.49 39.01L75.01 35.52L73.74 34.4L72.99 31.47L73.74 26.18L72.99 23.45L74.78 22.38L80.34 18.57L82.68 12.91L81.73 7.19003L78.28 2.48003L71.24 0.280029L64.54 2.63003L61.78 7.47003L58.75 6.77003C58.75 6.77003 53.48 5.46003 53.34 5.25003C53.2 5.04003 48.87 5.04003 48.87 5.04003L41.7 5.45003L35.85 7.63003L32.84 9.45003L32.87 9.43003Z" fill="#D8D3F4"/>
<path d="M29.2402 83.64L20.6402 89.89L16.4202 86.77L12.3302 85.02L5.00021 87.03L1.02021 93.2L0.720215 98.72L9.07021 110.02L15.3002 113.96H21.5302L26.4002 109.62L32.9002 103.26L38.0002 100.56L44.4002 99.69L44.0102 106.32L46.9302 112.74L53.5002 118.84L58.9302 120.74L64.3702 119.28L67.2802 116.49L69.9702 109.91L69.6502 100.38L71.2802 96.28L72.4002 98.53L73.5102 101.67L79.7102 102.19L85.4802 99.69L87.4102 95.05L86.6002 88.65L78.7702 78.29L75.7802 82.19L71.9502 84.97L63.8502 88.45L53.7602 89.89L41.4402 88.64L29.2402 83.64Z" fill="#D8D3F4"/>
<path d="M29.9302 84.06L21.0402 77.61L14.7002 89.15L23.0102 92.53L29.9302 84.06Z" fill="#D8D3F4"/>
<path d="M37.4104 44.79L35.2204 47.82L34.1704 53.61L36.4704 56.98L37.3504 51.17L40.4904 49.83L45.8504 50.73L47.2604 48.78C47.2604 48.78 44.0404 47.01 44.0004 46.96C43.9604 46.91 42.7404 45.33 42.7404 45.33L37.4104 44.79Z" fill="white"/>
<path d="M51.1401 48.62L51.6001 51.11L53.9501 50.67L56.8201 51.11L59.5001 53.09L59.7501 55.83L58.1501 59.34L61.0501 58.45L64.7401 55.89L66.5601 50.67L66.2901 45.7L65.1901 44.42H61.0501L60.2101 46.83L56.1201 48.68L51.1401 48.62Z" fill="white"/>
<path d="M64.0601 10.52C65.6401 11.32 67.3101 12.21 68.1601 13.76C68.6701 14.69 68.8201 15.76 69.1201 16.78C69.4201 17.8 69.9401 18.83 70.8901 19.31" stroke="#404955" stroke-width="1.35" stroke-linecap="round" stroke-linejoin="round"/>
<path d="M72.27 22.44C74.01 25.2 74.25 28.85 72.87 31.8" stroke="#404955" stroke-width="1.35" stroke-linecap="round" stroke-linejoin="round"/>
<path d="M73.7701 34.4C75.3801 35.03 75.9101 37.22 75.2401 38.82C74.5701 40.42 73.0601 41.49 71.5301 42.3C67.7501 44.28 63.3801 45.09 59.1401 44.6" stroke="#404955" stroke-width="1.35" stroke-linecap="round" stroke-linejoin="round"/>
<path d="M23.5604 27.3C22.4104 30.48 23.1404 34.16 25.0204 36.98C26.9004 39.8 29.8004 41.82 32.9204 43.13C36.0404 44.44 39.3904 45.1 42.7404 45.66" stroke="#404955" stroke-width="1.35" stroke-linecap="round" stroke-linejoin="round"/>
<path d="M61.8101 7.23998C62.5801 4.89998 64.4101 2.97998 66.6001 1.84998C70.3201 -0.0600151 75.1301 0.379985 78.4501 2.92999C81.7701 5.47998 83.4201 10.02 82.5201 14.11C81.6201 18.2 78.2201 21.63 74.1501 22.56" stroke="#404955" stroke-width="1.35" stroke-linecap="round" stroke-linejoin="round"/>
<path d="M59.4201 6.75999C57.8001 5.62999 55.7301 5.37999 53.7601 5.37999C51.7901 5.37999 49.7901 5.58999 47.8501 5.23999" stroke="#404955" stroke-width="1.35" stroke-linecap="round" stroke-linejoin="round"/>
<path d="M42.1001 5.37C39.0901 5.83 36.2101 7.1 33.8501 9.02999" stroke="#404955" stroke-width="1.35" stroke-linecap="round" stroke-linejoin="round"/>
<path d="M33.61 12.01C33.67 9.85996 32.46 7.79996 30.77 6.47996C29.08 5.15996 26.94 4.48996 24.81 4.19996C21.82 3.78996 18.6 4.12996 16.14 5.86996C13.68 7.60996 12.28 11.03 13.48 13.79" stroke="#404955" stroke-width="1.35" stroke-linecap="round" stroke-linejoin="round"/>
<path d="M15.0501 18.1C14.8001 20.69 16.6901 23.07 18.9501 24.35C23.1601 26.74 28.9101 25.99 32.3701 22.61" stroke="#404955" stroke-width="1.35" stroke-linecap="round" stroke-linejoin="round"/>
<path d="M20.1504 13.95C20.6304 12.47 22.1104 11.43 23.6604 11.3C25.2104 11.17 26.7604 11.9 27.8004 13.05C28.8404 14.2 29.3904 15.75 29.4904 17.3" stroke="#404955" stroke-width="1.35" stroke-linecap="round" stroke-linejoin="round"/>
<path d="M73.6401 8.64996C70.9201 8.03996 67.8801 9.42996 66.5601 11.88" stroke="#404955" stroke-width="1.35" stroke-linecap="round" stroke-linejoin="round"/>
<path d="M57.5613 31.9244C59.1462 31.9047 60.4263 31.5083 60.4205 31.0389C60.4147 30.5695 59.1251 30.2049 57.5402 30.2245C55.9553 30.2441 54.6751 30.6406 54.6809 31.11C54.6868 31.5794 55.9763 31.944 57.5613 31.9244Z" fill="#404955"/>
<path d="M52.9749 28.1616C53.5879 28.154 54.0769 27.5076 54.0671 26.7179C54.0574 25.9282 53.5525 25.2942 52.9395 25.3018C52.3265 25.3094 51.8375 25.9557 51.8473 26.7454C51.8571 27.5351 52.362 28.1692 52.9749 28.1616Z" fill="#404955"/>
<path d="M61.4329 28.0468C62.0459 28.0392 62.5349 27.3928 62.5251 26.6031C62.5154 25.8134 62.0105 25.1794 61.3975 25.187C60.7845 25.1946 60.2955 25.8409 60.3053 26.6306C60.3151 27.4203 60.82 28.0544 61.4329 28.0468Z" fill="#404955"/>
<path d="M57.8804 31.99C58.1304 34.15 58.2004 36.33 58.1104 38.5" stroke="#404955" stroke-width="1.35" stroke-linecap="round" stroke-linejoin="round"/>
<path d="M42.7305 45.83L43.3405 45.8C43.7705 47.11 45.0105 48.04 46.3305 48.46C47.6505 48.88 49.0605 48.88 50.4405 48.88C52.3505 48.88 54.2805 48.87 56.1505 48.45C58.0205 48.03 59.8405 47.16 61.0605 45.69" stroke="#404955" stroke-width="1.35" stroke-linecap="round" stroke-linejoin="round"/>
<path d="M36.8603 45.7C25.8803 51.08 18.6603 61.49 15.3003 73.25" stroke="#404955" stroke-width="1.35" stroke-linecap="round" stroke-linejoin="round"/>
<path d="M78.77 59.34C74.5 53.58 71.42 49.26 65.54 45.16" stroke="#404955" stroke-width="1.35" stroke-linecap="round" stroke-linejoin="round"/>
<path d="M16.0703 73.28C20.7003 77.39 25.3803 81.53 30.7803 84.55C44.4803 92.19 63.6903 90.68 71.9403 85.28" stroke="#404955" stroke-width="1.35" stroke-linecap="round" stroke-linejoin="round"/>
<path d="M58.4502 59.11C61.6102 58.98 64.1202 56.44 65.1302 54.6C66.0202 52.99 66.7702 51.23 66.7802 49.39C66.7902 47.55 65.9202 45.61 64.2802 44.79" stroke="#404955" stroke-width="1.35" stroke-linecap="round" stroke-linejoin="round"/>
<path d="M47.2501 48.78C45.9401 52.25 43.1801 55.15 39.7801 56.63C38.6401 57.13 37.2801 57.45 36.1801 56.86C35.0001 56.22 34.5601 54.74 34.4801 53.4C34.3101 50.66 35.1701 47.87 36.8501 45.7" stroke="#404955" stroke-width="1.35" stroke-linecap="round" stroke-linejoin="round"/>
<path d="M73.5103 84.06C77.6603 80.78 80.3602 75.73 80.7702 70.45C81.8802 70.69 83.0003 70.93 84.1103 71.17" stroke="#3F4854" stroke-width="1.35" stroke-linecap="round" stroke-linejoin="round"/>
<path d="M80.6001 60.78L84.4001 67.37C84.8801 68.21 85.3701 69.05 85.6401 69.98C85.9101 70.91 85.9501 71.93 85.5601 72.81C85.0401 73.96 83.8901 74.66 82.8001 75.3C81.4801 76.07 80.1501 76.84 78.8301 77.61" stroke="#404955" stroke-width="1.35" stroke-linecap="round" stroke-linejoin="round"/>
<path d="M50.6802 48.93L51.6102 50.74" stroke="#404955" stroke-width="1.35" stroke-linecap="round" stroke-linejoin="round"/>
<path d="M46.2204 57.14C46.2004 57.24 46.1804 57.34 46.1404 57.44C44.8304 63.03 40.6504 67.87 35.3104 69.97C34.7204 66.95 33.1604 64.14 30.9204 62.05C32.8304 60.84 34.7504 59.63 36.6704 58.41L36.8504 58.33C37.0804 58.91 37.4304 59.43 37.9104 59.81C39.1004 60.74 40.8504 60.63 42.2004 59.94C43.5404 59.25 44.5704 58.08 45.5604 56.94L45.5804 56.53C45.6704 56.76 45.8804 56.93 46.1404 56.98L46.2504 57L46.2204 57.14Z" fill="#8781BD"/>
<path d="M57.1005 61.73C57.6505 62.79 58.9505 63.17 60.0605 63.64C61.1605 64.11 62.3305 65.1 62.0605 66.27C61.7905 67.41 60.4105 67.79 59.3805 68.37C57.9705 69.16 57.0105 70.7 56.9105 72.32C52.0005 69.24 48.6305 63.8 48.0605 58.03L48.6305 57.96C49.1205 59.07 49.6805 60.17 50.4605 61.1C51.2405 62.03 52.2805 62.79 53.4705 63.03C54.6705 63.27 56.0105 62.94 56.8005 62.02C56.8905 61.91 56.9805 61.8 57.0505 61.69L57.1005 61.73Z" fill="#8781BD"/>
<path d="M46.2206 57.14L46.2506 57L47.7306 57.27C48.1606 57.35 48.5606 57.07 48.6306 56.65L49.4306 51.72C49.4406 51.63 49.4406 51.54 49.4306 51.46L50.3806 51.42C51.7306 51.07 53.0906 50.71 54.4806 50.67C55.8706 50.63 57.3106 50.94 58.4106 51.79C59.5106 52.65 60.1906 54.11 59.8606 55.47C59.6106 56.53 58.8106 57.37 58.3406 58.35C57.8306 59.43 57.7006 60.72 57.0506 61.69C56.9806 61.8 56.8906 61.91 56.8006 62.02C56.0106 62.94 54.6706 63.27 53.4706 63.03C52.2806 62.79 51.2406 62.03 50.4606 61.1C49.6806 60.17 49.1206 59.07 48.6306 57.96L48.0606 58.03C48.0606 58.03 48.0506 57.96 48.0506 57.93L46.1406 57.44C46.1806 57.34 46.2006 57.24 46.2206 57.14Z" fill="#8781BD"/>
<path d="M46.2306 51.3299C46.2906 50.9299 46.6506 50.6499 47.0506 50.6799L48.7506 50.8399C49.1006 50.8699 49.3706 51.1299 49.4306 51.4599C49.4406 51.5399 49.4406 51.6299 49.4306 51.7199L48.6306 56.6499C48.5606 57.0699 48.1606 57.3499 47.7306 57.2699L46.2506 56.9999L46.1406 56.9799C45.8806 56.9299 45.6706 56.7599 45.5806 56.5299L45.6306 55.3399L46.2306 51.3299Z" fill="#8781BD"/>
<path d="M45.5202 56.11L45.6302 55.34L45.5802 56.53C45.5202 56.4 45.5002 56.26 45.5202 56.11Z" fill="#8781BD"/>
<path d="M45.5205 56.11C45.5005 56.26 45.5205 56.4 45.5805 56.53L45.5605 56.94C44.5705 58.08 43.5405 59.25 42.2005 59.94C40.8505 60.63 39.1005 60.74 37.9105 59.81C37.4305 59.43 37.0805 58.91 36.8505 58.33C36.7105 57.99 36.6105 57.62 36.5505 57.26C36.4005 56.29 36.4805 55.3 36.5705 54.32C36.6905 52.99 36.8605 51.54 37.7905 50.59C38.6005 49.77 39.8205 49.5 40.9805 49.48C42.6705 49.45 44.3805 49.89 45.8505 50.73L45.6305 55.34L45.5205 56.11Z" fill="#8781BD"/>
<path d="M50.3804 51.42C51.7304 51.07 53.0904 50.71 54.4804 50.67C55.8704 50.63 57.3104 50.94 58.4104 51.79C59.5104 52.65 60.1904 54.11 59.8604 55.47C59.6104 56.53 58.8104 57.37 58.3404 58.35C57.8304 59.43 57.7004 60.72 57.0504 61.69C56.9804 61.8 56.8904 61.91 56.8004 62.02C56.0104 62.94 54.6704 63.27 53.4704 63.03C52.2804 62.79 51.2404 62.03 50.4604 61.1C49.6804 60.17 49.1204 59.07 48.6304 57.96" stroke="#3F4854" stroke-width="1.5" stroke-miterlimit="10" stroke-linecap="round"/>
<path d="M45.8505 50.73C44.3805 49.89 42.6705 49.45 40.9805 49.48C39.8205 49.5 38.6005 49.77 37.7905 50.59C36.8605 51.54 36.6905 52.99 36.5705 54.32C36.4805 55.3 36.4005 56.29 36.5505 57.26C36.6105 57.62 36.7105 57.99 36.8505 58.33C37.0805 58.91 37.4305 59.43 37.9105 59.81C39.1005 60.74 40.8505 60.63 42.2005 59.94C43.5405 59.25 44.5705 58.08 45.5605 56.94" stroke="#3F4854" stroke-width="1.5" stroke-miterlimit="10" stroke-linecap="round"/>
<path d="M49.4302 51.4599C49.3702 51.1299 49.1002 50.8699 48.7502 50.8399L47.0502 50.6799C46.6502 50.6499 46.2902 50.9299 46.2302 51.3299L45.6302 55.3399L45.5202 56.1099C45.5002 56.2599 45.5202 56.3999 45.5802 56.5299C45.6702 56.7599 45.8802 56.9299 46.1402 56.9799L46.2502 56.9999L47.7302 57.2699C48.1602 57.3499 48.5602 57.0699 48.6302 56.6499L49.4302 51.7199C49.4402 51.6299 49.4402 51.5399 49.4302 51.4599Z" stroke="#3F4854" stroke-width="1.5" stroke-miterlimit="10" stroke-linecap="round"/>
<path d="M48.0503 57.9299C48.0503 57.9299 48.0603 57.9999 48.0603 58.0299C48.6303 63.7999 52.0003 69.2399 56.9103 72.3199C57.0103 70.6999 57.9703 69.1599 59.3803 68.3699C60.4103 67.7899 61.7903 67.4099 62.0603 66.2699C62.3303 65.0999 61.1603 64.1099 60.0603 63.6399C58.9503 63.1699 57.6503 62.7899 57.1003 61.7299" stroke="#3F4854" stroke-width="1.5" stroke-miterlimit="10" stroke-linecap="round"/>
<path d="M46.2204 57.14C46.2004 57.24 46.1804 57.34 46.1404 57.44C44.8304 63.03 40.6504 67.87 35.3104 69.97C34.7204 66.95 33.1604 64.14 30.9204 62.05C32.8304 60.84 34.7504 59.63 36.6704 58.41" stroke="#3F4854" stroke-width="1.5" stroke-miterlimit="10" stroke-linecap="round"/>
<path d="M41.3901 70.31C40.9901 71.02 40.6501 71.85 40.8501 72.64C41.0101 73.26 41.4801 73.76 42.0201 74.09C42.5601 74.42 43.1801 74.61 43.7901 74.79C44.5801 75.03 45.4401 75.26 46.2201 74.97C46.9801 74.68 47.4701 73.94 47.7501 73.19C48.5101 71.16 47.6201 69.11 45.7001 68.12C43.9101 67.19 42.2201 68.86 41.3901 70.31Z" fill="#8781BD" stroke="#3F4854" stroke-width="1.5" stroke-miterlimit="10" stroke-linecap="round"/>
<path d="M40.4203 83.19C40.9603 83.67 41.7203 83.79 42.4403 83.89C43.2203 84 44.0703 84.09 44.7503 83.68C45.2903 83.36 45.6003 82.78 45.8603 82.21C46.2403 81.37 46.5303 80.37 46.1003 79.56C45.7003 78.8 44.7903 78.47 43.9403 78.34C42.4803 78.12 41.0803 78.6 40.2703 79.9C39.7103 80.81 39.5503 82.42 40.4203 83.19Z" fill="#8781BD" stroke="#3F4854" stroke-width="1.5" stroke-miterlimit="10" stroke-linecap="round"/>
<path d="M21.5202 93.08C20.7302 89.7 18.1502 86.79 14.8902 85.6C11.6302 84.41 7.78024 84.96 5.00024 87.03C2.22024 89.1 0.570238 92.6199 0.770238 96.0899C1.01024 100.21 3.60024 103.78 6.26024 106.94C8.11024 109.13 10.0802 111.29 12.5402 112.76C15.0102 114.22 18.0702 114.92 20.7902 114.01C24.3302 112.83 26.4602 109.35 29.0002 106.63C32.7802 102.58 38.0002 99.89 43.5002 99.16" stroke="#3F4854" stroke-width="1.5" stroke-miterlimit="10" stroke-linecap="round"/>
<path d="M4.14036 96.06C4.08036 94.99 5.27036 94.18 6.34036 94.26C7.41036 94.34 8.33036 95.03 9.13036 95.74C13.0904 99.24 15.9704 103.96 17.2804 109.09" stroke="#3F4854" stroke-width="1.5" stroke-miterlimit="10" stroke-linecap="round"/>
<path d="M20.6401 89.89C23.8401 89.22 26.2601 86.69 28.4801 84.29" stroke="#3F4854" stroke-width="1.5" stroke-miterlimit="10" stroke-linecap="round"/>
<path d="M50.7405 116.49C45.2405 112.75 42.5505 105.34 44.3505 98.94C45.1705 96.03 47.0505 93.19 49.9205 92.22C52.4605 91.36 55.2905 92.11 57.6305 93.4C61.1405 95.34 63.9505 98.49 65.4705 102.2C66.9905 105.91 67.2005 110.13 66.0605 113.97" stroke="#3F4854" stroke-width="1.5" stroke-miterlimit="10" stroke-linecap="round"/>
<path d="M52.9805 118.63C55.9405 119.79 59.1405 120.98 62.2205 120.19C65.4905 119.35 67.8705 116.39 68.9505 113.2C70.0305 110.01 70.0105 106.56 69.9905 103.18C69.9705 100.3 71.0305 98.12 71.4605 95.26" stroke="#3F4854" stroke-width="1.5" stroke-miterlimit="10" stroke-linecap="round"/>
<path d="M48.8403 107.54C49.5303 105.32 52.1403 104.06 54.4403 104.46C56.7403 104.86 58.6203 106.62 59.6803 108.69C60.7403 110.76 61.1003 113.12 61.2803 115.44" stroke="#3F4854" stroke-width="1.5" stroke-miterlimit="10" stroke-linecap="round"/>
<path d="M79.16 78.72C81.27 80.86 83.4 83.02 85.02 85.55C86.64 88.08 87.73 91.06 87.53 94.06C87.33 97.06 85.68 100.06 82.97 101.36C81.22 102.2 79.2 102.3 77.26 102.23C76 102.19 74.62 102.04 73.71 101.17C72.98 100.48 72.68 99.48 72.41 98.52C71.37 94.9 70.33 91.27 69.29 87.65" stroke="#3F4854" stroke-width="1.5" stroke-miterlimit="10" stroke-linecap="round"/>
<path d="M20.7202 78.08C20.0602 78.45 19.6302 79.13 19.2602 79.8C18.0102 82.08 17.1602 84.56 16.7402 87.13" stroke="#3F4854" stroke-width="1.5" stroke-miterlimit="10" stroke-linecap="round"/>
</g>
<defs>
<clipPath id="clip0_365_9374">
<rect width="88.3" height="121.2" fill="white"/>
</clipPath>
</defs>
</svg>
