<svg width="104" height="88" viewBox="0 0 104 88" fill="none" xmlns="http://www.w3.org/2000/svg">
<g clip-path="url(#clip0_365_9307)">
<path d="M26.39 9.71L23.78 4.59L16.76 0.75L8.74 2.28L3.25 8.17L2.43 16.16L6.39 22.09L11.11 25.31L9.39 33.16L10.44 35.46L8.42 38.15L6.39 41.01L7.47 44.35L12.41 48.75L8.42 51.32L4.22 59.52L2.43 63.77L0.75 72.95L1.98 79.26L6.39 81.32L12.41 80.75L17.17 78.02V74.71L19.76 69.75L30.45 72.95L25.65 76.44V79.98L30.11 85.23L36.01 86.82L42.24 84.36L46.81 77.92L47.96 74.82L50.87 74.26L58.45 72.81L73.96 64.91L81.83 56.95L87.19 45.8L90.81 45.23L96.79 43.16L101.66 38.15L102.44 31.85L98.61 25.87L91.92 21.19L79.86 20.24L78.45 16.6L72.84 12.29L70.73 8.73L62.75 7.02H54.2L50.49 9.24L50.87 11.43L41.43 9.73L31.73 8.73L26.39 9.71Z" fill="#D8D3F4"/>
<path d="M2.77024 60.94C2.63024 60.72 2.70024 60.42 2.83024 60.19C3.04024 59.84 3.41024 59.58 3.82024 59.52" stroke="#404955" stroke-width="1.5" stroke-linecap="round" stroke-linejoin="round"/>
<path d="M23.3799 12.95C21.5099 13.58 19.5199 14.29 18.3399 15.87C17.6299 16.81 17.2899 17.97 16.7999 19.04C16.3099 20.11 15.5599 21.17 14.4399 21.54" stroke="#404955" stroke-width="1.5" stroke-linecap="round" stroke-linejoin="round"/>
<path d="M12.41 24.78C10.04 27.54 9.19998 31.53 10.24 35.01" stroke="#404955" stroke-width="1.5" stroke-linecap="round" stroke-linejoin="round"/>
<path d="M8.84018 37.73C6.96018 38.17 6.03018 40.5 6.51018 42.36C6.99018 44.22 8.48018 45.66 10.0402 46.79C13.8902 49.58 18.5802 51.17 23.3302 51.32" stroke="#404955" stroke-width="1.5" stroke-linecap="round" stroke-linejoin="round"/>
<path d="M58.98 43.29C58.77 47.06 56.41 50.51 53.25 52.58C50.09 54.65 46.24 55.45 42.46 55.44C38.69 55.42 34.96 54.63 31.29 53.74" stroke="#404955" stroke-width="1.5" stroke-linecap="round" stroke-linejoin="round"/>
<path d="M26.39 9.71003C25.92 7.00003 24.21 4.59003 21.97 3.00003C18.18 0.29003 12.81 2.95639e-05 8.73997 2.28003C4.66997 4.56003 2.11997 9.31003 2.45997 13.96C2.79997 18.61 5.98997 22.94 10.34 24.62" stroke="#404955" stroke-width="1.5" stroke-linecap="round" stroke-linejoin="round"/>
<path d="M29.1001 9.55005C31.0601 8.56005 33.3901 8.62005 35.5701 8.94005C37.7501 9.26005 39.9101 9.81005 42.1101 9.73005" stroke="#404955" stroke-width="1.5" stroke-linecap="round" stroke-linejoin="round"/>
<path d="M48.4302 10.8C51.6702 11.79 54.6402 13.66 56.9402 16.15" stroke="#404955" stroke-width="1.5" stroke-linecap="round" stroke-linejoin="round"/>
<path d="M56.7202 19.49C57.0002 17.11 58.6602 15.03 60.7402 13.85C62.8202 12.67 65.2802 12.27 67.6702 12.3C71.0302 12.33 74.5302 13.21 76.9602 15.54C79.3902 17.86 80.3902 21.85 78.6202 24.71" stroke="#404955" stroke-width="1.5" stroke-linecap="round" stroke-linejoin="round"/>
<path d="M76.2101 29.1801C76.0701 32.0701 73.6101 34.4001 70.9101 35.4501C65.8901 37.4101 59.6701 35.6601 56.3901 31.3801" stroke="#404955" stroke-width="1.5" stroke-linecap="round" stroke-linejoin="round"/>
<path d="M71.2599 23.78C70.9699 22.07 69.4999 20.68 67.8199 20.29C66.1399 19.9 64.2999 20.45 62.9699 21.56C61.6399 22.67 60.7899 24.28 60.4199 25.98" stroke="#404955" stroke-width="1.5" stroke-linecap="round" stroke-linejoin="round"/>
<path d="M13.1201 9.35001C16.2101 9.11001 19.3501 11.13 20.4101 14.05" stroke="#404955" stroke-width="1.5" stroke-linecap="round" stroke-linejoin="round"/>
<path d="M31.8091 38.6534C31.8902 38.1406 30.5409 37.5011 28.7953 37.2249C27.0497 36.9488 25.5688 37.1406 25.4877 37.6533C25.4066 38.1661 26.7559 38.8057 28.5015 39.0818C30.2471 39.358 31.728 39.1662 31.8091 38.6534Z" fill="#3F4854" stroke="#404955" stroke-width="1.5" stroke-linecap="round" stroke-linejoin="round"/>
<path d="M35.6348 34.2836C35.772 33.4163 35.3393 32.6271 34.6683 32.5209C33.9974 32.4148 33.3422 33.0319 33.205 33.8992C33.0678 34.7665 33.5005 35.5557 34.1714 35.6619C34.8424 35.768 35.4976 35.151 35.6348 34.2836Z" fill="#404955"/>
<path d="M26.3281 32.8196C26.4654 31.9522 26.0327 31.163 25.3617 31.0569C24.6907 30.9507 24.0356 31.5678 23.8984 32.4351C23.7611 33.3025 24.1938 34.0917 24.8648 34.1978C25.5358 34.304 26.1909 33.6869 26.3281 32.8196Z" fill="#404955"/>
<path d="M28.1401 39.1201C27.5201 41.4601 27.0901 43.8501 26.8501 46.2601" stroke="#404955" stroke-width="1.5" stroke-linecap="round" stroke-linejoin="round"/>
<path d="M32.2499 67.01C30.7599 73.05 30.7499 72.28 25.9299 76.22C25.4999 77.57 25.5799 79.1 26.1099 80.42C27.2999 83.43 30.0099 85.79 33.1599 86.56C36.3099 87.33 39.7999 86.48 42.2399 84.37C43.6299 83.17 44.7899 81.72 45.7199 80.13C46.1999 79.3 46.6199 78.44 46.9799 77.56C47.2999 76.77 47.4499 75.51 47.9599 74.84C48.7599 73.8 51.5199 74.48 52.7299 74.32C54.8599 74.05 56.9199 73.39 58.9299 72.66C65.0699 70.43 71.0599 67.53 76.0399 63.29C81.0199 59.05 84.9499 53.38 86.2599 46.97" stroke="#404955" stroke-width="1.5" stroke-linecap="round" stroke-linejoin="round"/>
<path d="M11.87 48.75C8.99998 51.38 6.64998 54.56 4.97998 58.07" stroke="#404955" stroke-width="1.5" stroke-linecap="round" stroke-linejoin="round"/>
<path d="M2.61014 63.26C1.11014 67.2 0.500145 71.48 0.840145 75.68C0.950145 77.1 1.23015 78.62 2.28015 79.58C3.19015 80.41 4.47014 80.64 5.68014 80.83C7.76014 81.16 9.88015 81.49 11.9601 81.19C14.0401 80.89 16.1201 79.84 17.1601 78.01" stroke="#404955" stroke-width="1.5" stroke-linecap="round" stroke-linejoin="round"/>
<path d="M22.5801 70.8101C24.8701 71.6701 27.2801 72.2001 29.7101 72.3901" stroke="#404955" stroke-width="1.5" stroke-linecap="round" stroke-linejoin="round"/>
<path d="M80.1304 20.61C82.6804 19.98 85.3704 20.24 87.9404 20.77C90.7804 21.36 93.5804 22.29 96.0304 23.85C98.4804 25.41 100.56 27.62 101.65 30.31C102.74 33 102.75 36.18 101.38 38.73C100.36 40.63 98.6604 42.1 96.7804 43.16C93.9204 44.79 90.5904 45.58 87.3004 45.4C87.2304 45.63 87.1704 45.85 87.1004 46.08" stroke="#404955" stroke-width="1.5" stroke-linecap="round" stroke-linejoin="round"/>
<path d="M52.3301 12.4101C51.6101 11.7001 51.1401 10.9201 50.9501 10.1401C50.7301 9.24005 50.9501 8.24005 52.0601 7.65005C53.2701 7.01005 55.1501 7.00005 56.8701 7.03005C59.3901 7.07005 61.9501 7.11005 64.4301 7.47005C66.9101 7.83005 69.3701 8.56005 70.9901 9.74005C72.6101 10.9201 73.4701 12.2401 73.1401 12.7601" stroke="#404955" stroke-width="1.5" stroke-linecap="round" stroke-linejoin="round"/>
<path d="M17 77.17C16.84 74.6 17.75 71.98 19.47 70.06C20.15 69.3 21.07 68.61 22.08 68.74" stroke="#404955" stroke-width="1.5" stroke-linecap="round" stroke-linejoin="round"/>
</g>
<defs>
<clipPath id="clip0_365_9307">
<rect width="103.19" height="87.58" fill="white"/>
</clipPath>
</defs>
</svg>
