<svg width="37" height="18" viewBox="0 0 37 18" fill="none" xmlns="http://www.w3.org/2000/svg">
<g clip-path="url(#clip0_10_4778)">
<path d="M1.14899 8.04724C1.42527 8.04724 1.64893 8.27537 1.64893 8.55718V10.3554C1.64893 12.3683 1.55245 14.6183 0.863933 16.4389C0.6929 16.2063 0.267512 15.9111 0 15.7948C0.556951 14.1531 0.653431 12.0776 0.653431 10.3375V8.55718C0.653431 8.27537 0.877089 8.04724 1.15337 8.04724H1.14899ZM0.912172 5.36781H5.97298C6.31504 5.36781 6.59571 5.6541 6.59571 6.003V6.63819H4.13986V18H3.46889C3.16191 18 2.91632 17.7451 2.91632 17.4364V6.63819H0.912172C0.570108 6.63819 0.289439 6.35191 0.289439 6.003C0.289439 5.64962 0.570108 5.36781 0.912172 5.36781ZM6.17471 2.72865H1.40773C1.06566 2.72865 0.784995 2.44237 0.784995 2.09346C0.784995 1.74455 1.06566 1.45827 1.40773 1.45827H5.54759C5.88965 1.45827 6.17032 1.74455 6.17032 2.09346V2.72865H6.17471ZM5.94228 8.02934C6.21856 8.02934 6.44222 8.25747 6.44222 8.53928V15.1864H5.99929C5.69231 15.1864 5.44672 14.9314 5.44672 14.6228V8.53928C5.44672 8.25747 5.67038 8.02934 5.94666 8.02934H5.94228ZM17.6383 17.0204V17.5885H7.22721C6.92023 17.5885 6.67026 17.3335 6.67026 17.0204C6.67026 16.7073 6.92023 16.4523 7.22721 16.4523H9.87164C9.78393 15.9513 9.59097 15.3206 9.35415 14.7346C9.23575 14.4394 9.38924 14.1084 9.69183 14.0279L10.2356 13.8847C10.6391 14.6094 10.9636 15.5666 11.0776 16.1929L10.3102 16.4478H13.8755L13.2221 16.2331C13.4896 15.7321 13.801 14.9851 14.0203 14.3589C14.1167 14.0726 14.4237 13.916 14.7088 14.001L15.4499 14.2202C15.0684 15.003 14.7219 15.844 14.3755 16.4478H17.0813C17.3883 16.4478 17.6339 16.7028 17.6339 17.0115L17.6383 17.0204ZM17.4058 9.28183H7.5912C7.28422 9.28183 7.03425 9.02686 7.03425 8.71374C7.03425 8.40062 7.28422 8.14565 7.5912 8.14565H16.8533C17.1602 8.14565 17.4058 8.40062 17.4058 8.70926V9.27736V9.28183ZM16.9497 7.22865H8.06922C7.75347 7.22865 7.49911 6.9692 7.49911 6.64714V2.1203C7.49911 1.79823 7.75347 1.53431 8.0736 1.53431H10.2049V0.760458C10.2049 0.433917 10.4681 0.165527 10.7882 0.165527H11.2969V1.53431H13.0204V0.724672C13.0204 0.416024 13.266 0.165527 13.5686 0.165527C13.8712 0.165527 14.1167 0.416024 14.1167 0.724672V1.53431H16.384C16.6998 1.53431 16.9541 1.79376 16.9541 2.11583V7.22417L16.9497 7.22865ZM8.13062 13.7595V10.5477C8.13062 10.3867 8.25779 10.257 8.41567 10.257H16.3753V13.4687C16.3753 13.6297 16.2481 13.7595 16.0902 13.7595H8.13062ZM8.68318 3.90062H10.3497V2.51394H8.68318V3.90062ZM8.68318 6.24903H10.3497V4.83998H8.68318V6.24903ZM9.31907 12.7977H15.1298V11.2321H9.31907V12.7977ZM13.016 3.90062V2.51394H11.2925V3.90062H13.016ZM11.2925 4.83998V6.24903H13.016V4.83998H11.2925ZM15.7394 2.51394H13.9545V3.90062H15.7394V2.51394ZM15.7394 4.83998H13.9545V6.24903H15.7394V4.83998Z" fill="#A0BCEF"/>
<path d="M25.5758 1.03341C25.0671 2.24563 24.4838 3.44444 23.8304 4.57615V17.5975H23.1682C22.7603 17.5975 22.4314 17.262 22.4314 16.846V6.78589C21.7999 7.685 21.107 8.48569 20.4361 9.19245C20.3396 8.97774 20.1203 8.59305 19.901 8.25309C19.7168 7.96681 19.7432 7.58211 19.9756 7.33609C21.6508 5.56919 23.212 3.07317 24.2382 0.469788C24.383 0.107462 24.7645 -0.0848838 25.1285 0.0314184C25.5407 0.16114 25.7424 0.626349 25.5714 1.03341H25.5758ZM36.9999 15.4594V16.2108H25.9266C25.5188 16.2108 25.1899 15.8754 25.1899 15.4594C25.1899 15.0433 25.5188 14.7079 25.9266 14.7079H36.2587C36.6666 14.7079 36.9955 15.0433 36.9955 15.4594H36.9999ZM36.1754 4.57615H27.0011C26.5932 4.57615 26.2643 4.24066 26.2643 3.82466C26.2643 3.40865 26.5932 3.07317 27.0011 3.07317H35.4387C35.8465 3.07317 36.1754 3.40865 36.1754 3.82466V4.57615Z" fill="#A0BCEF"/>
</g>
<defs>
<clipPath id="clip0_10_4778">
<rect width="37" height="18" fill="white"/>
</clipPath>
</defs>
</svg>
