<svg width="74" height="114" viewBox="0 0 74 114" fill="none" xmlns="http://www.w3.org/2000/svg">
<g clip-path="url(#clip0_360_9121)">
<path d="M25.76 17.84L19.04 15.46L12.67 11.7L9.53002 12.04L7.72002 15.57C7.72002 15.57 8.36002 21.83 8.55002 21.88C8.74002 21.93 13.08 26.59 13.08 26.59L11.12 31.01L11.51 35.32L7.14002 37.44L6.02002 42.9L6.87002 46.58L11.58 51.23C11.58 51.23 19.19 52.11 19.26 52.12C19.33 52.13 26.37 50.75 26.37 50.75L30.15 53.12L38.29 53.76L50.71 51.58L51.64 50.54L55.09 51.42L62.8 49.12L66.49 46.77V42.64L64.86 38.72L62.33 36.52V33.38L60.69 25.52L63.01 22.32L64.52 18.2L62.77 11.81L58.46 9.70001L47.64 15.47L42.25 14.73L41.26 11.04C41.26 11.04 40.55 14.61 39.29 14.61C38.03 14.61 38.79 12.24 38.79 12.24L37.03 10.91L35.75 14.04L33.88 10.69L32.71 12.8L31.59 14.95L25.77 17.83L25.76 17.84Z" fill="#FFFBF5"/>
<path d="M14.42 68.07L10.38 83.99L7.03002 80.93L5.52002 75.9L6.50002 72.02L10.76 68.53L13.83 67.26L14.42 68.07Z" fill="#EFC7D8"/>
<path d="M58.4097 65.15L63.0497 81.01L66.6097 79.33L69.3497 75L68.3097 68.63L60.5997 64.44L58.4097 65.15Z" fill="#FFFBF5"/>
<path d="M13.7798 103.38L5.66982 105.84L3.81982 107.75L4.76982 109.84L13.4698 110.75L29.7898 110.27L34.9198 109.18L30.2198 104.79L21.2698 102.93L13.7798 103.38Z" fill="#FFFBF5"/>
<path d="M52.51 100.13L48.54 101.85L45.79 109.27C45.79 109.27 47.18 112.07 47.24 112.21C47.3 112.35 50.48 112.49 50.48 112.49L60.56 106.56L71.61 95.1L71.87 90.22L68.28 88.81L57.96 93.21L52.5 100.13H52.51Z" fill="#FFFBF5"/>
<path d="M11.0199 79.15L37.0799 79.01L61.4299 75.42L64.8799 89.81L57.4599 93.58L52.3499 101L46.1499 104.96L28.5599 104.5L12.8999 102.77L9.60986 97.92C9.60986 97.92 11.0199 79.73 11.0099 79.15H11.0199Z" fill="#A0BCEF"/>
<path d="M33.48 55.83L35.71 61.12L33.29 70.94L36.96 78.03L41.27 70.34L39.16 61.25L40.82 55.67L37.79 53.39H35.74L33.48 55.83Z" fill="#A0BCEF"/>
<mask id="mask0_360_9121" style="mask-type:luminance" maskUnits="userSpaceOnUse" x="6" y="9" width="61" height="45">
<path d="M25.76 17.84L19.04 15.46L12.67 11.7L9.53002 12.04L7.72002 15.57C7.72002 15.57 8.36002 21.83 8.55002 21.88C8.74002 21.93 13.08 26.59 13.08 26.59L11.12 31.01L11.51 35.32L7.14002 37.44L6.02002 42.9L6.87002 46.58L11.58 51.23C11.58 51.23 19.19 52.11 19.26 52.12C19.33 52.13 26.37 50.75 26.37 50.75L30.15 53.12L38.29 53.76L50.71 51.58L51.64 50.54L55.09 51.42L62.8 49.12L66.49 46.77V42.64L64.86 38.72L62.33 36.52V33.38L60.69 25.52L63.01 22.32L64.52 18.2L62.77 11.81L58.46 9.70001L47.64 15.47L42.25 14.73L41.26 11.04C41.26 11.04 40.55 14.61 39.29 14.61C38.03 14.61 38.79 12.24 38.79 12.24L37.03 10.91L35.75 14.04L33.88 10.69L32.71 12.8L31.59 14.95L25.77 17.83L25.76 17.84Z" fill="white"/>
</mask>
<g mask="url(#mask0_360_9121)">
<path d="M53.6702 39.98C64.7103 39.98 73.6602 31.0302 73.6602 19.99C73.6602 8.94983 64.7103 0 53.6702 0C42.63 0 33.6802 8.94983 33.6802 19.99C33.6802 31.0302 42.63 39.98 53.6702 39.98Z" fill="#EFC7D8"/>
</g>
<path d="M14.8501 79.01C14.8501 75.05 17.9001 71.83 21.6601 71.83C25.4201 71.83 28.4701 75.04 28.4701 79.01" stroke="#404955" stroke-width="1.5" stroke-linecap="round" stroke-linejoin="round"/>
<path d="M16.3501 79.01C16.3501 75.92 18.7301 73.41 21.6701 73.41C24.6101 73.41 26.9901 75.92 26.9901 79.01" stroke="#404955" stroke-width="1.5" stroke-linecap="round" stroke-linejoin="round"/>
<path d="M20.79 55.83C20.62 56 18.75 74.3 18.75 74.3L24.76 75.03L25.22 62.22" fill="#9CA3AF"/>
<path d="M20.79 55.83C20.62 56 18.75 74.3 18.75 74.3L24.76 75.03L25.22 62.22" stroke="#404955" stroke-width="1.5" stroke-linecap="round" stroke-linejoin="round"/>
<path d="M45.4303 78.21C44.6903 74.33 47.2403 71.02 50.9203 70.17C54.6003 69.32 58.1903 71.78 58.9303 75.65" stroke="#404955" stroke-width="1.5" stroke-linecap="round" stroke-linejoin="round"/>
<path d="M46.9202 78.03C46.3402 75 48.3402 72.37 51.2102 71.71C54.0802 71.05 56.8802 72.96 57.4602 75.99" stroke="#404955" stroke-width="1.5" stroke-linecap="round" stroke-linejoin="round"/>
<path d="M50.8201 52.05L54.5501 72.6101L48.5301 73.25C48.5301 73.25 46.7601 59.1 46.8901 58.89L48.6101 59.76" fill="#9CA3AF"/>
<path d="M50.8201 52.05L54.5501 72.6101L48.5301 73.25C48.5301 73.25 46.7601 59.1 46.8901 58.89L48.6101 59.76" stroke="#404955" stroke-width="1.5" stroke-linecap="round" stroke-linejoin="round"/>
<path d="M34.7403 35.18C35.3975 35.18 35.9303 34.6473 35.9303 33.9901C35.9303 33.3328 35.3975 32.8 34.7403 32.8C34.0831 32.8 33.5503 33.3328 33.5503 33.9901C33.5503 34.6473 34.0831 35.18 34.7403 35.18Z" fill="#404955"/>
<path d="M39.0303 37.44C40.422 37.44 41.5503 36.9072 41.5503 36.25C41.5503 35.5928 40.422 35.06 39.0303 35.06C37.6385 35.06 36.5103 35.5928 36.5103 36.25C36.5103 36.9072 37.6385 37.44 39.0303 37.44Z" fill="#404955"/>
<path d="M43.3301 35.18C43.9874 35.18 44.5201 34.6473 44.5201 33.9901C44.5201 33.3328 43.9874 32.8 43.3301 32.8C42.6729 32.8 42.1401 33.3328 42.1401 33.9901C42.1401 34.6473 42.6729 35.18 43.3301 35.18Z" fill="#404955"/>
<path d="M13.3203 26.3C11.2503 28.78 10.4603 32.26 11.2503 35.39" stroke="#404955" stroke-width="1.5" stroke-linecap="round" stroke-linejoin="round"/>
<path d="M15.66 36.31C14.47 35.37 12.85 35.07 11.36 35.34C8.27996 35.91 5.96996 38.91 5.79996 42.04C5.62996 45.17 7.37996 48.22 9.92996 50.03C12.48 51.84 15.73 52.5 18.85 52.3C21.97 52.1 24.99 51.09 27.85 49.82" stroke="#404955" stroke-width="1.5" stroke-linecap="round" stroke-linejoin="round"/>
<path d="M34.6401 40.7C37.1501 41.68 40.0101 41.7 42.5301 40.76" stroke="#404955" stroke-width="1.5" stroke-linecap="round" stroke-linejoin="round"/>
<path d="M32.02 38.27C33.23 38.88 34.23 39.91 34.8 41.14C35.37 42.37 35.51 43.8 35.19 45.12" stroke="#404955" stroke-width="1.5" stroke-linecap="round" stroke-linejoin="round"/>
<path d="M56.23 58.65C58.5 66.1 60.78 73.56 63.05 81.01C64.14 84.58 64.84 86.05 64.88 89.81" stroke="#404955" stroke-width="1.5" stroke-linecap="round" stroke-linejoin="round"/>
<path d="M28.5703 103.85C34.3403 105.03 40.2803 105.4 46.1603 104.95" stroke="#404955" stroke-width="1.5" stroke-linecap="round" stroke-linejoin="round"/>
<path d="M16.0002 62.27C12.6902 71.74 10.6302 81.74 9.91021 91.85C9.74021 94.28 9.65021 96.8 10.4902 99.06C11.3302 101.32 13.3202 103.23 15.5302 103.06" stroke="#404955" stroke-width="1.5" stroke-linecap="round" stroke-linejoin="round"/>
<path d="M9.15018 110.74C7.94018 110.76 6.69018 110.77 5.60018 110.33C4.51018 109.89 3.61018 108.84 3.82018 107.75C4.07018 106.44 5.66018 105.75 7.04018 105.31C11.9202 103.75 17.0402 102.48 22.1702 102.81C27.3002 103.14 32.2302 105.32 35.0402 109.35C31.2702 110.73 27.3002 110.42 23.2702 110.49C18.5602 110.57 13.8602 110.66 9.15018 110.73V110.74Z" stroke="#404955" stroke-width="1.5" stroke-linecap="round" stroke-linejoin="round"/>
<path d="M49.6804 108.12C51.5704 99.29 58.0704 91.85 66.0204 89.42C68.1904 88.75 71.0704 88.76 72.0904 90.97C73.1104 93.16 71.4804 95.68 69.8904 97.42C64.9604 102.8 59.3304 107.4 53.2204 111.03C52.1404 111.67 51.0204 112.29 49.8104 112.46C48.6004 112.63 47.2504 112.27 46.4704 111.24C45.0204 109.33 46.1304 106.47 47.2704 104.32" stroke="#404955" stroke-width="1.5" stroke-linecap="round" stroke-linejoin="round"/>
<path d="M26.5901 51.05C29.6701 53.06 32.7301 53.76 36.3101 53.67C32.1801 56.68 28.0601 59.68 23.9301 62.69C22.6501 59.41 21.3701 56.13 20.1001 52.85" stroke="#404955" stroke-width="1.5" stroke-linecap="round" stroke-linejoin="round"/>
<path d="M50.38 51.57C49.81 54.3 49.24 57.03 48.67 59.76C45.07 57.34 41.24 55.34 37.27 53.81C41.97 53.59 45.92 53.2 50.39 51.58L50.38 51.57Z" stroke="#404955" stroke-width="1.5" stroke-linecap="round" stroke-linejoin="round"/>
<path d="M11.3604 78.74C27.7804 80.63 44.4803 79.58 60.6003 75.65" stroke="#404955" stroke-width="1.5" stroke-linecap="round" stroke-linejoin="round"/>
<path d="M12.98 82.91C28 84.72 43.32 83.53 57.95 79.41" stroke="#404955" stroke-width="1.5" stroke-linecap="round" stroke-linejoin="round"/>
<path d="M36.46 84.73C36.67 91.32 36.87 97.91 37.08 104.5" stroke="#404955" stroke-width="1.5" stroke-linecap="round" stroke-linejoin="round"/>
<path d="M50.71 81.88C52.22 83.77 54.34 85.06 56.6 85.45C58.86 85.84 61.24 85.33 63.2 84.04" stroke="#404955" stroke-width="1.5" stroke-linecap="round" stroke-linejoin="round"/>
<path d="M19.3302 84.37C18.6402 86.43 17.3202 88.22 15.6302 89.39C13.9402 90.56 11.9002 91.09 9.91016 90.87C10.0102 90.83 10.1102 90.8 10.2102 90.76" stroke="#404955" stroke-width="1.5" stroke-linecap="round" stroke-linejoin="round"/>
<path d="M33.98 56.97L35.47 61.25H39.59L40.57 56.21" stroke="#404955" stroke-width="1.5" stroke-linecap="round" stroke-linejoin="round"/>
<path d="M35.98 62.06C35.87 62.25 33.29 70.94 33.29 70.94C33.29 70.94 36.54 77.77 36.77 77.66C37 77.55 41.02 70.01 41.02 70.01L39.02 61.65" stroke="#404955" stroke-width="1.5" stroke-linecap="round" stroke-linejoin="round"/>
<path d="M50.3501 38.18C52.6701 35.81 56.2901 34.79 59.5101 35.59C62.7301 36.39 65.4401 39 66.3701 42.19C66.7801 43.58 66.8501 45.13 66.2101 46.43C65.5001 47.88 64.0301 48.8 62.5501 49.45C58.9501 51.05 54.8701 51.52 51.0001 50.78" stroke="#404955" stroke-width="1.5" stroke-linecap="round" stroke-linejoin="round"/>
<path d="M60.54 25.79C61.99 28.9 62.59 32.4 62.23 35.81" stroke="#404955" stroke-width="1.5" stroke-linecap="round" stroke-linejoin="round"/>
<path d="M12.2601 68.76C10.4301 68.96 8.68014 69.82 7.41014 71.15C6.14014 72.48 5.36014 74.27 5.24014 76.1C5.19014 76.82 5.25014 77.57 5.52014 78.24" stroke="#404955" stroke-width="1.5" stroke-linecap="round" stroke-linejoin="round"/>
<path d="M6.68018 61.9301C9.55018 61.2601 12.7502 62.1701 14.8402 64.2501" stroke="#404955" stroke-width="1.5" stroke-linecap="round" stroke-linejoin="round"/>
<path d="M9.62012 59.6C10.7301 59.72 11.8101 60.14 12.7101 60.8" stroke="#404955" stroke-width="1.5" stroke-linecap="round" stroke-linejoin="round"/>
<path d="M5.41016 76.69C5.44016 78.25 5.97016 79.8 6.92016 81.04C7.87016 82.28 9.21016 83.21 10.7002 83.66" stroke="#404955" stroke-width="1.5" stroke-linecap="round" stroke-linejoin="round"/>
<path d="M61.73 65.99C64.22 65.88 66.74 67.11 68.17 69.16C69.6 71.21 69.91 73.99 68.96 76.29C68.01 78.59 65.83 80.35 63.37 80.79" stroke="#404955" stroke-width="1.5" stroke-linecap="round" stroke-linejoin="round"/>
<path d="M57.7402 63.44C58.4302 61.93 59.6402 60.66 61.1202 59.91C62.6002 59.16 64.3402 58.92 65.9702 59.26" stroke="#404955" stroke-width="1.5" stroke-linecap="round" stroke-linejoin="round"/>
<path d="M58.4102 58.78C59.2802 57.39 61.1702 56.76 62.7002 57.33" stroke="#404955" stroke-width="1.5" stroke-linecap="round" stroke-linejoin="round"/>
<path d="M14.4202 52.15C9.9902 51.85 5.4802 54.03 2.9702 57.69C0.460204 61.35 0.0402039 66.35 1.9202 70.37C2.6502 71.95 3.9102 73.49 5.6402 73.7" stroke="#404955" stroke-width="1.5" stroke-linecap="round" stroke-linejoin="round"/>
<path d="M58.54 50.53C61.62 50.63 64.72 51.47 67.22 53.27C69.72 55.07 71.55 57.89 71.81 60.96C72.07 64.03 70.62 67.27 67.97 68.83" stroke="#404955" stroke-width="1.5" stroke-linecap="round" stroke-linejoin="round"/>
<path d="M47.23 103.93C48.06 101.92 50.18 100.51 52.35 100.53C52.35 100.61 52.35 100.68 52.35 100.76" stroke="#404955" stroke-width="1.5" stroke-linecap="round" stroke-linejoin="round"/>
<path d="M53.6704 110.44C56.1104 105.22 59.6104 100.49 63.8904 96.64C64.2804 96.29 64.6904 95.94 65.2004 95.8C65.7104 95.66 66.3204 95.81 66.5704 96.27C66.7404 96.58 66.7004 96.97 66.6404 97.32C66.4204 98.48 65.9104 99.58 65.1604 100.5C65.9104 99.44 67.1404 98.74 68.4404 98.65" stroke="#404955" stroke-width="1.5" stroke-linecap="round" stroke-linejoin="round"/>
<path d="M8.82031 69.59C10.0703 67.92 12.2803 67.01 14.3403 67.31" stroke="#404955" stroke-width="1.5" stroke-linecap="round" stroke-linejoin="round"/>
<path d="M58.48 65.2601C59.35 64.7601 60.4 64.58 61.39 64.75C62.38 64.92 63.3 65.4601 63.95 66.2301" stroke="#404955" stroke-width="1.5" stroke-linecap="round" stroke-linejoin="round"/>
<path d="M59.7603 60.74C62.3803 60.18 65.2803 61.26 66.8903 63.39" stroke="#404955" stroke-width="1.5" stroke-linecap="round" stroke-linejoin="round"/>
<path d="M4.29004 69.85C5.02004 67.88 6.44004 66.16 8.25004 65.09C10.06 64.02 12.24 63.58 14.32 63.88" stroke="#404955" stroke-width="1.5" stroke-linecap="round" stroke-linejoin="round"/>
<path d="M26.4302 17.7L29.9802 15.77C30.9302 15.25 31.9202 14.71 32.5502 13.83C33.1802 12.95 33.3402 11.63 32.6202 10.83" stroke="#404955" stroke-width="1.5" stroke-linecap="round" stroke-linejoin="round"/>
<path d="M33.6001 10.22C34.9001 11.34 35.4601 13.24 34.9801 14.89C36.3401 14.08 36.9601 12.22 36.3601 10.76C37.9901 10.94 39.2601 12.69 38.9301 14.29" stroke="#404955" stroke-width="1.5" stroke-linecap="round" stroke-linejoin="round"/>
<path d="M41.27 11.23C42.21 12.18 42.44 13.77 41.81 14.95" stroke="#404955" stroke-width="1.5" stroke-linecap="round" stroke-linejoin="round"/>
<path d="M26.3503 17.97C22.4003 17.12 18.6103 15.53 15.2403 13.3C13.8703 12.4 12.3603 11.34 10.7603 11.67C8.96027 12.04 7.95027 14 7.70027 15.82C7.12027 19.99 9.41027 24.41 13.1503 26.33" stroke="#404955" stroke-width="1.5" stroke-linecap="round" stroke-linejoin="round"/>
<path d="M47.8901 15.51L55.5001 11.19C56.7401 10.49 58.0801 9.76003 59.4901 9.89003C61.5001 10.07 62.9801 11.93 63.6501 13.84C65.0701 17.88 63.7801 22.74 60.5301 25.53" stroke="#404955" stroke-width="1.5" stroke-linecap="round" stroke-linejoin="round"/>
<path d="M60.9804 14.25C59.5204 16.44 57.2404 18.05 54.6904 18.71C55.7604 18.35 56.8304 17.98 57.9004 17.62C58.3304 17.47 58.8804 17.37 59.1504 17.72C59.4804 18.15 59.0404 18.73 58.6304 19.09C57.8704 19.76 57.1104 20.43 56.3504 21.1" stroke="#404955" stroke-width="1.5" stroke-linecap="round" stroke-linejoin="round"/>
<path d="M59.3404 20.48L57.1704 23.29" stroke="#404955" stroke-width="1.5" stroke-linecap="round" stroke-linejoin="round"/>
<path d="M10.73 16.1C12.46 17.98 15.1 18.98 17.64 18.74" stroke="#404955" stroke-width="1.5" stroke-linecap="round" stroke-linejoin="round"/>
<path d="M11.1904 19.58C12.6204 20.21 14.1404 20.65 15.6904 20.86C15.3304 21.11 14.8404 21.08 14.4104 20.99C13.9804 20.9 13.5504 20.75 13.1104 20.8C12.6704 20.85 12.2204 21.17 12.2204 21.62C12.2204 22.09 12.6804 22.41 13.1104 22.6C14.3704 23.18 15.7504 23.49 17.1404 23.5" stroke="#404955" stroke-width="1.5" stroke-linecap="round" stroke-linejoin="round"/>
</g>
<defs>
<clipPath id="clip0_360_9121">
<rect width="73.66" height="113.25" fill="white"/>
</clipPath>
</defs>
</svg>
