<svg width="75" height="112" viewBox="0 0 75 112" fill="none" xmlns="http://www.w3.org/2000/svg">
<g clip-path="url(#clip0_360_9052)">
<path d="M66.9597 87.46L60.2997 105.74L36.6997 85.39L48.5797 68.14C48.5797 68.14 60.3297 56.54 63.5097 57.48C66.6897 58.42 69.1797 63.35 69.1797 63.35L70.0197 73.64L66.9697 87.45L66.9597 87.46Z" fill="#917663"/>
<path d="M62.3798 59.64C59.3398 61.36 56.3198 63.14 53.7998 65.59C51.2798 68.04 49.3798 70.74 47.4098 73.5C47.0398 74.02 47.8998 74.52 48.2698 74C50.1898 71.31 52.1298 68.61 54.5098 66.29C56.8898 63.97 59.9198 62.18 62.8898 60.5C63.4498 60.18 62.9498 59.32 62.3898 59.64H62.3798Z" fill="#634E40"/>
<path d="M57.6497 65.41C54.8297 68.84 51.9797 72.26 49.1097 75.65C48.6997 76.14 49.3997 76.85 49.8197 76.36C52.6897 72.96 55.5397 69.55 58.3597 66.12C58.7697 65.63 58.0597 64.92 57.6497 65.41Z" fill="#634E40"/>
<path d="M64.86 62.47C62.14 68.49 58.74 74.17 54.72 79.41C54.33 79.92 55.2 80.42 55.58 79.91C59.6 74.67 63.01 68.99 65.72 62.97C65.98 62.39 65.12 61.88 64.86 62.47Z" fill="#634E40"/>
<path d="M64.4698 69.9C62.6098 73.54 60.3798 76.98 57.8098 80.15C57.4098 80.65 58.1098 81.36 58.5198 80.86C61.1498 77.62 63.4398 74.13 65.3398 70.41C65.6298 69.84 64.7698 69.33 64.4798 69.91L64.4698 69.9Z" fill="#634E40"/>
<path d="M66.7498 68.69C64.3598 74.11 61.0498 79.08 56.9698 83.37C56.5298 83.84 57.2298 84.54 57.6798 84.08C61.8198 79.73 65.1898 74.69 67.6198 69.2C67.8798 68.62 67.0198 68.11 66.7598 68.7L66.7498 68.69Z" fill="#634E40"/>
<path d="M65.91 76.33C64.65 79.4 62.6599 82.13 60.1499 84.3C59.6599 84.72 60.3699 85.43 60.8599 85.01C63.4999 82.72 65.55 79.83 66.87 76.6C67.11 76 66.15 75.75 65.91 76.33Z" fill="#634E40"/>
<path d="M14.1097 68.3L14.1297 68.38L13.4897 69.48C14.0997 68.7 15.2797 68.24 16.1397 67.77C17.2397 67.17 18.3697 66.61 19.4997 66.07C20.5097 65.59 21.5297 65.03 22.5997 64.67C23.5897 64.33 24.6297 64.38 25.6597 64.26C30.2797 63.71 35.1897 61.25 39.8097 62.94L40.4697 58.03C39.3797 58.03 38.2297 58.11 37.2497 58.62C36.6797 58.92 36.1897 59.32 35.7997 59.83C35.5897 60.1 35.4297 60.6 35.2097 60.82C34.5697 61.46 33.1297 61.74 32.3097 62.06C31.0397 62.54 29.7697 62.99 28.4797 63.42C23.8497 64.97 18.6197 66.91 13.6797 65.83C10.5497 65.14 9.20966 69.92 12.3497 70.65C15.4897 71.38 18.5397 70.27 21.5397 69.14C24.5397 68.01 27.4497 66.9 30.4097 65.79C33.1597 64.76 36.0397 63.66 38.9897 63.38C40.4797 63.24 41.9197 63.41 43.4097 63.51C44.8997 63.61 46.2897 63.3 47.6897 62.67L46.4297 63.01L46.7097 62.99L45.4497 62.65L45.6697 62.81L44.7697 61.91C45.7797 63.36 47.0697 64.51 48.8797 64.76L47.1297 61.68C47.5097 60.73 47.7197 61.12 47.1797 61.19C46.8097 61.24 46.3097 61.49 45.9697 61.63C45.1697 61.94 44.3797 62.28 43.5997 62.65C42.1097 63.36 40.7097 64.22 39.3797 65.2C38.2897 66 37.7497 67.37 38.4797 68.62C39.1097 69.69 40.7997 70.32 41.8997 69.52C43.5097 68.34 45.2397 67.29 47.0897 66.54C49.1897 65.68 51.0097 65.33 51.9397 63.02C52.3997 61.87 51.4297 60.12 50.1897 59.94C49.6897 59.87 49.4897 59.81 49.1497 59.5C48.3297 58.75 47.9397 58.02 46.6897 57.99C45.9397 57.97 45.3597 58.37 44.6697 58.51C43.9797 58.65 43.2397 58.5 42.5797 58.44C39.1797 58.12 35.8597 58.68 32.6297 59.71C29.3997 60.74 26.1597 62.07 22.9397 63.28C21.2897 63.9 19.6497 64.55 17.9897 65.14C16.6197 65.63 15.1397 66.16 13.6697 65.82L12.3397 70.64C17.8097 71.84 23.2297 70.35 28.4297 68.68C30.9297 67.88 33.4097 67 35.8397 65.99C37.0297 65.5 38.1397 65.03 38.9897 64.03C39.1897 63.79 39.4397 63.51 39.5497 63.22C39.6897 62.86 39.8697 62.96 39.4597 63.08C39.7497 62.99 40.0997 63.02 40.4397 63.02C43.3897 63.04 43.6597 59.04 41.0997 58.11C35.3297 56 29.4697 58.95 23.6997 59.41C20.7497 59.65 18.0797 61.17 15.4697 62.47C13.1097 63.65 9.05966 65.14 9.07966 68.29C9.09966 71.44 14.1097 71.51 14.0797 68.29L14.1097 68.3Z" fill="#A0BCEF"/>
<path d="M50.9098 61.13L49.7998 62.27L50.5798 65.45L52.7298 63.53L50.9098 61.13Z" fill="#FFF5E3"/>
<mask id="mask0_360_9052" style="mask-type:luminance" maskUnits="userSpaceOnUse" x="4" y="12" width="71" height="49">
<path d="M25.88 20.25L19.71 16.19L10.78 13.88L6.85004 15.11L4.79004 18.57L6.82004 25.94L9.12004 31.06L13.14 33.76L12.47 37.42L15.33 36.18L14.72 38.98L12.02 47.55L13.6 53.73L19.61 59.16L28.42 59.97L34.65 58.38L41.73 60.13L44.84 59.47L47.78 60.3L49.1 59.71L55.8 58.35L62.41 54.84L65.67 54.62L71.58 51.63L74.09 45.29L72.23 38.81L68.75 34.95L64.68 34.28L60.3 34.5L57 26.77L61.6 22.8L62.61 15.95L59.5 12.17L54.74 12.7L45.43 17.56C45.43 17.56 43.01 21.68 43.08 21.77C43.15 21.86 40.83 21.32 40.83 21.32L38.54 18.29L36.12 19.35L33.89 17.94L30.3 22.87L28.53 20.38L26.38 17.77L25.9 20.24L25.88 20.25Z" fill="white"/>
</mask>
<g mask="url(#mask0_360_9052)">
<path d="M25.88 20.25L19.71 16.19L10.78 13.88L6.85004 15.11L4.79004 18.57L6.82004 25.94L9.12004 31.06L13.14 33.76L12.47 37.42L15.33 36.18L14.72 38.98L12.02 47.55L13.6 53.73L19.61 59.16L28.42 59.97L34.65 58.38L41.73 60.13L44.84 59.47L47.78 60.3L49.1 59.71L55.8 58.35L62.41 54.84L65.67 54.62L71.58 51.63L74.09 45.29L72.23 38.81L68.75 34.95L64.68 34.28L60.3 34.5L57 26.77L61.6 22.8L62.61 15.95L59.5 12.17L54.74 12.7L45.43 17.56C45.43 17.56 43.01 21.68 43.08 21.77C43.15 21.86 40.83 21.32 40.83 21.32L38.54 18.29L36.12 19.35L33.89 17.94L30.3 22.87L28.53 20.38L26.38 17.77L25.9 20.24L25.88 20.25Z" fill="#FFFBF5"/>
<path d="M25.57 4.11999C25.57 4.11999 32.82 4.87999 34.91 11.68C37 18.48 34.76 11.68 34.76 11.68L36.82 11.58L39.44 3.67999C39.44 3.67999 36.89 6.75998 36.7 7.11999C36.51 7.47999 35.1 2.01999 35.1 2.01999L32.5 0.609985L25 1.13999L24.54 3.02999L25.57 4.13999V4.11999Z" fill="#FFF5E3"/>
<path d="M57.55 42.73C66.8284 42.73 74.35 35.4277 74.35 26.42C74.35 17.4122 66.8284 10.11 57.55 10.11C48.2716 10.11 40.75 17.4122 40.75 26.42C40.75 35.4277 48.2716 42.73 57.55 42.73Z" fill="#EFC7D8"/>
</g>
<path d="M25.98 3.45998C26.94 3.33998 27.74 3.60998 28.49 4.20998C29.24 4.80998 29.96 5.53998 30.61 6.26998C31.9 7.70998 32.96 9.33998 33.81 11.09C34.27 12.04 35.63 11.5 35.67 10.59C35.72 9.49998 35.75 8.40998 35.53 7.32998C35.33 6.32998 34.86 5.39998 34.27 4.57998C33.14 2.99998 31.69 1.43998 29.63 1.29998C29.09 1.25998 28.63 1.78998 28.63 2.29998C28.63 2.86998 29.09 3.25998 29.63 3.29998C30.96 3.38998 32.03 4.81998 32.71 5.82998C33.15 6.47998 33.47 7.15998 33.62 7.92998C33.78 8.79998 33.71 9.70998 33.67 10.58L35.53 10.08C34.57 8.09998 33.31 6.25998 31.82 4.63998C30.33 3.01998 28.42 1.14998 25.98 1.45998C25.44 1.52998 24.98 1.86998 24.98 2.45998C24.98 2.94998 25.44 3.52998 25.98 3.45998Z" fill="#FFF5E3"/>
<path d="M31.3799 2.03C32.5699 4.52 33.7999 7.12 33.7399 9.94C33.7099 11.23 35.7099 11.23 35.7399 9.94C35.8099 6.76 34.4499 3.83 33.1099 1.02C32.8799 0.530003 32.1799 0.400003 31.7399 0.660003C31.2399 0.950003 31.1499 1.54 31.3799 2.03Z" fill="#FFF5E3"/>
<path d="M34.3199 7.28999C34.0299 8.11999 34.0099 9.00999 34.1599 9.86999C34.1999 10.1 34.4199 10.35 34.6199 10.47C34.8299 10.6 35.1499 10.65 35.3899 10.57C35.6299 10.49 35.8699 10.34 35.9899 10.11L36.0899 9.86999C36.1399 9.68999 36.1399 9.51999 36.0899 9.33999C36.0799 9.27999 36.0699 9.21999 36.0599 9.14999L36.0999 9.41999C36.0499 9.05999 36.0499 8.68999 36.0999 8.32999L36.0599 8.59999C36.0999 8.33999 36.1599 8.07999 36.2399 7.82999C36.3199 7.58999 36.2599 7.26999 36.1399 7.05999C36.0199 6.84999 35.7799 6.64999 35.5399 6.59999C35.2799 6.53999 34.9999 6.54999 34.7699 6.69999C34.5399 6.84999 34.3999 7.03999 34.3099 7.29999L34.3199 7.28999Z" fill="#FFF5E3"/>
<path d="M34.24 3.51001C35.53 3.51001 35.53 1.51001 34.24 1.51001C32.95 1.51001 32.95 3.51001 34.24 3.51001Z" fill="#FFF5E3"/>
<path d="M33.55 3.00002C33.92 3.56002 34.29 4.12002 34.64 4.70002C34.92 5.17002 35.1 5.60002 35.11 6.14002C35.13 6.76002 35.06 7.38002 35.02 7.99002C35 8.32002 34.98 8.64002 34.96 8.97002C34.94 9.21002 34.92 9.35002 34.81 9.53002C34.13 10.63 35.86 11.63 36.54 10.54C36.96 9.86002 36.96 9.05002 37.01 8.28002C37.05 7.57002 37.13 6.85002 37.11 6.14002C37.09 5.35002 36.89 4.62002 36.5 3.92002C36.11 3.22002 35.69 2.63002 35.27 1.99002C34.98 1.54002 34.38 1.35002 33.9 1.63002C33.45 1.89002 33.25 2.54002 33.54 3.00002H33.55Z" fill="#FFF5E3"/>
<path d="M36.5598 3.78998C36.7798 4.75998 36.8298 5.83998 36.5598 6.79998C36.4298 7.26998 36.3598 7.43998 36.0598 7.90998C35.9898 8.01998 35.9198 8.11999 35.8398 8.21999C35.9398 8.08998 35.7798 8.28999 35.7498 8.30999C35.6698 8.39999 35.5798 8.49998 35.4798 8.57998C35.4498 8.59998 35.1698 8.83998 35.3198 8.72998C34.8998 9.03998 34.6498 9.60999 34.9598 10.1C35.2298 10.51 35.8798 10.8 36.3298 10.46C37.3598 9.68998 38.0798 8.64998 38.4598 7.41998C38.8698 6.06998 38.7998 4.61998 38.4998 3.24998C38.3898 2.73998 37.7698 2.38998 37.2698 2.54998C36.7298 2.71998 36.4498 3.22998 36.5698 3.77998L36.5598 3.78998Z" fill="#FFF5E3"/>
<path d="M26.2901 13.37C26.3301 13.44 26.3601 13.52 26.3901 13.6L26.1401 13C26.3401 13.5 26.4601 14.01 26.5301 14.55L26.4401 13.89C26.5401 14.72 26.5501 15.56 26.6301 16.4C26.6801 16.97 26.7501 17.55 26.8701 18.11C27.0001 18.72 27.2501 19.27 27.4901 19.85L27.2401 19.25C27.3301 19.46 27.4001 19.67 27.4501 19.89L27.3601 19.23C27.3701 19.32 27.3801 19.4 27.3601 19.49L27.4501 18.83L27.4301 18.96C27.3301 19.62 27.3001 20.3 27.6801 20.89C27.9801 21.35 28.3601 21.7 28.8801 21.91C30.0801 22.42 31.2801 21.92 32.0001 20.89C32.4201 20.29 32.8401 19.69 33.2901 19.11L32.9001 19.62C33.4401 18.92 34.0901 18.29 34.5701 17.55C35.1901 16.6 35.4101 15.34 35.0501 14.25C34.7401 13.32 34.0601 12.54 33.1901 12.1C32.7801 11.89 32.3201 11.76 31.9401 11.49L32.4501 11.88C32.3401 11.79 32.2501 11.7 32.1601 11.59L32.5501 12.1C32.5501 12.1 32.4901 12.01 32.4601 11.96C31.8301 10.82 30.1601 10.34 29.0401 11.06C27.9201 11.78 27.4601 13.26 28.1401 14.48C28.5201 15.16 29.1501 15.73 29.8601 16.06C30.2501 16.25 30.6701 16.38 31.0201 16.64L30.5101 16.25C30.5901 16.32 30.6701 16.39 30.7401 16.48L30.3501 15.97C30.4001 16.04 30.4401 16.11 30.4801 16.18L30.2301 15.58C30.2601 15.65 30.2801 15.73 30.3001 15.8L30.2101 15.14C30.2301 15.26 30.2301 15.37 30.2201 15.49L30.3101 14.83C30.2901 14.99 30.2401 15.14 30.1801 15.29L30.4301 14.69C30.3401 14.89 30.2201 15.06 30.0901 15.24L30.4801 14.73C29.9501 15.39 29.3901 16.02 28.8801 16.7C28.4601 17.25 28.0701 17.81 27.6801 18.38L32.2501 20.31C32.3501 19.67 32.3901 19.1 32.2401 18.46C32.1301 18.03 31.9201 17.62 31.7501 17.22L32.0001 17.82C31.7901 17.32 31.6601 16.8 31.5901 16.26L31.6801 16.92C31.5701 16.07 31.5601 15.21 31.4901 14.35C31.3801 13.1 31.1401 12.02 30.6101 10.88C30.3501 10.34 29.6701 9.88 29.1201 9.73C28.5201 9.57 27.7201 9.64 27.1901 9.98C26.6601 10.32 26.1901 10.84 26.0401 11.47C25.8801 12.16 25.9901 12.76 26.2901 13.4V13.37Z" fill="#A0BCEF"/>
<path d="M34.0999 16.72C34.2399 16.83 34.3699 16.96 34.4799 17.1L34.0899 16.59C34.1999 16.74 34.2999 16.9 34.3699 17.08L34.1199 16.48C34.1899 16.65 34.2399 16.84 34.2699 17.02L34.1799 16.36C34.1899 16.47 34.1999 16.57 34.1999 16.68C34.1899 17.02 34.2599 17.35 34.4199 17.64C34.5199 17.95 34.6899 18.22 34.9399 18.44C35.1699 18.68 35.4299 18.86 35.7399 18.96C36.0399 19.12 36.3599 19.19 36.6999 19.18L37.3599 19.09C37.7799 18.97 38.1499 18.76 38.4599 18.45L38.8499 17.94C39.0799 17.55 39.1899 17.13 39.1899 16.68C39.1899 16.59 39.1899 16.51 39.1799 16.43C39.1499 16.13 39.1199 15.83 39.0499 15.54C38.9699 15.17 38.7999 14.81 38.6399 14.47C38.4799 14.13 38.2199 13.84 37.9999 13.55C37.8899 13.41 37.7699 13.29 37.6299 13.18C37.3999 12.94 37.1399 12.76 36.8299 12.66C36.5299 12.5 36.2099 12.43 35.8699 12.44C35.5299 12.43 35.1999 12.5 34.9099 12.66C34.5999 12.76 34.3299 12.93 34.1099 13.18L33.7199 13.69C33.4899 14.08 33.3799 14.5 33.3799 14.95L33.4699 15.61C33.5899 16.03 33.7999 16.4 34.1099 16.71L34.0999 16.72Z" fill="#A0BCEF"/>
<path d="M42.2499 8.89003C41.4199 9.35003 40.6299 9.96003 39.9699 10.65C39.5999 11.04 39.2699 11.48 38.9499 11.91C38.8299 12.08 38.7099 12.26 38.5999 12.44C38.5499 12.52 38.4999 12.6 38.4599 12.68C38.2999 12.94 38.4899 12.82 39.0099 12.31C39.6599 11.96 39.8199 11.83 39.4899 11.9L40.1499 11.81H40.0499C40.2699 11.84 40.4899 11.87 40.7099 11.9C40.2899 11.81 40.4899 12.04 41.3099 12.59C41.8599 13.41 42.0799 13.62 41.9899 13.2L42.0799 13.86V13.76C42.0499 13.98 42.0199 14.2 41.9899 14.42C42.0699 14.08 41.9299 14.25 41.5499 14.91C41.3799 15.33 41.0799 15.59 40.6599 15.7H39.3299H39.3999C39.0299 15.5 38.6599 15.28 38.2999 15.07L38.3699 15.14L37.7299 14.04C37.7599 14.12 37.7799 14.21 37.7899 14.3L37.6999 13.64C37.7699 14.25 37.6699 14.84 37.6099 15.44C37.5399 16.24 37.6099 17.01 37.7399 17.8C37.8699 18.59 38.1199 19.28 38.6099 19.91C38.7899 20.14 39.0199 20.45 39.2599 20.64C39.0499 20.35 38.9899 20.29 39.0999 20.44C39.1399 20.5 39.1799 20.57 39.2199 20.63C39.2999 20.76 39.3699 20.9 39.4499 21.03C40.4899 22.89 43.4999 22.5 44.0199 20.43C44.5399 18.36 45.0299 16.44 45.5399 14.44C45.8599 13.17 45.1299 11.67 43.7899 11.36C42.4499 11.05 41.0599 11.75 40.7099 13.11C40.1999 15.11 39.6999 17.1 39.1899 19.1L43.7599 18.5C43.4299 17.9 43.0399 17.33 42.5499 16.85C42.3899 16.7 42.3199 16.5 42.6499 17.03C42.4299 16.68 42.7799 17.5 42.7199 17.21C42.6599 16.92 42.5899 16.67 42.5499 16.39L42.6399 17.05C42.4499 15.59 42.9599 14.15 42.5499 12.71C42.0499 10.94 39.9899 10.34 38.4999 11.25C37.3599 11.95 36.8099 13.45 37.2299 14.72C37.7199 16.18 39.2999 17.13 40.8199 16.72C41.3699 16.57 41.8999 16.31 42.2899 15.87C42.5899 15.53 42.7899 15.15 43.0299 14.78C43.1099 14.66 43.1899 14.55 43.2699 14.43C43.5299 14.05 42.8899 14.85 43.2299 14.49C43.4099 14.3 43.5699 14.11 43.7599 13.93C43.8599 13.83 43.9699 13.74 44.0699 13.65C44.4899 13.29 43.7999 13.83 44.0099 13.69C44.2599 13.52 44.5099 13.35 44.7799 13.2C45.9199 12.56 46.3999 10.9 45.6799 9.78003C44.9599 8.66003 43.4799 8.20003 42.2599 8.88003L42.2499 8.89003Z" fill="#A0BCEF"/>
<path d="M44.1099 63.69C44.6399 64.18 45.2199 64.63 45.8199 65.04C46.2599 65.34 46.7199 65.6 47.1899 65.82C47.4799 66 47.7899 66.1 48.1199 66.12C48.4499 66.19 48.7799 66.18 49.1199 66.08C49.4499 66 49.7299 65.85 49.9699 65.63C50.2399 65.45 50.4599 65.22 50.6099 64.93C50.9199 64.35 51.0699 63.65 50.8599 63L50.6099 62.4C50.3899 62.02 50.0899 61.73 49.7099 61.5C49.0399 61.18 48.4099 60.8 47.8199 60.35L48.3299 60.74C48.0899 60.55 47.8599 60.36 47.6399 60.16C47.1599 59.71 46.5399 59.43 45.8699 59.43C45.5299 59.42 45.1999 59.49 44.9099 59.65C44.5999 59.75 44.3299 59.92 44.1099 60.17C43.6699 60.65 43.3499 61.27 43.3799 61.94L43.4699 62.6C43.5899 63.02 43.7999 63.39 44.1099 63.7V63.69Z" fill="#EFC7D8"/>
<path d="M14.6599 71.31L10.7799 77.4L8.6399 87.45L9.0399 94.46L4.3099 90.89L1.9199 91.81C1.9199 91.81 0.479898 95.05 0.739898 95.05C0.999898 95.05 1.8099 100.2 1.8099 100.2L5.1099 103.03L7.6699 102.67L7.5199 104.62C7.5199 104.62 4.0299 104.88 4.1499 104.92C4.2699 104.96 7.1499 106.32 7.1499 106.32L9.5199 104.5L21.2999 108.06L34.3199 110.93L45.4099 110.17L52.9499 108.08L56.1799 106.71L57.8799 108.8L61.3099 109.07L66.1099 102.9L69.4799 93.67L71.4399 80.75L73.6099 78.49L73.8399 74.14L69.9999 71.8L67.8299 78.49L63.8699 84.55L62.0199 84.61V79.22L59.3999 76.89L52.9199 75.77L47.2699 69.59L49.7299 66.1L47.2699 62.35L45.6199 63.84L43.8999 62.76L43.8099 66.09L40.7099 68.96L41.0199 63.27L30.1699 69.21L14.6299 71.29L14.6599 71.31Z" fill="#FFFBF5"/>
<path d="M56.3998 88.48C59.9068 88.48 62.7498 85.7221 62.7498 82.32C62.7498 78.918 59.9068 76.16 56.3998 76.16C52.8928 76.16 50.0498 78.918 50.0498 82.32C50.0498 85.7221 52.8928 88.48 56.3998 88.48Z" fill="#EFC7D8"/>
<path d="M40.9601 40.37C41.7222 40.37 42.3401 39.7521 42.3401 38.99C42.3401 38.2278 41.7222 37.61 40.9601 37.61C40.1979 37.61 39.5801 38.2278 39.5801 38.99C39.5801 39.7521 40.1979 40.37 40.9601 40.37Z" fill="#404955"/>
<path d="M45.9698 43C47.5935 43 48.9098 42.3821 48.9098 41.62C48.9098 40.8578 47.5935 40.24 45.9698 40.24C44.3461 40.24 43.0298 40.8578 43.0298 41.62C43.0298 42.3821 44.3461 43 45.9698 43Z" fill="#404955"/>
<path d="M50.9698 40.37C51.732 40.37 52.3498 39.7521 52.3498 38.99C52.3498 38.2278 51.732 37.61 50.9698 37.61C50.2077 37.61 49.5898 38.2278 49.5898 38.99C49.5898 39.7521 50.2077 40.37 50.9698 40.37Z" fill="#404955"/>
<path d="M54.9897 24.31C57.7697 27.18 59.5897 30.95 60.1197 34.91" stroke="#404955" stroke-width="1.5" stroke-linecap="round" stroke-linejoin="round"/>
<path d="M57.1997 36.85C59.1097 34.89 61.9597 33.93 64.6797 34.18C68.7797 34.55 72.4497 37.71 73.5297 41.68C74.6097 45.65 73.0697 50.18 69.8597 52.75C66.6497 55.32 61.9497 55.83 58.2197 54.1" stroke="#404955" stroke-width="1.5" stroke-linecap="round" stroke-linejoin="round"/>
<path d="M61.01 94.36C61.91 89.6 63.18 85.48 65.71 81.35C66.19 80.57 66.71 79.79 67.46 79.28C68.21 78.77 69.26 78.58 70.04 79.06C71.09 79.7 71.22 81.16 71.19 82.39C70.96 90.59 68.57 98.73 64.33 105.76C63.68 106.85 62.96 107.93 61.94 108.69C60.92 109.45 59.55 109.84 58.36 109.39C57.17 108.94 56.2 107.64 56.7 106.47C45.86 111.77 32.83 112.38 21.54 108.11" stroke="#404955" stroke-width="1.5" stroke-linecap="round" stroke-linejoin="round"/>
<path d="M48.96 87.06C52.43 86.17 56.36 87.4 58.7 90.12C61.04 92.83 61.68 96.9 60.29 100.2" stroke="#404955" stroke-width="1.5" stroke-linecap="round" stroke-linejoin="round"/>
<path d="M8.75013 93.42C7.98013 81.62 11.4601 73.56 15.4901 70.64" stroke="#404955" stroke-width="1.5" stroke-linecap="round" stroke-linejoin="round"/>
<path d="M62.0601 55.13C58.1701 57.64 53.7001 59.22 49.1001 59.73" stroke="#404955" stroke-width="1.5" stroke-linecap="round" stroke-linejoin="round"/>
<path d="M56.5998 88.4C59.3598 88.45 61.9998 86.33 62.5498 83.62C63.0998 80.91 61.4998 77.93 58.9398 76.9C57.1498 76.18 55.0998 76.35 53.2998 75.67C51.3598 74.94 49.9198 73.31 48.6898 71.64C47.6898 70.28 46.6098 68.78 46.0698 67.18" stroke="#404955" stroke-width="1.5" stroke-linecap="round" stroke-linejoin="round"/>
<path d="M39.46 72.35C39.53 78.47 43.06 84.44 48.39 87.45" stroke="#404955" stroke-width="1.5" stroke-linecap="round" stroke-linejoin="round"/>
<path d="M47.2998 69.6C50.4998 65.05 54.7998 61.28 59.7298 58.7C61.5598 57.74 63.7698 56.95 65.6198 57.85C67.1098 58.57 67.9298 60.18 68.4798 61.74C70.3798 67.12 70.2598 73.2 68.1398 78.5" stroke="#404955" stroke-width="1.5" stroke-linecap="round" stroke-linejoin="round"/>
<path d="M51.2299 42.61C50.3299 43.65 49.9599 45.13 50.2799 46.46C50.5999 47.79 51.5799 48.96 52.8499 49.48" stroke="#404955" stroke-width="1.5" stroke-linecap="round" stroke-linejoin="round"/>
<path d="M50.3999 60.99C50.9599 61.74 51.1199 62.32 51.9399 62.78" stroke="#404955" stroke-width="1.5" stroke-linecap="round" stroke-linejoin="round"/>
<path d="M69.7197 71.77C71.7197 71.94 73.4997 73.55 73.8897 75.52C74.2797 77.49 73.2197 79.65 71.4397 80.56" stroke="#404955" stroke-width="1.5" stroke-linecap="round" stroke-linejoin="round"/>
<path d="M12.1599 96.72C10.0499 95.19 7.93995 93.65 5.81995 92.12C5.18995 91.66 4.51995 91.19 3.74995 91.13C2.58995 91.03 1.51995 91.92 1.07995 93C0.639948 94.08 0.709948 95.29 0.879948 96.44C1.14995 98.2 1.69995 99.98 2.87995 101.31C4.05995 102.64 5.99995 103.41 7.67995 102.83" stroke="#404955" stroke-width="1.5" stroke-linecap="round" stroke-linejoin="round"/>
<path d="M3.23975 104.24C3.92975 104.82 4.86975 105.11 5.76975 105.03C6.66975 104.95 7.52975 104.48 8.09975 103.78" stroke="#404955" stroke-width="1.5" stroke-linecap="round" stroke-linejoin="round"/>
<path d="M6.83008 106.71C7.94008 106.44 8.94008 105.72 9.54008 104.74" stroke="#404955" stroke-width="1.5" stroke-linecap="round" stroke-linejoin="round"/>
<path d="M25 15.76C26.3 17.05 26.73 19.13 26.05 20.83" stroke="#404955" stroke-width="1.5" stroke-linecap="round" stroke-linejoin="round"/>
<path d="M13.3998 33.21C13.8898 34.95 13.1198 36.98 11.5898 37.95C12.9098 37.71 14.1298 37 14.9998 35.98" stroke="#404955" stroke-width="1.5" stroke-linecap="round" stroke-linejoin="round"/>
<path d="M14.8898 39.02C11.5598 43.22 11.2498 49.57 14.1498 54.08C17.0498 58.59 22.9698 60.92 28.1798 59.62" stroke="#404955" stroke-width="1.5" stroke-linecap="round" stroke-linejoin="round"/>
<path d="M32.9399 42.09C36.2099 41.18 39.9299 42.19 42.2999 44.61C44.6699 47.04 45.5799 50.79 44.5899 54.03" stroke="#404955" stroke-width="1.5" stroke-linecap="round" stroke-linejoin="round"/>
<path d="M43.1499 45.65C44.1699 46.7 45.6299 47.3 47.0899 47.28C48.5499 47.26 48.8599 46.81 49.8399 45.73" stroke="#404955" stroke-width="1.5" stroke-linecap="round" stroke-linejoin="round"/>
<path d="M34.2099 13.16C33.1899 11.5 31.3399 10.24 29.4999 9.87001C28.6199 9.69001 27.5599 9.74001 26.9899 10.43C26.4899 11.04 26.5199 11.91 26.5999 12.7C26.8999 15.43 27.4899 18.13 28.3699 20.74C28.6299 21.52 29.0399 22.39 29.8399 22.57C30.6099 22.74 31.3399 22.16 31.8699 21.58C33.3599 19.94 35.5099 16.8 34.8099 14.48C34.6499 13.95 34.4199 13.43 34.0399 13.04C34.5099 12.2 35.6999 12.1 36.4999 12.5C37.2999 12.9 37.8299 13.71 38.1599 14.54C38.6099 15.68 38.7299 17.04 38.0999 18.1C37.4699 19.16 35.9399 19.7 34.9399 18.97" stroke="#404955" stroke-width="1.5" stroke-linecap="round" stroke-linejoin="round"/>
<path d="M37.6401 11.96C39.3001 9.65002 42.2201 8.32002 45.0501 8.58002C45.9101 11.92 45.9101 15.48 45.0401 18.81C44.7601 19.9 44.2701 21.09 43.2301 21.52C42.3501 21.88 41.3101 21.56 40.5701 20.95C39.8301 20.34 39.3401 19.51 38.8601 18.69" stroke="#404955" stroke-width="1.5" stroke-linecap="round" stroke-linejoin="round"/>
<path d="M34.54 11.68C33.53 8.12997 30.64 5.16997 27.11 4.08997C26.25 3.82997 25.24 3.68997 24.54 4.24997" stroke="#404955" stroke-width="1.5" stroke-linecap="round" stroke-linejoin="round"/>
<path d="M24.35 2.91C24.07 2.85 23.95 2.49 24.06 2.23C24.17 1.97 24.42 1.8 24.67 1.66C26.54 0.68 28.92 1.15 30.67 2.33C32.42 3.51 33.66 5.31 34.77 7.11" stroke="#404955" stroke-width="1.5" stroke-linecap="round" stroke-linejoin="round"/>
<path d="M32.5 0.75C34.94 1.91 36.58 4.58 36.51 7.27" stroke="#404955" stroke-width="1.5" stroke-linecap="round" stroke-linejoin="round"/>
<path d="M39.2101 3.66998C39.7001 6.64998 38.3501 9.84998 35.8701 11.57" stroke="#404955" stroke-width="1.5" stroke-linecap="round" stroke-linejoin="round"/>
<path d="M42.9901 60.88C43.4401 61.71 43.3901 62.83 44.0901 63.47C44.7301 64.05 45.8401 63.94 46.4101 63.3C46.9801 62.66 47.0101 61.62 46.5401 60.89C46.0701 60.16 45.1901 59.75 44.3301 59.76C43.4701 59.77 42.6301 60.16 41.9901 60.74C38.3901 58.3 33.2601 57.75 29.1201 59.09" fill="#9EB7DF"/>
<path d="M42.9901 60.88C43.4401 61.71 43.3901 62.83 44.0901 63.47C44.7301 64.05 45.8401 63.94 46.4101 63.3C46.9801 62.66 47.0101 61.62 46.5401 60.89C46.0701 60.16 45.1901 59.75 44.3301 59.76C43.4701 59.77 42.6301 60.16 41.9901 60.74C38.3901 58.3 33.2601 57.75 29.1201 59.09" stroke="#404955" stroke-width="1.5" stroke-linecap="round" stroke-linejoin="round"/>
<path d="M22.1501 59.49C16.3501 60.72 11.1601 64.57 8.31006 69.77C19.9101 72.86 32.9301 70.03 42.1901 62.38" stroke="#404955" stroke-width="1.5" stroke-linecap="round" stroke-linejoin="round"/>
<path d="M46.8301 62.36C47.5101 62.36 48.1901 62.38 48.8401 62.19C49.4901 62 50.1101 61.6 50.3901 60.98C50.6701 60.36 50.8401 59.84 50.2601 59.49" stroke="#404955" stroke-width="1.5" stroke-linecap="round" stroke-linejoin="round"/>
<path d="M40.55 69.37C42 68.47 43.11 67.04 43.64 65.41C43.99 64.32 44.09 59.5 42.08 61.68C40.59 63.3 40.45 67.32 40.55 69.37Z" stroke="#404955" stroke-width="1.5" stroke-linecap="round" stroke-linejoin="round"/>
<path d="M50.0797 66.11C50.3197 64.89 50.1197 63.58 49.5097 62.49C49.0997 61.76 46.5797 59.3 46.7397 61.46C46.8597 63.06 48.9297 65.14 50.0697 66.11H50.0797Z" fill="#A0BCEF" stroke="#404955" stroke-width="1.5" stroke-linecap="round" stroke-linejoin="round"/>
<path d="M26.7398 21.48C22.9498 17.25 17.5398 14.51 11.8898 13.94C10.0498 13.76 7.9998 13.87 6.6598 15.14C4.8598 16.85 5.1598 19.76 5.6898 22.18C6.1898 24.47 6.7898 26.76 7.9098 28.82C9.0298 30.88 10.7398 32.69 12.9198 33.53C15.0998 34.37 17.7898 34.08 19.4898 32.47" stroke="#404955" stroke-width="1.5" stroke-linecap="round" stroke-linejoin="round"/>
<path d="M10.1802 21.06C12.6602 22.56 16.0002 22.48 18.4202 20.87C18.6102 22.17 17.4602 23.5 16.1502 23.5C18.9402 24.22 21.9502 24.08 24.6602 23.09" stroke="#404955" stroke-width="1.5" stroke-linecap="round" stroke-linejoin="round"/>
<path d="M13.61 22.58C13.42 24.26 13.85 26.01 14.8 27.42C15.75 28.83 17.21 29.87 18.85 30.32" stroke="#404955" stroke-width="1.5" stroke-linecap="round" stroke-linejoin="round"/>
<path d="M45.0298 17.85C47.9198 15.61 51.2198 13.91 54.7198 12.84C56.0698 12.43 57.5198 12.11 58.8898 12.45C60.7898 12.92 62.2198 14.67 62.6198 16.58C63.0198 18.49 62.4898 20.53 61.4798 22.2C60.4698 23.87 58.9998 25.23 57.4398 26.41" stroke="#404955" stroke-width="1.5" stroke-linecap="round" stroke-linejoin="round"/>
</g>
<defs>
<clipPath id="clip0_360_9052">
<rect width="74.71" height="111.68" fill="white"/>
</clipPath>
</defs>
</svg>
