<svg width="81" height="116" viewBox="0 0 81 116" fill="none" xmlns="http://www.w3.org/2000/svg">
<g clip-path="url(#clip0_360_9014)">
<mask id="mask0_360_9014" style="mask-type:luminance" maskUnits="userSpaceOnUse" x="0" y="17" width="68" height="98">
<path d="M20.6502 27.75L10.2602 19.42L7.08023 19.18L4.53023 22.34L4.11023 28.14L7.07023 34.78L9.02024 36.6L7.97023 38.55L6.49023 47.63L2.80023 49.79L0.740234 55.85L3.06023 61.13L6.60023 64.73L11.8502 65.45L16.0602 65.12L14.6502 74.32L10.9002 85L9.09023 97.49L9.68023 102.67L13.3902 106.3L4.51023 108.98L3.53023 110.54L5.18023 112.33L31.0002 112.17L31.5502 111.24L27.1202 107.03L40.6902 107.7L39.2502 111.03L40.8302 114.26L53.5402 114L66.1102 112.7L67.0102 110.2L63.1102 108.19L56.1002 106.32L56.6902 105.06L58.7602 101.68L59.7702 96.73L58.5202 90.41L51.8402 68.92L49.5402 63.65L53.8702 63L60.0702 56.57L62.4602 49.81L60.1902 36.56L63.3802 34.81L65.6802 30.81L64.4502 23.19C64.4502 23.19 60.7102 21.13 60.5802 21.13C60.4502 21.13 48.9202 25.18 48.9202 25.18L46.6002 23.84L44.4002 23.17L45.2402 21.11L43.5602 20.15L40.8202 22.69L37.9602 20.5L34.9602 17.28L33.3702 17.45L34.6902 21.5L29.3302 22.32L24.9502 23.27L20.6402 26.96L20.6602 27.79L20.6502 27.75Z" fill="white"/>
</mask>
<g mask="url(#mask0_360_9014)">
<path d="M20.6502 27.75L10.2602 19.42L7.08023 19.18L4.53023 22.34L4.11023 28.14L7.07023 34.78L9.02024 36.6L7.97023 38.55L6.49023 47.63L2.80023 49.79L0.740234 55.85L3.06023 61.13L6.60023 64.73L11.8502 65.45L16.0602 65.12L14.6502 74.32L10.9002 85L9.09023 97.49L9.68023 102.67L13.3902 106.3L4.51023 108.98L3.53023 110.54L5.18023 112.33L31.0002 112.17L31.5502 111.24L27.1202 107.03L40.6902 107.7L39.2502 111.03L40.8302 114.26L53.5402 114L66.1102 112.7L67.0102 110.2L63.1102 108.19L56.1002 106.32L56.6902 105.06L58.7602 101.68L59.7702 96.73L58.5202 90.41L51.8402 68.92L49.5402 63.65L53.8702 63L60.0702 56.57L62.4602 49.81L60.1902 36.56L63.3802 34.81L65.6802 30.81L64.4502 23.19C64.4502 23.19 60.7102 21.13 60.5802 21.13C60.4502 21.13 48.9202 25.18 48.9202 25.18L46.6002 23.84L44.4002 23.17L45.2402 21.11L43.5602 20.15L40.8202 22.69L37.9602 20.5L34.9602 17.28L33.3702 17.45L34.6902 21.5L29.3302 22.32L24.9502 23.27L20.6402 26.96L20.6602 27.79L20.6502 27.75Z" fill="#FFFBF5"/>
<path d="M57.3807 52.1288C72.1105 50.1503 82.4915 36.9341 80.5675 22.6094C78.6434 8.28475 65.1429 -1.72383 50.4132 0.254619C35.6835 2.23307 25.3024 15.4493 27.2265 29.774C29.1505 44.0986 42.651 54.1072 57.3807 52.1288Z" fill="#EFC7D8"/>
<path d="M25.9003 92.91C30.2578 92.91 33.7903 89.476 33.7903 85.24C33.7903 81.004 30.2578 77.57 25.9003 77.57C21.5427 77.57 18.0103 81.004 18.0103 85.24C18.0103 89.476 21.5427 92.91 25.9003 92.91Z" fill="#EFC7D8"/>
</g>
<path d="M31.1899 47.4C31.8803 47.4 32.4399 46.8404 32.4399 46.15C32.4399 45.4597 31.8803 44.9 31.1899 44.9C30.4996 44.9 29.9399 45.4597 29.9399 46.15C29.9399 46.8404 30.4996 47.4 31.1899 47.4Z" fill="#404955"/>
<path d="M35.7101 49.78C37.1736 49.78 38.3601 49.2203 38.3601 48.53C38.3601 47.8396 37.1736 47.28 35.7101 47.28C34.2465 47.28 33.0601 47.8396 33.0601 48.53C33.0601 49.2203 34.2465 49.78 35.7101 49.78Z" fill="#404955"/>
<path d="M40.23 47.4C40.9203 47.4 41.48 46.8404 41.48 46.15C41.48 45.4597 40.9203 44.9 40.23 44.9C39.5396 44.9 38.98 45.4597 38.98 46.15C38.98 46.8404 39.5396 47.4 40.23 47.4Z" fill="#404955"/>
<path d="M8.67038 38.06C6.50038 40.66 5.66038 44.33 6.50038 47.62" stroke="#404955" stroke-width="1.5" stroke-linecap="round" stroke-linejoin="round"/>
<path d="M48.1104 63.57C53.0204 64.09 58.0604 60.86 60.5704 55.59C63.0704 50.32 62.9204 43.27 60.1804 38.19" stroke="#404955" stroke-width="1.5" stroke-linecap="round" stroke-linejoin="round"/>
<path d="M11.1302 48.59C9.88018 47.6 8.17018 47.28 6.61018 47.57C3.37018 48.17 0.940182 51.33 0.760182 54.61C0.580182 57.89 2.42018 61.11 5.11018 63.01C7.80018 64.91 11.2102 65.61 14.4902 65.4C17.7702 65.19 20.9502 64.13 23.9602 62.79" stroke="#404955" stroke-width="1.5" stroke-linecap="round" stroke-linejoin="round"/>
<path d="M31.0903 53.2C33.7303 54.23 36.7403 54.25 39.3903 53.27" stroke="#404955" stroke-width="1.5" stroke-linecap="round" stroke-linejoin="round"/>
<path d="M28.3301 50.65C29.6001 51.29 30.6501 52.38 31.2501 53.67C31.8501 54.96 31.9901 56.47 31.6601 57.85" stroke="#404955" stroke-width="1.5" stroke-linecap="round" stroke-linejoin="round"/>
<path d="M51.4902 69.32C53.5702 75.52 55.6502 81.72 57.7302 87.93C58.7302 90.9 59.7302 93.92 59.7702 97.05C59.8102 100.18 58.7402 103.49 56.2602 105.39" stroke="#404955" stroke-width="1.5" stroke-linecap="round" stroke-linejoin="round"/>
<path d="M45.2103 111.41C44.9703 110 45.7903 108.58 46.9403 107.74C48.0903 106.9 49.5303 106.56 50.9403 106.36C55.7703 105.69 60.8103 106.59 65.1203 108.88C66.2403 109.48 67.4803 110.61 67.0103 111.79C66.6303 112.75 65.4103 112.97 64.3903 113.06C58.2203 113.58 52.0403 114.1 45.8703 114.62C44.6303 114.72 43.3703 114.83 42.1703 114.54C40.9703 114.25 39.8003 113.49 39.3503 112.34C38.9003 111.19 39.1603 108.45 40.3203 108.04" stroke="#404955" stroke-width="1.5" stroke-linecap="round" stroke-linejoin="round"/>
<path d="M26.1899 106.86C31.4699 107.94 36.8999 108.28 42.2799 107.87" stroke="#404955" stroke-width="1.5" stroke-linecap="round" stroke-linejoin="round"/>
<path d="M14.6899 72.34C11.6599 80.22 9.77995 88.54 9.11995 96.95C8.95995 98.97 8.87995 101.07 9.64995 102.95C10.4199 104.83 12.2399 106.42 14.2599 106.28" stroke="#404955" stroke-width="1.5" stroke-linecap="round" stroke-linejoin="round"/>
<path d="M8.43 112.66C7.33 112.68 6.18 112.69 5.18 112.32C4.18 111.95 3.36 111.08 3.55 110.18C3.78 109.09 5.23 108.52 6.5 108.15C10.97 106.86 15.65 105.79 20.34 106.07C25.07 106.35 29.54 108.16 32.11 111.51C28.67 112.65 25.03 112.4 21.34 112.46C17.04 112.53 12.73 112.6 8.43 112.66Z" stroke="#404955" stroke-width="1.5" stroke-linecap="round" stroke-linejoin="round"/>
<path d="M16.0602 65.11C13.3202 73.11 14.6302 81.46 19.4902 88.39C20.9402 90.45 22.8302 92.41 25.2902 92.95C28.0302 93.56 31.0502 92.14 32.4802 89.72C33.9102 87.3 33.7802 84.1 32.3102 81.71C31.3402 80.14 29.9002 78.93 28.6102 77.6C27.3202 76.27 26.1502 74.69 25.9602 72.85" stroke="#404955" stroke-width="1.5" stroke-linecap="round" stroke-linejoin="round"/>
<path d="M46.0503 71.27C45.6703 70 45.2103 68.71 44.3303 67.72C43.4503 66.73 42.0503 66.1 40.7803 66.46C39.1503 66.92 38.3303 68.71 37.8603 70.34C37.1203 72.88 36.7103 75.51 36.6303 78.15C36.5903 79.44 36.6403 80.76 37.0703 81.98C37.5003 83.2 38.3803 84.31 39.5803 84.77C41.4803 85.49 43.6903 84.37 44.8503 82.7C46.0103 81.03 46.3503 78.94 46.6003 76.92" stroke="#404955" stroke-width="1.5" stroke-linecap="round" stroke-linejoin="round"/>
<path d="M49.4103 69.68C50.1203 71.2 50.8003 72.75 51.0603 74.4C51.3203 76.05 51.1103 77.84 50.1503 79.21C49.1903 80.58 47.3903 81.42 45.7803 80.95C45.8003 80.87 45.8303 80.8 45.8503 80.72" stroke="#404955" stroke-width="1.5" stroke-linecap="round" stroke-linejoin="round"/>
<path d="M49.3901 63.64C50.5801 65.21 51.3401 67.1 51.5601 69.06" stroke="#404955" stroke-width="1.5" stroke-linecap="round" stroke-linejoin="round"/>
<path d="M48.4702 25.57C51.1502 24.56 54.3302 23.43 57.0002 22.42C58.5802 21.83 60.3202 21.23 61.9102 21.79C63.1302 22.22 64.0402 23.27 64.6502 24.42C65.9702 26.91 66.0402 30.02 64.8502 32.58C63.6602 35.14 61.2202 37.07 58.4602 37.66" stroke="#404955" stroke-width="1.5" stroke-linecap="round" stroke-linejoin="round"/>
<path d="M20.1 27.09L12.6 20.99C11.07 19.75 9.14998 18.43 7.28998 19.09C5.98998 19.56 5.19998 20.88 4.74998 22.19C2.93998 27.38 5.15998 33.69 9.82998 36.59" stroke="#404955" stroke-width="1.5" stroke-linecap="round" stroke-linejoin="round"/>
<path d="M21.3203 26.63C23.4103 23.8 26.9603 22.11 30.4803 22.27" stroke="#404955" stroke-width="1.5" stroke-linecap="round" stroke-linejoin="round"/>
<path d="M32.8499 22.49C32.7999 20.35 30.8299 18.44 28.6899 18.45" stroke="#404955" stroke-width="1.5" stroke-linecap="round" stroke-linejoin="round"/>
<path d="M34.9 21.59C34.88 19.83 33.63 18.16 31.96 17.63C33.15 17.08 34.6 17.12 35.76 17.74C36.92 18.36 37.76 19.54 37.97 20.83" stroke="#404955" stroke-width="1.5" stroke-linecap="round" stroke-linejoin="round"/>
<path d="M39.59 22.15C38.86 20.87 39.55 19.01 40.94 18.51" stroke="#404955" stroke-width="1.5" stroke-linecap="round" stroke-linejoin="round"/>
<path d="M40.8301 22.96C41.1401 22.1 41.7501 21.35 42.5301 20.88C43.2801 20.43 44.4301 20.33 44.8901 21.07C45.2001 21.55 45.0601 22.22 44.7201 22.68C44.3801 23.14 43.8801 23.45 43.3801 23.74C44.8501 23.12 46.6201 23.27 47.9601 24.14" stroke="#404955" stroke-width="1.5" stroke-linecap="round" stroke-linejoin="round"/>
<path d="M6.14014 23.15C6.47014 25.92 8.61014 28.39 11.3001 29.1" stroke="#404955" stroke-width="1.5" stroke-linecap="round" stroke-linejoin="round"/>
<path d="M7.08008 28.66C8.33008 29.69 9.92008 30.29 11.5401 30.37C10.5601 30.52 9.57008 30.66 8.59008 30.81C9.46008 32.2 11.0901 33.08 12.7301 33.04" stroke="#404955" stroke-width="1.5" stroke-linecap="round" stroke-linejoin="round"/>
<path d="M60.5199 26.19C60.5199 28.45 59.1799 30.66 57.1899 31.74" stroke="#404955" stroke-width="1.5" stroke-linecap="round" stroke-linejoin="round"/>
<path d="M60.5902 30.78C60.1802 32.51 58.8902 34 57.2402 34.65C58.0302 34.11 58.8202 33.58 59.6102 33.04C59.7202 34.58 59.2202 36.16 58.2402 37.36" stroke="#404955" stroke-width="1.5" stroke-linecap="round" stroke-linejoin="round"/>
</g>
<defs>
<clipPath id="clip0_360_9014">
<rect width="80.8" height="115.48" fill="white"/>
</clipPath>
</defs>
</svg>
