<svg width="171" height="161" viewBox="0 0 171 161" fill="none" xmlns="http://www.w3.org/2000/svg">
<g clip-path="url(#clip0_120_13983)">
<path d="M20.0721 123.326L11.1421 120.581L5.60456 121.328L2.14565 126.315L2.0625 133.544L5.83737 140.46L12.672 145.934L22.3171 149.323L61.5624 152.937C61.5624 152.937 62.4105 132.606 62.1944 131.893C61.9782 131.181 20.0721 123.326 20.0721 123.326Z" fill="#FFF5E3"/>
<path d="M113.745 126.645L127.78 79.9527L132.453 76.9638L133.684 69.1267L135.979 69.8565L137.442 76.0602L146.372 66.8155L148.517 59.8994L149.282 54.9642L155.818 53.939L161.106 56.8236L162.419 61.2026L160.574 65.8597L161.871 69.1962L163.949 72.2198L163.002 75.8343L163.949 81.9337L159.875 89.6144L156.4 93.2115C156.4 93.2115 156.815 97.6253 156.682 98.025C156.549 98.4247 153.49 102.508 153.49 102.508L148.517 101.831L147.087 106.974L154.654 105.984L165.28 112.535C165.28 112.535 169.404 121.554 169.454 121.884C169.504 122.214 170.086 141.016 157.115 149.305C144.144 157.594 139.055 158.202 133.318 153.51L129.36 154.31L109.97 152.468L99.128 157.907L91.4785 154.223L95.4197 146.56L113.762 126.645H113.745Z" fill="#FFF5E3"/>
<path d="M24.4281 135.125C24.5279 138.062 25.3427 140.929 27.0223 143.31C28.2196 145.013 30.265 145.864 32.1441 144.717C34.0232 143.57 34.439 141.242 33.4911 139.365C33.2084 138.792 32.8592 138.131 32.6596 137.61C32.5432 137.297 32.4268 136.985 32.327 136.672C32.2273 136.359 32.1275 135.264 32.1109 136.116L31.5953 138.097C30.9468 138.67 30.8138 138.826 31.2129 138.583C31.4291 138.444 31.4457 138.444 31.2628 138.583L26.6564 135.855C26.9558 138.114 27.5877 141.086 27.5544 142.997L28.0699 141.016C28.4191 140.443 27.887 140.929 28.0367 140.912C27.8039 140.964 27.0389 140.947 26.6398 140.981C25.2928 141.12 24.0456 141.52 22.9148 142.319C20.5867 143.953 18.5579 147.341 19.7552 150.295C20.5867 152.329 22.1499 152.885 24.0789 153.111C24.8604 153.197 25.2097 153.336 26.0411 153.788C28.7018 155.231 31.3127 155.057 34.1396 154.275C36.9666 153.493 37.4988 149.931 35.786 147.741C34.0731 145.551 31.5621 143.953 28.9014 143.223V150.765C31.5787 150 34.3226 149.826 37.0498 150.4L35.4035 143.866C34.705 144.509 33.0421 144.856 31.5953 145.117C29.7827 145.447 28.6686 147.654 28.918 149.409C29.1841 151.269 30.6974 152.85 32.5931 152.798C33.4745 152.78 34.3891 152.711 35.2704 152.85C35.5531 152.902 36.1185 153.128 36.6341 153.493L37.532 146.351C36.6673 146.698 36.0687 146.855 35.1707 146.855C30.8637 146.837 30.1985 153.215 34.1729 154.536C35.9522 155.126 37.8314 155.144 39.6606 155.543C41.6395 155.978 43.5685 156.586 45.5973 156.812C47.4764 157.02 50.0872 157.107 51.7834 156.186C54.1781 154.9 54.8432 151.807 53.5628 149.392C53.3798 149.062 53.1637 148.245 53.1138 148.975C53.1138 148.818 53.1969 149.531 53.1969 149.513C53.4796 149.566 54.5273 146.716 54.5772 146.507C55.4086 143.57 53.8621 141.225 51.2347 140.217C49.7214 139.643 48.3744 139.33 46.9775 138.462C45.5141 137.558 44.2004 136.481 42.9033 135.334C40.359 133.092 36.7671 134.604 36.5176 138.097C36.2682 141.589 36.0021 145.152 35.7527 148.679C35.4367 153.041 42.3047 154.049 43.1029 149.722C43.6018 146.976 44.3168 144.3 45.2481 141.694L38.4134 142.632C38.3801 142.354 38.4134 142.458 38.5132 142.945C38.4965 142.667 38.5132 142.771 38.5464 143.258C38.5963 143.796 38.6296 144.352 38.6628 144.891C38.7626 146.16 38.8624 147.446 38.9455 148.714C39.0952 150.643 40.2593 152.311 42.1883 152.555C44.1173 152.798 45.5474 151.599 46.2957 149.757C46.778 148.575 47.2436 147.393 47.7259 146.212L40.8912 147.15C40.8745 146.959 40.8579 146.768 40.8579 146.577C40.8912 146.924 40.9244 147.254 40.9743 147.602C41.0408 148.28 41.124 148.975 41.1905 149.653C41.6062 153.528 45.9465 154.953 48.1582 151.634C48.9232 150.504 49.6715 149.357 50.4364 148.228L43.6018 147.289C43.5685 147.081 43.635 148.036 43.635 148.141C43.6683 147.689 43.4022 149.044 43.4188 148.957L50.2535 148.019L50.1371 147.741C49.289 145.83 46.6449 145.343 45.0153 146.333C43.1361 147.48 42.8202 149.757 43.6683 151.686L43.7847 151.964C45.2148 155.196 49.7546 153.979 50.6194 151.025C51.1848 149.096 51.1848 147.168 50.8023 145.204C50.5196 143.709 49.0562 142.58 47.6926 142.406C46.1294 142.215 44.849 142.945 43.9676 144.266C43.2027 145.395 42.4543 146.542 41.6894 147.672L48.6571 149.653C48.4409 147.619 48.574 144.891 47.3434 143.206C45.2647 140.408 41.8058 140.894 40.5087 144.144C40.0265 145.326 39.5608 146.507 39.0786 147.689L46.4288 148.732C46.1793 145.482 46.4288 141.607 44.8656 138.687C44.1505 137.332 42.5707 136.602 41.1406 136.828C39.5941 137.071 38.5631 138.114 38.0309 139.626C37.0997 142.25 36.3846 144.926 35.8857 147.654L43.2359 148.697C43.4854 145.169 43.7514 141.642 44.0009 138.114L37.6152 140.877C39.328 142.389 41.0741 143.901 43.0031 145.1C43.9676 145.708 44.982 146.194 46.013 146.646C46.462 146.837 46.8944 147.029 47.36 147.168C47.7259 147.289 49.3888 148.089 48.3578 147.22L47.3933 145.499C47.3933 145.499 47.3766 144.335 47.3933 144.335C47.3933 144.335 46.8944 145.239 46.8445 145.36C46.4454 146.125 46.0629 146.959 45.8634 147.811C45.6472 148.766 45.6306 149.844 45.8467 150.799C45.9798 151.338 46.196 151.894 46.462 152.363C47.2935 153.823 46.196 151.755 46.9942 150.66L48.3411 149.253L47.9919 149.409L49.8877 148.871C47.5762 149.183 45.5973 148.975 43.369 148.401C40.991 147.776 38.4799 147.724 36.1518 146.959L35.154 154.64C36.6341 154.64 38.1141 154.414 39.5109 153.858C42.5707 152.641 43.186 148.697 40.4089 146.716C38.0974 145.082 35.2871 144.891 32.5765 144.943L33.5742 152.624C36.2349 152.137 38.6296 151.234 40.6916 149.357C42.7537 147.48 41.7226 143.379 39.0453 142.823C34.9877 141.972 30.9135 142.041 26.9059 143.188C23.3804 144.196 23.3139 149.739 26.9059 150.73C27.9203 151.008 28.1032 151.095 28.918 151.634C29.2672 151.877 30.0156 152.624 30.4978 153.25L32.1441 146.716C31.6619 146.855 30.5976 147.098 30.4313 147.115C30.2317 147.133 29.7661 147.115 30.1819 147.22C29.8825 147.133 29.5666 146.872 29.3005 146.716C28.5023 146.247 27.6376 145.83 26.7396 145.604C26.1908 145.465 25.6088 145.378 25.0434 145.326C24.8272 145.308 23.6465 145.048 24.3616 145.326L26.5899 147.115L26.3904 146.82L26.9059 148.801C26.9391 149.149 26.3737 149.496 26.9059 148.888C26.6398 149.183 27.0555 148.766 27.1054 148.732C26.8227 148.853 26.6398 148.871 27.2052 148.766C26.7728 148.853 27.6874 148.766 27.8038 148.749C29.9823 148.645 31.8614 147.967 33.4412 146.368C35.3203 144.474 34.9711 142.371 34.6385 139.921C34.3725 137.888 34.0898 135.838 33.8237 133.804C33.5576 131.771 30.9468 130.503 29.2173 131.076C26.6232 131.945 24.2618 133.857 24.6276 137.019C24.8937 139.209 25.9912 141.45 26.9724 143.362L33.4412 139.417C32.4268 137.975 31.9279 136.741 31.878 135.177C31.8115 133.075 30.2151 131.267 28.1364 131.267C26.0578 131.267 24.3283 133.057 24.3948 135.177L24.4281 135.125Z" fill="#FFF5E3"/>
<path d="M30.4648 115.141C31.5125 116.792 32.743 118.321 34.2231 119.573C35.9359 121.032 37.682 122.11 39.7108 122.978C41.1076 123.587 42.7373 123.187 43.8182 122.092C44.6663 121.223 44.9989 120.129 45.0155 118.93C45.0488 117.296 44.051 115.784 43.0865 114.603C41.9058 113.143 40.2762 112.222 38.8128 111.127L39.5777 111.735C39.5777 111.735 39.4447 111.614 39.3782 111.527L39.9602 112.326L39.9103 112.205L40.4258 114.186V114.047C39.7939 115.176 39.1786 116.306 38.5633 117.418L38.713 117.348L37.815 117.748C38.0644 117.644 38.3139 117.574 38.58 117.522L37.5822 117.661C37.9647 117.609 38.3305 117.609 38.6964 117.661L37.6986 117.522C38.131 117.592 38.5467 117.713 38.9624 117.87L38.0644 117.47C38.58 117.696 39.0622 118.009 39.5112 118.374L38.7462 117.765C39.7108 118.582 40.4757 119.573 41.2407 120.598L40.6586 119.798L40.7418 119.955L40.2263 117.974V118.095C40.3926 117.435 40.5589 116.775 40.7418 116.114L40.6919 116.219L41.2739 115.419C40.2928 116.549 39.5278 117.852 39.6276 119.451C39.6941 120.494 39.9935 121.467 40.7251 122.214C41.3737 122.892 42.438 123.396 43.3692 123.361C44.3005 123.326 45.3481 122.978 46.0133 122.214C46.6785 121.449 47.0277 120.528 47.1108 119.451C47.1773 118.582 47.2439 117.696 47.3104 116.827C47.3769 115.871 46.8448 114.724 46.2128 114.064C45.5809 113.404 44.5 112.882 43.5688 112.917C41.4236 113.021 39.9768 114.637 39.8272 116.827C39.7606 117.696 39.6941 118.582 39.6276 119.451H47.1108C47.1108 119.347 47.1108 119.225 47.1108 119.121L46.9778 120.163C46.9778 120.059 47.0277 119.937 47.0609 119.833L46.6785 120.772C46.7284 120.667 46.7782 120.58 46.8448 120.476L46.2627 121.275C46.5953 120.893 46.9279 120.58 47.1774 120.111C47.6097 119.26 47.776 118.374 47.6596 117.435C47.4933 116.167 46.745 115.28 45.9967 114.325C45.1652 113.265 44.2672 112.378 43.2196 111.562C42.2717 110.814 41.1076 110.241 39.9269 110.015C39.2119 109.876 38.4635 109.754 37.7319 109.824C36.5844 109.946 35.8028 110.189 34.7718 110.675C33.6577 111.197 32.8594 112.813 32.926 114.047C32.9925 115.28 33.3417 116.323 34.1732 117.192C34.5889 117.626 35.121 117.956 35.6033 118.304C36.1521 118.669 36.6842 119.051 37.2163 119.468L36.4514 118.86C36.9835 119.294 37.4658 119.746 37.8815 120.285L37.2995 119.486C37.5489 119.816 37.7485 120.181 37.9148 120.563L37.5323 119.625C37.5822 119.764 37.6154 119.868 37.6487 119.99L37.5157 118.947C37.5157 118.947 37.5157 119.103 37.5157 119.173L37.6487 118.13L37.6155 118.217L38.58 116.497L38.5134 116.566L39.2784 115.958L39.1952 115.993L42.0721 115.593C41.9225 115.524 41.7728 115.472 41.6231 115.402L42.5211 115.802C41.2739 115.228 40.0932 114.516 39.0123 113.647L39.7773 114.255C38.7462 113.404 37.8316 112.448 37.0168 111.37L37.5988 112.17C37.366 111.857 37.1498 111.527 36.9336 111.197C36.3849 110.345 35.6698 109.685 34.7053 109.407C33.8073 109.146 32.61 109.268 31.8284 109.807C30.2154 110.901 29.3174 113.334 30.4814 115.159L30.4648 115.141Z" fill="#FFF5E3"/>
<path d="M43.0373 123.482C43.1704 124.369 43.2369 125.272 43.2369 126.176C43.2369 126.228 43.2369 126.298 43.187 126.315C43.0373 126.159 43.0207 125.915 43.0207 125.707C43.0207 125.498 43.054 125.272 42.9874 125.064C42.9542 125.203 42.9209 125.359 42.9043 125.498" fill="#FFF3C2"/>
<path d="M42.1221 120.581L45.1486 121.328" stroke="#414A56" stroke-width="1.5" stroke-linecap="round" stroke-linejoin="round"/>
<path d="M15.9305 121.745C13.3696 119.972 9.94391 119.642 7.13355 120.91C4.32318 122.179 2.17799 124.994 1.64585 128.157C1.14697 131.163 2.04495 134.291 3.47508 136.95C6.485 142.563 11.9727 146.629 18.0258 147.776" stroke="#414A56" stroke-width="1.5" stroke-linecap="round" stroke-linejoin="round"/>
<path d="M93.5068 155.787C95.203 157.924 98.3959 157.942 100.907 157.003C103.418 156.065 105.63 154.379 108.191 153.615C110.951 152.798 113.894 153.111 116.755 153.441C121.178 153.945 125.585 154.449 130.008 154.953" stroke="#414A56" stroke-width="1.5" stroke-linecap="round" stroke-linejoin="round"/>
<path d="M128.213 152.468C129.926 152.954 131.372 154.379 131.971 156.134" stroke="#414A56" stroke-width="1.5" stroke-linecap="round" stroke-linejoin="round"/>
<path d="M12.4385 116.445C13.5526 116.167 14.7832 116.549 15.5814 117.418" stroke="#414A56" stroke-width="1.5" stroke-linecap="round" stroke-linejoin="round"/>
<path d="M136.112 76.0601C137.642 74.0443 137.259 70.76 135.313 69.1787" stroke="#414A56" stroke-width="1.5" stroke-linecap="round" stroke-linejoin="round"/>
<path d="M118.318 75.5044L118.484 75.3133C120.546 73.7667 123.207 72.1332 125.452 73.367C127.315 74.3749 127.863 76.8598 128.113 79.032C130.009 96.0617 124.654 113.839 113.745 126.646C115.474 132.189 114.194 138.653 110.486 142.998C108.74 145.048 106.262 146.647 103.568 147.672L102.487 143.762C103.801 139.348 101.855 134.344 98.5125 131.303C95.17 128.262 90.6966 126.906 86.2899 126.42C81.7001 125.916 77.0273 126.333 72.554 127.549L71.8057 124.369C75.5972 123.274 79.0727 121.05 81.7334 118.026C84.4107 115.003 86.2566 111.197 87.0049 107.166L86.7222 106.627C89.5659 104.924 92.1101 102.735 94.1888 100.058C97.7641 95.4535 99.743 89.6147 100.259 83.7238C100.774 77.8156 99.5601 70.3434 97.8473 64.6958L97.6976 64.3135C98.1134 64.1397 98.5125 63.9312 98.8949 63.7227L99.1111 64.1223C103.767 65.4604 107.609 66.9548 111.567 69.8568C113.512 71.2818 115.341 72.8805 117.154 74.4792C117.536 74.8267 117.936 75.1569 118.318 75.5044Z" fill="#FFF3C2"/>
<path d="M83.8127 39.8287H83.3138C82.1165 36.2143 80.8527 32.4782 79.0234 29.1765L79.356 28.9853C81.6176 26.483 85.775 26.2224 88.3193 28.4119C90.3979 30.2018 91.246 33.1385 93.1252 35.1543C96.9167 39.2205 103.868 38.595 107.41 42.8871C109.688 45.6153 109.888 49.7511 108.624 53.1223C107.36 56.4761 104.849 59.1696 102.138 61.4112C101.124 62.2627 100.043 63.0621 98.8956 63.7224C98.5131 63.9309 98.114 64.1395 97.6982 64.3132C97.3158 64.487 96.9333 64.6434 96.5342 64.7651C94.4721 65.4254 92.1274 65.408 90.2316 64.2959C87.7206 62.8362 86.5233 59.8647 85.7916 56.9105C85.6918 56.4935 85.592 56.0591 85.5089 55.642C84.428 50.4462 83.846 45.1462 83.8127 39.8287Z" fill="#FFF5E3"/>
<path d="M72.554 127.549C77.0273 126.333 81.7001 125.915 86.2898 126.419C90.6966 126.906 95.1699 128.261 98.5124 131.302C101.855 134.343 103.801 139.348 102.487 143.762L103.568 147.672C100.508 148.819 97.1488 149.218 94.2387 148.61H93.9394C93.9394 147.237 93.7066 145.882 93.5236 144.526H93.5403C95.2365 145.013 97.1156 143.692 97.6477 141.92C98.1799 140.147 97.5812 138.166 96.467 136.741C96.334 136.568 96.1843 136.394 96.018 136.22C94.9371 135.056 93.5569 134.239 92.1434 133.561C80.7356 128.07 66.002 131.511 57.9035 141.538L57.654 142.076C57.0221 141.746 56.3237 141.503 55.8082 141.155C55.4257 140.895 55.0598 140.599 54.7439 140.269L54.5942 140.443C54.5942 141.364 54.4945 142.302 54.2949 143.206L53.9956 143.136C52.9313 142.042 51.5511 141.277 50.0877 140.964H50.0378C50.0877 140.356 50.0877 139.713 50.0877 139.105C50.0378 134.76 49.7052 130.712 49.6387 126.367L49.6719 126.333C50.1209 126.819 50.6198 127.236 51.2018 127.549C52.2827 128.122 53.663 128.244 54.7106 127.549C54.9268 127.393 55.1264 127.219 55.276 127.028C55.276 127.028 55.2927 127.028 55.2927 127.01C56.2073 126.437 59.5498 124.508 60.2815 123.709C60.5974 123.361 60.8801 122.979 61.0963 122.562L61.2127 122.631C66.3346 123.048 71.5562 121.467 75.6803 118.269C79.7878 115.072 81.617 109.112 81.617 109.112C83.3963 108.434 85.1092 107.6 86.7222 106.609L87.0049 107.148C86.2566 111.18 84.4107 114.985 81.7334 118.009C79.0727 121.032 75.5971 123.257 71.8056 124.352L72.554 127.532V127.549Z" fill="#FFF3C2"/>
<path d="M97.8474 64.6956C99.5602 70.3432 100.774 77.8154 100.259 83.7237C99.7432 89.6146 97.7643 95.4533 94.1889 100.058C92.1103 102.734 89.566 104.924 86.7223 106.627C85.1093 107.617 83.3965 108.451 81.6171 109.129C78.5739 110.293 75.3478 111.041 72.1384 111.353C65.9522 111.979 59.7328 111.232 53.6299 109.876C52.5489 109.651 51.468 109.407 50.3871 109.129C50.1876 108.955 49.988 108.799 49.7718 108.643C49.5224 108.469 49.2563 108.33 48.9736 108.226C51.019 108.173 53.0478 107.861 55.0101 107.27L55.1598 107.513C61.2794 106.523 67.4988 105.497 73.1029 102.752C78.707 100.024 83.7457 95.2796 85.4918 89.0759C87.0882 83.4457 85.8244 77.3984 84.5605 71.6639C83.5628 67.1806 82.5816 62.6799 81.4009 58.2313L85.7911 56.9106C86.5228 59.8648 87.7201 62.8363 90.2311 64.296C92.1269 65.4081 94.4716 65.4255 96.5337 64.7652C96.9328 64.6435 97.3153 64.4871 97.6977 64.3133L97.8474 64.6956Z" fill="#FFF3C2"/>
<path d="M96.4674 136.742C97.5816 138.166 98.1802 140.147 97.6481 141.92C97.116 143.692 95.2368 145.013 93.5406 144.527H93.524L93.4242 143.849C93.1582 141.781 93.1249 139.522 94.2391 137.784L96.0184 136.22C96.1847 136.394 96.3344 136.568 96.4674 136.742Z" fill="#FFF5E3"/>
<path d="M59.035 147.463C59.3676 146.212 59.617 144.353 59.0683 143.258C58.8022 142.719 58.2534 142.372 57.6548 142.076L57.9042 141.538C66.0027 131.511 80.7364 128.07 92.1441 133.562C93.5576 134.239 94.9379 135.056 96.0188 136.22L94.2394 137.784C93.1252 139.522 93.1585 141.781 93.4246 143.849L93.5244 144.527C93.7073 145.882 93.9401 147.237 93.9401 148.593C93.9401 149.097 93.9068 149.583 93.8237 150.07C93.541 151.703 92.7428 153.25 91.4623 154.241C90.0322 155.37 88.0367 155.665 86.3405 155.022L85.0933 156.864C85.3094 157.664 84.8438 158.55 84.1454 158.932C83.4469 159.332 82.5822 159.28 81.8505 158.967C81.1188 158.654 80.5035 158.116 79.9381 157.525C79.4891 157.073 78.9736 156.534 78.3583 156.621C77.5269 156.743 77.2276 157.82 76.5956 158.376C76.1466 158.776 75.4648 158.898 74.8994 158.689C74.3507 158.463 73.9183 157.907 73.8352 157.282L70.6091 157.525C70.6257 157.646 70.6589 157.751 70.7088 157.855L69.2454 158.463C68.9627 159.315 68.0315 159.749 67.1834 159.697C66.3353 159.645 65.5537 159.21 64.822 158.776C64.0903 158.342 63.3254 157.872 62.4939 157.751C60.831 157.507 59.0849 158.602 57.5384 157.924C56.1082 157.264 55.6426 155.37 55.626 153.737C55.626 153.354 55.6426 152.989 55.6759 152.607C55.759 151.669 55.9586 150.748 56.3577 149.914C56.9064 148.784 57.8543 147.811 59.035 147.463Z" fill="#FFF5E3"/>
<path d="M58.3529 69.1266C58.5691 69.1613 58.7853 69.1787 59.0015 69.1266C59.4338 69.0918 59.8496 68.9354 60.1821 68.6574C61.1466 67.8233 61.0469 66.242 60.6145 65.0082C59.8163 62.7144 55.8918 57.5012 53.4472 61.1331C52.6989 62.2452 52.7987 63.7918 53.3974 64.9908C53.996 66.1898 55.0104 67.1108 56.0414 67.9102C56.6567 68.3794 57.3053 68.8312 58.037 69.0397C58.1367 69.0744 58.2365 69.0918 58.3529 69.1092V69.1266ZM48.9739 108.225C47.9595 108.26 46.9285 108.225 45.9141 108.138C45.0328 108.052 44.168 107.93 43.3033 107.756C42.0894 107.513 40.9087 107.165 39.7446 106.766L39.6781 106.974C37.2669 107.131 33.3091 107.669 30.4821 108.799C30.2991 106.609 30.083 104.437 29.8834 102.265C29.6173 102.161 29.3513 102.039 29.1185 101.865C28.42 101.344 27.971 100.51 27.256 100.006C26.7238 99.641 26.1252 99.4846 25.4932 99.3977C25.011 99.3282 24.5121 99.2934 24.0299 99.2066C21.6685 98.8069 19.5233 97.2603 18.3426 95.0882L17.9768 95.3314L15.6819 94.0629C14.1187 94.0629 12.5888 93.7501 11.1421 93.1767C11.2086 92.9855 11.2918 92.8117 11.3749 92.638L8.31509 91.0393C8.51464 90.4484 8.84723 89.8924 9.27959 89.4406L8.28183 88.7455C4.54022 86.2084 2.41166 81.308 3.04357 76.703L4.17437 72.5846C1.94603 71.681 0.682201 68.7617 1.51367 66.4331C0.865124 63.7918 1.41389 60.8376 2.96043 58.6481C2.99369 58.596 3.01032 58.5612 3.04357 58.5265C4.67325 56.3196 7.3007 54.9641 9.9614 54.9641L11.7574 53.9389C11.641 52.0795 11.5412 50.1854 12.1232 48.4303C12.7052 46.6752 14.1354 45.0939 15.8981 44.9722L17.8604 43.6516C21.2029 38.3168 27.1562 34.9108 33.2425 34.8066L35.8866 33.8682C36.4686 32.478 37.9985 31.8698 39.3954 31.4527C46.1303 29.4891 53.2809 29.1242 60.1489 30.4101L61.0635 30.9836C60.9138 31.3137 60.8307 31.6613 60.7974 32.0262L62.9094 33.0167C63.3085 32.3042 64.09 31.8003 64.8716 31.557C65.9026 31.2268 67.0334 31.1921 68.0478 30.8098L69.9935 29.9409C72.6708 35.0498 75.2816 40.1935 77.3769 45.5804C78.99 49.6988 80.2871 53.9389 81.4012 58.2311C82.5819 62.6796 83.5631 67.1803 84.5608 71.6637C85.8247 77.3981 87.0885 83.4454 85.4921 89.0756C83.746 95.2793 78.7073 100.023 73.1032 102.752C67.4991 105.497 61.2797 106.522 55.1601 107.513L55.0104 107.27C53.0481 107.86 51.0194 108.173 48.9739 108.225ZM50.4041 74.1138C51.1358 72.3761 50.7367 70.1866 49.4562 68.8485C48.0427 67.3541 46.6126 67.58 44.8332 67.6669C43.2202 67.7364 41.6404 66.9023 40.1604 68.1361C38.9464 69.144 38.5141 71.0207 39.1626 72.4804C39.6781 73.6968 40.7923 74.4961 41.8566 75.2086C43.1537 76.0601 44.5339 76.9116 46.0472 76.9637C47.8598 77.0332 49.6724 75.8516 50.4041 74.1138ZM39.0795 59.8819C39.279 57.6402 36.2691 56.3196 34.5895 56.9973C33.4255 57.4491 32.5441 58.457 31.8956 59.5517C31.2636 60.6291 30.8147 61.9845 31.3135 63.1314C31.8789 64.4347 33.5086 64.956 34.8223 64.5737C36.1361 64.1914 37.1837 63.1488 38.0484 62.0367C38.5473 61.4111 39.0129 60.6986 39.0795 59.8819Z" fill="#FFF5E3"/>
<path d="M83.3135 39.8461H83.8124C83.8456 45.1462 84.4276 50.4462 85.5086 55.642C85.5917 56.0591 85.6915 56.4935 85.7913 56.9105L81.4011 58.2312C80.2869 53.939 78.9898 49.699 77.3768 45.5806C75.2815 40.1936 72.6707 35.05 69.9933 29.9411C68.3969 26.8827 66.7672 23.8243 65.2207 20.7312L65.9524 18.2983C69.0288 19.4974 71.9889 20.9571 74.4666 23.1813C76.3291 24.8843 77.8091 26.9348 79.0231 29.1765C80.8523 32.4782 82.1162 36.2143 83.3135 39.8461Z" fill="#FFF3C2"/>
<path d="M81.6171 109.129C81.6171 109.129 79.7879 115.089 75.6804 118.287C71.5564 121.484 66.3347 123.065 61.2129 122.648L61.0965 122.579C61.3792 122.023 61.5621 121.415 61.5621 120.772C61.5621 119.347 60.714 118.096 59.8825 116.966C58.2695 114.811 55.3593 111.944 53.6299 109.894C59.7329 111.232 65.9523 111.979 72.1384 111.353C75.3479 111.04 78.574 110.293 81.6171 109.129Z" fill="#FFF5E3"/>
<path d="M14.9673 39.0296C21.935 32.2873 29.4183 26.1531 37.3505 20.6966C39.5955 19.1501 41.9402 17.6383 44.4013 16.5261C46.4135 15.6051 48.5254 14.9448 50.7371 14.771C54.8612 14.4235 58.9354 15.7615 62.86 17.1517C63.891 17.5166 64.922 17.8815 65.953 18.2986L65.2213 20.7314C66.7679 23.8246 68.3976 26.8829 69.994 29.9413L68.0483 30.8102C67.0339 31.1925 65.9031 31.2272 64.8721 31.5574C64.0905 31.8007 63.309 32.3046 62.9099 33.0171L60.7979 32.0266C60.8312 31.6617 60.9143 31.3141 61.064 30.984L60.1494 30.4105C53.2814 29.1246 46.1308 29.4895 39.3959 31.4532C37.999 31.8702 36.4691 32.4784 35.8871 33.8686L33.243 34.807C27.1567 34.9112 21.2034 38.3172 17.8608 43.652L15.8986 44.9726C14.1359 45.0943 12.7057 46.6756 12.1237 48.4307C11.5417 50.1858 11.6415 52.0799 11.7579 53.9393L9.96188 54.9645C7.30118 54.9645 4.67374 56.32 3.04406 58.5269C3.0108 58.5616 2.99417 58.5964 2.96091 58.6485L2.82788 58.5442C2.31237 56.1288 2.92765 53.5917 4.05845 51.437C5.20588 49.2648 6.81893 47.4402 8.46524 45.6851C10.5772 43.4087 12.7556 41.2018 14.9673 39.0296Z" fill="#FFF3C2"/>
<path d="M59.8831 116.966C60.7145 118.096 61.5793 119.347 61.5626 120.772C61.5626 121.415 61.3797 122.023 61.097 122.579C60.8808 122.996 60.5981 123.378 60.2822 123.726C59.5505 124.525 56.208 126.454 55.2934 127.027C55.8754 126.35 56.1581 125.446 56.2412 124.473C56.3078 123.656 56.2412 122.805 56.1248 122.005C55.5095 118.061 54.0295 114.255 51.8677 110.971C51.4353 110.311 50.9531 109.668 50.3877 109.129C51.4686 109.407 52.5495 109.65 53.6304 109.876C55.3599 111.944 58.27 114.811 59.8831 116.966Z" fill="#FFF3C2"/>
<path d="M60.6145 65.0258C61.0469 66.2596 61.1466 67.841 60.1821 68.6751C59.8495 68.9531 59.4338 69.1095 59.0014 69.1443C58.7853 69.1443 58.5691 69.1443 58.3529 69.1443C58.2365 69.1269 58.1367 69.1095 58.0369 69.0747C57.3052 68.8662 56.6567 68.4144 56.0414 67.9452C55.0104 67.1459 53.996 66.2249 53.3973 65.0258C52.7987 63.8268 52.6989 62.2802 53.4472 61.1681C55.8917 57.5363 59.8163 62.7494 60.6145 65.0432V65.0258Z" fill="#414A56"/>
<path d="M59.0011 69.144C58.7849 69.1775 58.5687 69.1608 58.3525 69.144C58.5687 69.144 58.7849 69.144 59.0011 69.144Z" fill="#414A56"/>
<path d="M50.3875 109.129C50.9529 109.668 51.4352 110.311 51.8676 110.971C54.0294 114.255 55.5094 118.061 56.1247 122.006C56.2411 122.805 56.3076 123.657 56.2411 124.473L55.7921 124.421C51.9673 120.876 47.494 115.906 46.0805 110.763H45.8145C45.8477 110.033 45.8643 109.32 45.881 108.59L45.9142 108.139C46.9286 108.226 47.9596 108.26 48.974 108.226C49.2567 108.33 49.5228 108.469 49.7722 108.643C49.9884 108.799 50.188 108.955 50.3875 109.129Z" fill="#FFF5E3"/>
<path d="M45.798 113.821H45.7314C45.7647 112.796 45.798 111.788 45.8146 110.763H46.0807C47.4942 115.906 51.9675 120.876 55.7922 124.421L56.2412 124.473C56.1581 125.446 55.8754 126.35 55.2933 127.028C55.2933 127.045 55.2767 127.045 55.2767 127.045C55.1271 127.236 54.9275 127.41 54.7113 127.566C53.6637 128.244 52.2834 128.123 51.2025 127.566C50.6205 127.254 50.1216 126.837 49.6726 126.35C49.2735 125.916 48.891 125.429 48.5584 124.925C46.9953 122.631 46.2137 120.372 45.9144 117.922V117.887C45.7647 116.601 45.7314 115.263 45.798 113.838V113.821Z" fill="#FFF3C2"/>
<path d="M49.4564 68.8488C50.7368 70.1869 51.1359 72.3764 50.4042 74.1141C49.6726 75.8519 47.86 77.0335 46.0474 76.964C44.5341 76.9119 43.1538 76.0604 41.8567 75.2089C40.7925 74.4964 39.6783 73.6971 39.1628 72.4807C38.5142 71.021 38.9466 69.1442 40.1605 68.1364C41.6406 66.9026 43.2204 67.7367 44.8334 67.6672C46.6127 67.5803 48.0429 67.3544 49.4564 68.8488Z" fill="#414A56"/>
<path d="M50.0883 139.105C50.0883 139.713 50.0883 140.356 50.0384 140.964C49.9553 141.816 49.7557 142.65 49.3067 143.345C48.5584 144.509 47.2281 145.118 45.9809 145.639C45.3323 145.934 44.4343 146.143 44.0352 145.535C43.8357 145.222 43.8523 144.805 43.8856 144.44C44.1017 142.077 44.3013 139.765 44.4676 137.472C44.6505 134.882 44.8168 132.311 44.9997 129.739C45.2492 125.864 45.5319 121.971 45.9143 117.905C46.2137 120.355 46.9953 122.614 48.5584 124.908C48.891 125.412 49.2735 125.898 49.6726 126.333L49.6393 126.367C49.7058 130.712 50.0384 134.761 50.0883 139.105Z" fill="#FFF3C2"/>
<path d="M43.1707 113.004C43.0709 112.97 42.9711 112.9 42.8713 112.831C42.572 112.587 42.3725 112.274 42.2727 111.91C42.1729 111.649 42.1396 111.371 42.1396 111.075C42.1396 110.902 42.1563 110.71 42.1895 110.537C42.3392 109.703 42.7716 108.973 43.2039 108.243L43.3037 107.756C44.1684 107.93 45.0332 108.052 45.9145 108.139L45.8813 108.59C45.8646 109.32 45.848 110.033 45.8147 110.763C45.7981 111.788 45.7649 112.796 45.7316 113.821V113.891C45.1329 113.699 44.5343 113.508 43.9523 113.334C43.6862 113.248 43.4201 113.161 43.1707 113.004Z" fill="#FFF3C2"/>
<path d="M44.5507 129.704L44.9997 129.738C44.8167 132.31 44.6504 134.882 44.4675 137.471L44.0019 137.437C42.472 136.307 41.441 135.473 39.645 134.865L39.3623 134.813C39.7448 132.571 40.1605 130.347 40.5596 128.105L40.7924 128.157C42.1394 128.366 43.4365 128.904 44.5507 129.704Z" fill="#FFF3C2"/>
<path d="M4.83981 23.1466C4.17463 22.8165 3.57597 22.3125 3.11035 21.6869L5.92072 21.0961C4.54048 15.4659 4.97284 9.36649 7.16792 4.03169C7.71669 2.69364 8.66457 1.21658 10.0614 1.30346C11.0093 1.35559 11.7576 2.15495 12.4561 2.83266C16.7298 7.03795 22.7497 8.56714 28.4702 9.88781C34.1242 11.1911 40.0276 12.5813 44.4011 16.5259C41.94 17.6381 39.5952 19.1499 37.3503 20.6964C29.418 26.1529 21.9348 32.2871 14.9671 39.0294C13.8696 38.6124 12.7554 38.1953 11.6579 37.7783C10.8763 37.4828 9.96166 36.9963 9.89514 36.1274C9.89514 35.6409 10.1446 35.1891 10.5271 34.8763C10.8929 34.5808 11.3419 34.4071 11.7743 34.2507C9.94503 34.0943 8.16569 33.208 6.91848 31.8005L7.40073 29.246C5.70454 28.5857 4.27441 27.2129 3.57597 25.4752L4.83981 23.1466Z" fill="#FFF5E3"/>
<path d="M30.4819 108.799C33.3089 107.669 37.2667 107.131 39.6779 106.974L39.7444 106.766C40.9085 107.165 42.0892 107.513 43.3031 107.756L43.2033 108.243C42.771 108.973 42.3386 109.702 42.1889 110.536C42.1557 110.71 42.1391 110.901 42.1391 111.075H41.7067C38.8631 110.815 34.872 111.562 32.6271 113.369C32.4608 113.491 32.3111 113.63 32.1614 113.786C30.3655 115.402 29.0684 117.609 28.5196 120.007C28.4531 120.285 28.4032 120.581 28.3533 120.859C28.0706 122.614 28.2036 124.525 29.2014 125.985C27.0895 123.726 24.4288 121.084 24.4454 117.939C24.4786 115.367 25.4432 112.813 27.156 110.988C27.5385 110.571 27.9708 110.189 28.4364 109.841C29.0018 109.442 29.7003 109.094 30.4819 108.799Z" fill="#FFF3C2"/>
<path d="M34.623 128.001C34.5066 128.036 34.3736 128.053 34.2572 128.07C33.3758 128.192 32.4612 128.105 31.6131 127.792C30.6486 127.462 29.8005 126.854 29.2019 125.985C28.2041 124.526 28.0711 122.614 28.3538 120.859C28.4036 120.581 28.4535 120.285 28.5201 120.007C29.3682 121.102 31.4967 123.448 32.8271 123.309C34.4235 123.153 35.7871 122.023 36.8846 120.807C37.2671 120.39 37.6496 119.921 38.0487 119.417C39.7449 117.192 41.4577 114.238 42.2559 111.91H42.2726C42.3723 112.275 42.5719 112.587 42.8712 112.831C42.971 112.9 43.0708 112.97 43.1705 113.004C42.9544 114.325 42.5885 116.497 42.206 118.183C42.0564 118.861 41.9067 119.469 41.757 119.903C41.1418 121.797 40.3269 123.622 39.0797 125.134C37.9323 126.541 36.3525 127.653 34.623 128.001Z" fill="#FFF3C2"/>
<path d="M41.7565 119.903C41.9062 119.469 42.0558 118.86 42.2055 118.183C41.7232 121.519 41.1412 124.821 40.5592 128.105C40.1601 130.347 39.7443 132.571 39.3619 134.813C38.8962 137.402 38.4472 140.026 38.0648 142.65C37.965 143.345 37.7821 144.179 37.1501 144.422C36.7178 144.596 36.2355 144.422 35.8364 144.214C34.6724 143.536 33.8742 142.32 33.4418 140.982C33.3088 140.53 33.209 140.078 33.1425 139.609C32.9097 137.749 33.2422 135.89 33.5582 134.048C33.6081 133.822 33.6413 133.579 33.6746 133.353C34.0072 131.58 34.3065 129.773 34.6225 128.001C36.3519 127.653 37.9317 126.541 39.0792 125.134C40.3264 123.622 41.1412 121.797 41.7565 119.903Z" fill="#FFF3C2"/>
<path d="M34.5893 56.9974C36.2689 56.3196 39.2788 57.6403 39.0793 59.882C39.0127 60.6987 38.5471 61.4112 38.0482 62.0368C37.1835 63.1489 36.1359 64.1915 34.8221 64.5738C33.5084 64.9561 31.8787 64.4348 31.3133 63.1315C30.8144 61.9846 31.2634 60.6292 31.8954 59.5518C32.5439 58.457 33.4253 57.4492 34.5893 56.9974Z" fill="#414A56"/>
<path d="M37.7821 118.826L38.0482 119.416C37.6491 119.92 37.2666 120.389 36.8841 120.807C35.7866 122.023 34.423 123.152 32.8265 123.309C31.4962 123.448 29.3676 121.102 28.5195 120.007C29.0683 117.609 30.3654 115.402 32.1614 113.786H32.178C33.0261 116.341 35.2378 118.322 37.7821 118.826Z" fill="#FFF3C2"/>
<path d="M34.6226 128.001C34.3067 129.773 34.0073 131.581 33.6747 133.353L32.4608 133.11C30.2325 132.693 27.8711 133.162 25.9254 134.361L24.3789 130.938C26.4908 129.304 29.0019 128.227 31.5961 127.845V127.792C32.4608 128.105 33.3754 128.192 34.2568 128.071C34.3732 128.053 34.5062 128.036 34.6226 128.001Z" fill="#FFF3C2"/>
<path d="M20.0724 132.536C19.3407 132.171 18.742 131.563 18.3762 130.833C18.0103 130.086 17.8939 129.217 18.0436 128.401H18.0769C17.8939 127.758 17.711 127.132 17.5281 126.506C17.0126 124.699 16.4804 122.875 16.1478 121.015C15.333 116.497 15.6822 111.753 17.1622 107.426L16.4139 107.148C15.8485 107.113 15.2997 107.061 14.7676 106.888C14.2355 106.714 13.7366 106.401 13.4539 105.897C13.0714 105.219 13.1546 104.385 13.3042 103.621C13.5703 102.161 17.3285 96.6523 17.9771 95.3317L18.3429 95.0884C19.5236 97.2605 21.6688 98.8071 24.0302 99.2068C24.5124 99.2937 25.0113 99.3284 25.4936 99.3979L25.3938 100.041C25.3273 103.621 25.8095 107.218 26.8405 110.658L27.1565 110.989C25.4437 112.813 24.4792 115.368 24.4459 117.939C24.4459 121.085 27.09 123.726 29.2019 125.985C29.8006 126.854 30.6487 127.462 31.6132 127.792V127.844C29.0024 128.227 26.4913 129.304 24.3794 130.938L25.9259 134.361C25.427 134.674 24.9614 135.021 24.5291 135.421L24.2796 135.855C23.681 135.525 22.9659 135.351 22.3174 135.126C21.2863 134.778 20.1389 134.065 20.0558 132.936V132.536H20.0724Z" fill="#FFF3C2"/>
<path d="M29.8837 102.265C30.0832 104.437 30.2994 106.609 30.4823 108.799C29.7008 109.094 29.0023 109.442 28.4369 109.842C27.9713 110.189 27.5389 110.572 27.1565 110.989L26.8405 110.658C25.8095 107.218 25.3272 103.621 25.3937 100.041L25.4935 99.3979C26.1254 99.4848 26.7241 99.6412 27.2562 100.006C27.9713 100.51 28.4203 101.344 29.1187 101.866C29.3515 102.039 29.6176 102.161 29.8837 102.265Z" fill="#FFF3C2"/>
<path d="M118.485 75.3128C120.547 73.7663 123.208 72.1328 125.453 73.3666C127.315 74.3745 127.864 76.8594 128.113 79.0316C130.009 96.0612 124.654 113.838 113.746 126.645C115.475 132.188 114.195 138.653 110.486 142.997C108.74 145.048 106.262 146.646 103.568 147.672C100.509 148.819 97.1494 149.218 94.2393 148.61" stroke="#414A56" stroke-width="1.5" stroke-linecap="round" stroke-linejoin="round"/>
<path d="M35.8867 33.8682C36.4687 32.478 37.9987 31.8698 39.3955 31.4527C46.1304 29.4891 53.2811 29.1242 60.149 30.4101" stroke="#414A56" stroke-width="1.5" stroke-linecap="round" stroke-linejoin="round"/>
<path d="M33.2425 34.8066C27.1562 34.9109 21.2029 38.3168 17.8604 43.6516" stroke="#414A56" stroke-width="1.5" stroke-linecap="round" stroke-linejoin="round"/>
<path d="M15.8978 44.9727C14.1351 45.0943 12.705 46.6756 12.123 48.4307C11.5409 50.1858 11.6407 52.0799 11.7571 53.9393" stroke="#414A56" stroke-width="1.5" stroke-linecap="round" stroke-linejoin="round"/>
<path d="M9.9614 54.9644C7.3007 54.9644 4.67325 56.3198 3.04357 58.5267C3.01032 58.5614 2.99369 58.5962 2.96043 58.6483C1.41389 60.8379 0.865124 63.792 1.51367 66.4333C0.682201 68.7619 1.94603 71.6812 4.17437 72.5849" stroke="#414A56" stroke-width="1.5" stroke-linecap="round" stroke-linejoin="round"/>
<path d="M3.04387 76.7031C2.41195 81.3081 4.54052 86.2085 8.28213 88.7455" stroke="#414A56" stroke-width="1.5" stroke-linecap="round" stroke-linejoin="round"/>
<path d="M11.9905 88.1895C10.9761 88.2242 9.995 88.7108 9.27993 89.4406C8.84757 89.8924 8.51498 90.4485 8.31543 91.0393" stroke="#414A56" stroke-width="1.5" stroke-linecap="round" stroke-linejoin="round"/>
<path d="M14.4841 90.292C13.1704 90.5005 11.9897 91.4041 11.3744 92.6379C11.2913 92.8117 11.2081 92.9855 11.1416 93.1766C12.5884 93.7501 14.1183 94.0629 15.6814 94.0629C15.8311 94.0629 15.9974 94.0455 16.1637 94.0455" stroke="#414A56" stroke-width="1.5" stroke-linecap="round" stroke-linejoin="round"/>
<path d="M18.2598 94.9492C18.2598 94.9492 18.3097 95.0361 18.3429 95.0882C19.5236 97.2604 21.6688 98.807 24.0302 99.2066C24.5124 99.2935 25.0113 99.3283 25.4936 99.3978C26.1255 99.4847 26.7241 99.6411 27.2563 100.006C27.9713 100.51 28.4203 101.344 29.1188 101.865C29.3516 102.039 29.6176 102.161 29.8837 102.265C30.5323 102.456 31.2307 102.439 31.8293 102.161" stroke="#414A56" stroke-width="1.5" stroke-linecap="round" stroke-linejoin="round"/>
<path d="M34.1074 103.847C35.8535 105.063 37.7659 106.036 39.7448 106.766C40.9088 107.166 42.0895 107.513 43.3035 107.757C44.1682 107.93 45.0329 108.052 45.9143 108.139C46.9287 108.226 47.9597 108.26 48.9741 108.226C51.0195 108.174 53.0483 107.861 55.0106 107.27" stroke="#414A56" stroke-width="1.5" stroke-linecap="round" stroke-linejoin="round"/>
<path d="M60.7979 32.0265C60.8311 31.6615 60.9143 31.314 61.0639 30.9838C61.646 29.5241 63.1426 28.4468 64.6891 28.4989" stroke="#414A56" stroke-width="1.5" stroke-linecap="round" stroke-linejoin="round"/>
<path d="M62.6436 33.7989C62.6768 33.5209 62.7766 33.2602 62.9096 33.017C63.3087 32.3045 64.0903 31.8006 64.8719 31.5573C65.9029 31.2271 67.0337 31.1924 68.0481 30.8101" stroke="#414A56" stroke-width="1.5" stroke-linecap="round" stroke-linejoin="round"/>
<path d="M2.82788 58.5442C2.31237 56.1288 2.92765 53.5917 4.05845 51.437C5.20588 49.2648 6.81893 47.4402 8.46524 45.6851C10.5772 43.4087 12.7556 41.2018 14.9673 39.0296C21.935 32.2873 29.4183 26.1531 37.3505 20.6966C39.5955 19.1501 41.9402 17.6383 44.4013 16.5261C46.4135 15.6051 48.5254 14.9448 50.7371 14.771C54.8612 14.4235 58.9354 15.7615 62.86 17.1517C63.891 17.5166 64.922 17.8815 65.953 18.2986C69.0295 19.4976 71.9895 20.9573 74.4673 23.1816C76.3298 24.8846 77.8098 26.9351 79.0237 29.1767C80.853 32.4784 82.1168 36.2145 83.3141 39.8464C82.8485 39.6726 82.3829 39.5162 81.9172 39.3424" stroke="#414A56" stroke-width="1.5" stroke-linecap="round" stroke-linejoin="round"/>
<path d="M65.2209 20.7314C66.7675 23.8246 68.3972 26.883 69.9936 29.9414C72.6709 35.0503 75.2817 40.1939 77.377 45.5809C78.9901 49.6993 80.2872 53.9393 81.4013 58.2315C82.582 62.6801 83.5632 67.1808 84.5609 71.6641C85.8247 77.3986 87.0886 83.4458 85.4922 89.0761C83.7461 95.2797 78.7074 100.024 73.1033 102.752C67.4992 105.498 61.2798 106.523 55.1602 107.513" stroke="#414A56" stroke-width="1.5" stroke-linecap="round" stroke-linejoin="round"/>
<path d="M79.3555 28.9853C81.6171 26.483 85.7744 26.2224 88.3187 28.4119C90.3974 30.2018 91.2455 33.1385 93.1246 35.1543C96.9161 39.2205 103.867 38.595 107.409 42.8871C109.687 45.6153 109.887 49.7511 108.623 53.1223C107.359 56.4761 104.848 59.1696 102.138 61.4112C101.123 62.2627 100.042 63.0621 98.895 63.7224C98.5125 63.9309 98.1134 64.1395 97.6977 64.3132C97.3152 64.487 96.9327 64.6434 96.5336 64.7651C94.4716 65.4254 92.1268 65.408 90.2311 64.2959C87.72 62.8362 86.5227 59.8647 85.791 56.9105C85.6913 56.4935 85.5915 56.0591 85.5083 55.642C84.4274 50.4462 83.8454 45.1462 83.8121 39.8287C83.8121 37.674 83.8787 35.5018 84.045 33.347" stroke="#414A56" stroke-width="1.5" stroke-linecap="round" stroke-linejoin="round"/>
<path d="M97.8474 64.6958C99.5602 70.3434 100.774 77.8156 100.259 83.7239C99.7431 89.6147 97.7642 95.4535 94.1889 100.058C92.1103 102.735 89.566 104.924 86.7223 106.627C85.1093 107.618 83.3965 108.452 81.6171 109.129C78.5739 110.294 75.3478 111.041 72.1384 111.354C65.9522 111.979 59.7328 111.232 53.6299 109.877C52.5489 109.651 51.468 109.407 50.3871 109.129C49.3228 108.869 48.2752 108.591 47.2275 108.313" stroke="#414A56" stroke-width="1.5" stroke-linecap="round" stroke-linejoin="round"/>
<path d="M44.6175 16.6997C44.6175 16.6997 44.4845 16.578 44.4013 16.5259C40.0278 12.5813 34.1244 11.1911 28.4704 9.88781C22.7499 8.56714 16.73 7.03795 12.4563 2.83266C11.7578 2.15495 11.0095 1.35559 10.0616 1.30346C8.66476 1.21658 7.71689 2.69364 7.16812 4.03169C4.97304 9.36649 4.54067 15.4659 5.92091 21.0961" stroke="#414A56" stroke-width="1.5" stroke-linecap="round" stroke-linejoin="round"/>
<path d="M3.11035 21.687C3.57597 22.3126 4.17463 22.8165 4.83981 23.1467C5.65465 23.5638 6.58589 23.7375 7.48388 23.6506" stroke="#414A56" stroke-width="1.5" stroke-linecap="round" stroke-linejoin="round"/>
<path d="M8.29892 26.8305C6.65261 26.7958 5.0063 26.3266 3.57617 25.4751C4.27461 27.2128 5.70473 28.5856 7.40093 29.246C7.96633 29.4719 8.54836 29.6109 9.14702 29.663" stroke="#414A56" stroke-width="1.5" stroke-linecap="round" stroke-linejoin="round"/>
<path d="M6.91797 31.8003C8.16517 33.2078 9.94452 34.0941 11.7738 34.2505C11.3414 34.4069 10.8924 34.5806 10.5265 34.8761C10.1441 35.1889 9.878 35.6407 9.89463 36.1272C9.96115 36.9961 10.8758 37.4826 11.6573 37.7781C12.7549 38.1951 13.8691 38.6122 14.9666 39.0292C15.0497 39.064 15.1163 39.0814 15.1994 39.1161" stroke="#414A56" stroke-width="1.5" stroke-linecap="round" stroke-linejoin="round"/>
<path d="M16.7461 12.4595C17.5609 16.0392 20.0387 19.1671 23.2482 20.6963" stroke="#414A56" stroke-width="1.5" stroke-linecap="round" stroke-linejoin="round"/>
<path d="M17.3115 21.2871C20.2549 22.7468 23.6972 23.0422 26.8235 22.1038C26.042 22.3297 25.2437 22.573 24.5952 23.077C23.9466 23.5635 23.4311 24.3803 23.5143 25.2144C23.5808 25.9963 24.1129 26.6393 24.7449 27.039C25.3934 27.4386 26.1251 27.595 26.8402 27.7688" stroke="#414A56" stroke-width="1.5" stroke-linecap="round" stroke-linejoin="round"/>
<path d="M54.4121 69.9263C55.6759 69.405 57.0063 69.1443 58.3533 69.127C58.5695 69.127 58.7856 69.127 59.0018 69.127C60.6648 69.2138 62.3277 69.7178 63.7911 70.5693" stroke="#414A56" stroke-width="1.5" stroke-linecap="round" stroke-linejoin="round"/>
<path d="M59.7998 73.245C62.7598 72.2545 65.9859 72.2197 68.9626 73.1233" stroke="#414A56" stroke-width="1.5" stroke-linecap="round" stroke-linejoin="round"/>
<path d="M34.6224 79.3271C34.3564 80.3698 34.9384 81.5167 35.8364 82.0554C36.7177 82.5941 37.8319 82.5941 38.8297 82.316C39.8108 82.038 40.7254 81.4993 41.6068 80.9606C41.3573 81.6904 41.4904 82.5419 41.9394 83.1675C42.3717 83.7931 43.1201 84.158 43.8684 84.1233C44.5003 84.0885 45.1156 83.7757 45.7475 83.8452C46.2963 83.8974 46.7952 84.2449 47.3273 84.4187C47.8594 84.6098 48.5579 84.5751 48.8572 84.0885" stroke="#414A56" stroke-width="1.5" stroke-linecap="round" stroke-linejoin="round"/>
<path d="M48.5752 80.8564C48.8745 83.4457 50.1051 85.8958 51.9676 87.6336" stroke="#414A56" stroke-width="1.5" stroke-linecap="round" stroke-linejoin="round"/>
<path d="M54.7773 85.5483C55.4591 86.452 56.1576 87.3556 56.8394 88.2418" stroke="#414A56" stroke-width="1.5" stroke-linecap="round" stroke-linejoin="round"/>
<path d="M17.9771 95.3315C17.3285 96.6522 13.5703 102.161 13.3042 103.62C13.1546 104.385 13.0714 105.219 13.4539 105.897C13.7366 106.401 14.2355 106.714 14.7676 106.887C15.2998 107.061 15.8485 107.113 16.4139 107.148" stroke="#414A56" stroke-width="1.5" stroke-linecap="round" stroke-linejoin="round"/>
<path d="M17.944 105.393C17.6446 106.053 17.3952 106.731 17.1624 107.426C15.6824 111.753 15.3331 116.497 16.148 121.015C16.4806 122.875 17.0127 124.699 17.5282 126.506L18.077 128.383C18.077 128.383 18.0936 128.453 18.1102 128.487" stroke="#414A56" stroke-width="1.5" stroke-linecap="round" stroke-linejoin="round"/>
<path d="M20.0557 132.936C20.1388 134.066 21.2862 134.778 22.3173 135.126C22.9658 135.351 23.6809 135.525 24.2795 135.855C24.6287 136.064 24.9447 136.307 25.1775 136.637C25.4602 137.02 25.6099 137.489 25.7595 137.958C26.1919 139.279 26.6076 140.617 27.04 141.955" stroke="#414A56" stroke-width="1.5" stroke-linecap="round" stroke-linejoin="round"/>
<path d="M28.6526 142.267C28.1205 142.111 27.5883 142.042 27.0396 142.042C25.5263 142.042 24.013 142.58 22.849 143.571C21.2692 144.926 20.3545 147.116 20.5042 149.253C20.5707 150.452 21.1694 151.808 22.2836 151.981C22.7824 152.051 23.2979 151.877 23.7968 151.912C24.6948 151.981 25.4099 152.728 26.2081 153.215C27.7879 154.171 29.8998 154.049 31.3798 152.92" stroke="#414A56" stroke-width="1.5" stroke-linecap="round" stroke-linejoin="round"/>
<path d="M33.6914 152.312C34.2568 153.823 36.1193 154.64 37.5328 153.997C38.0982 153.754 38.6303 153.302 39.229 153.372C39.9441 153.441 40.393 154.154 40.9252 154.64C41.9562 155.561 43.5859 155.665 44.7001 154.883" stroke="#414A56" stroke-width="1.5" stroke-linecap="round" stroke-linejoin="round"/>
<path d="M46.5625 154.119L46.6124 154.275C46.6623 154.484 46.7288 154.675 46.7953 154.883C46.8785 155.213 46.9782 155.544 47.078 155.874" stroke="#414A56" stroke-width="1.5" stroke-linecap="round" stroke-linejoin="round"/>
<path d="M48.7578 154.258C48.9906 154.779 49.2234 155.283 49.4562 155.804" stroke="#414A56" stroke-width="1.5" stroke-linecap="round" stroke-linejoin="round"/>
<path d="M51.4854 154.918C52.4 154.449 52.9155 153.406 53.0319 152.329C53.0485 152.138 53.0485 151.947 53.0485 151.755C53.0153 150.504 52.533 149.323 52.0508 148.176C53.1483 146.733 53.9132 145.013 54.2957 143.206C54.4953 142.302 54.5951 141.364 54.5951 140.443" stroke="#414A56" stroke-width="1.5" stroke-linecap="round" stroke-linejoin="round"/>
<path d="M54.1124 137.906C53.8962 138.531 54.0625 139.261 54.4117 139.817C54.5115 139.974 54.6279 140.13 54.7443 140.269C55.0602 140.599 55.4261 140.895 55.8086 141.155C56.3241 141.503 57.0225 141.746 57.6544 142.076C58.2531 142.372 58.8018 142.719 59.0679 143.258C59.6167 144.353 59.3672 146.212 59.0347 147.463C59.0014 147.602 58.9515 147.741 58.9183 147.863" stroke="#414A56" stroke-width="1.5" stroke-linecap="round" stroke-linejoin="round"/>
<path d="M62.4607 148.61C61.7622 147.533 60.3321 147.098 59.1181 147.428C59.0849 147.428 59.0683 147.446 59.035 147.463C57.8543 147.811 56.9064 148.784 56.3577 149.913C55.9586 150.748 55.759 151.669 55.6759 152.607C55.6426 152.989 55.626 153.354 55.626 153.736C55.6426 155.37 56.1082 157.264 57.5384 157.924C59.0849 158.602 60.831 157.507 62.4939 157.751C63.3254 157.872 64.0903 158.341 64.822 158.776C65.5537 159.21 66.3353 159.645 67.1834 159.697C68.0315 159.749 68.9627 159.315 69.2454 158.463" stroke="#414A56" stroke-width="1.5" stroke-linecap="round" stroke-linejoin="round"/>
<path d="M70.6084 157.525C70.625 157.647 70.6583 157.751 70.7082 157.855C71.0075 158.62 71.7392 159.21 72.5208 159.245" stroke="#414A56" stroke-width="1.5" stroke-linecap="round" stroke-linejoin="round"/>
<path d="M73.835 157.281C73.9181 157.907 74.3505 158.463 74.8992 158.689C75.4646 158.898 76.1464 158.776 76.5954 158.376C77.2274 157.82 77.5267 156.743 78.3582 156.621C78.9734 156.534 79.4889 157.073 79.9379 157.525C80.5033 158.116 81.1186 158.654 81.8503 158.967C82.582 159.28 83.4467 159.332 84.1452 158.932C84.8436 158.55 85.3092 157.664 85.0931 156.864" stroke="#414A56" stroke-width="1.5" stroke-linecap="round" stroke-linejoin="round"/>
<path d="M86.3398 155.022C88.036 155.665 90.0316 155.37 91.4617 154.24C92.7422 153.25 93.5404 151.703 93.8231 150.07C93.9062 149.583 93.9395 149.097 93.9395 148.593C93.9395 147.237 93.7067 145.882 93.5237 144.527L93.424 143.849C93.1579 141.781 93.1246 139.522 94.2388 137.784" stroke="#414A56" stroke-width="1.5" stroke-linecap="round" stroke-linejoin="round"/>
<path d="M99.1113 64.1221C103.768 65.4601 107.609 66.9546 111.567 69.8566C113.512 71.2815 115.342 72.8802 117.154 74.4789C117.537 74.8264 117.936 75.1566 118.318 75.5042C120.048 77.0507 121.744 78.6668 123.074 80.5783" stroke="#414A56" stroke-width="1.5" stroke-linecap="round" stroke-linejoin="round"/>
<path d="M43.2039 108.243C42.7716 108.973 42.3392 109.702 42.1895 110.536C42.1563 110.71 42.1396 110.901 42.1396 111.075C42.1396 111.371 42.1729 111.649 42.2727 111.909C42.3725 112.274 42.572 112.587 42.8713 112.83C42.9711 112.9 43.0709 112.969 43.1707 113.004C43.4201 113.16 43.6862 113.247 43.9523 113.334C44.5343 113.508 45.1329 113.699 45.7316 113.89V113.821C45.7649 112.796 45.7981 111.788 45.8147 110.762C45.848 110.033 45.8646 109.32 45.8813 108.59" stroke="#414A56" stroke-width="1.5" stroke-linecap="round" stroke-linejoin="round"/>
<path d="M55.2934 127.028C55.8754 126.35 56.1581 125.447 56.2413 124.473C56.3078 123.657 56.2413 122.805 56.1249 122.006C55.5096 118.061 54.0296 114.256 51.8678 110.971C51.4354 110.311 50.9531 109.668 50.3877 109.129C50.1882 108.956 49.9886 108.799 49.7724 108.643C49.523 108.469 49.2569 108.33 48.9742 108.226C48.2924 107.948 47.5275 107.878 46.8623 108.139" stroke="#414A56" stroke-width="1.5" stroke-linecap="round" stroke-linejoin="round"/>
<path d="M45.9141 117.905C46.2134 120.355 46.995 122.614 48.5581 124.908C48.8907 125.412 49.2732 125.898 49.6723 126.333C50.1213 126.819 50.6202 127.236 51.2022 127.549C52.2831 128.123 53.6634 128.244 54.711 127.549C54.9272 127.393 55.1267 127.219 55.2764 127.028" stroke="#414A56" stroke-width="1.5" stroke-linecap="round" stroke-linejoin="round"/>
<path d="M45.8971 112.344C45.8472 112.848 45.8139 113.352 45.7973 113.821C45.7308 115.246 45.7641 116.584 45.9137 117.87" stroke="#414A56" stroke-width="1.5" stroke-linecap="round" stroke-linejoin="round"/>
<path d="M53.6299 109.894C55.3593 111.944 58.2695 114.811 59.8825 116.966C60.714 118.096 61.5787 119.347 61.5621 120.772C61.5621 121.415 61.3792 122.023 61.0965 122.579C60.8803 122.996 60.5976 123.378 60.2816 123.726C59.5499 124.525 56.2074 126.454 55.2928 127.027C55.2928 127.045 55.2762 127.045 55.2762 127.045" stroke="#414A56" stroke-width="1.5" stroke-linecap="round" stroke-linejoin="round"/>
<path d="M46.0801 110.763C47.4936 115.906 51.9669 120.876 55.7916 124.421" stroke="#414A56" stroke-width="1.5" stroke-linecap="round" stroke-linejoin="round"/>
<path d="M41.7072 111.093C38.8635 110.815 34.8725 111.562 32.6275 113.369C32.4612 113.491 32.3116 113.63 32.1619 113.786C30.3659 115.402 29.0688 117.609 28.5201 120.007C28.4535 120.285 28.4036 120.581 28.3538 120.859C28.0711 122.614 28.2041 124.525 29.2019 125.985C29.8005 126.854 30.6486 127.462 31.6131 127.792C32.4612 128.105 33.3758 128.192 34.2572 128.07C34.3736 128.053 34.5066 128.035 34.623 128.001C36.3525 127.653 37.9323 126.541 39.0797 125.133C40.3269 123.622 41.1418 121.797 41.7571 119.903C41.9067 119.468 42.0564 118.86 42.206 118.183C42.5885 116.497 42.9544 114.325 43.1705 113.004C43.1872 112.865 43.2038 112.743 43.2204 112.639" stroke="#414A56" stroke-width="1.5" stroke-linecap="round" stroke-linejoin="round"/>
<path d="M39.6778 106.975C37.2666 107.131 33.3088 107.67 30.4818 108.799C29.7002 109.095 29.0018 109.442 28.4364 109.842C27.9707 110.189 27.5384 110.572 27.1559 110.989C25.4431 112.813 24.4786 115.368 24.4453 117.94C24.4453 121.085 27.0894 123.726 29.2013 125.985" stroke="#414A56" stroke-width="1.5" stroke-linecap="round" stroke-linejoin="round"/>
<path d="M28.5195 120.007C29.3676 121.102 31.4962 123.448 32.8265 123.309C34.423 123.153 35.7866 122.023 36.8841 120.807C37.2666 120.39 37.6491 119.921 38.0482 119.417C39.7444 117.192 41.4572 114.238 42.2554 111.91" stroke="#414A56" stroke-width="1.5" stroke-linecap="round" stroke-linejoin="round"/>
<path d="M45.9143 117.87V117.905C45.5319 121.971 45.2492 125.864 44.9997 129.739C44.8168 132.311 44.6505 134.882 44.4676 137.472C44.3013 139.765 44.1017 142.077 43.8856 144.44C43.8523 144.805 43.8357 145.222 44.0352 145.535C44.4343 146.143 45.3323 145.934 45.9809 145.639C47.2281 145.118 48.5584 144.509 49.3067 143.345C49.7557 142.65 49.9553 141.816 50.0384 140.964C50.0883 140.356 50.0883 139.713 50.0883 139.105C50.0384 134.761 49.7058 130.712 49.6393 126.368" stroke="#414A56" stroke-width="1.5" stroke-linecap="round" stroke-linejoin="round"/>
<path d="M42.2055 118.183C41.7232 121.519 41.1412 124.821 40.5592 128.105C40.1601 130.347 39.7443 132.571 39.3619 134.813C38.8962 137.402 38.4472 140.026 38.0648 142.65C37.965 143.345 37.7821 144.179 37.1501 144.422C36.7178 144.596 36.2355 144.422 35.8364 144.214C34.6724 143.536 33.8742 142.32 33.4418 140.982C33.3088 140.53 33.209 140.078 33.1425 139.609C32.9097 137.749 33.2422 135.89 33.5582 134.048C33.6081 133.822 33.6413 133.579 33.6746 133.353C34.0072 131.58 34.3065 129.773 34.6225 128.001C34.6391 128.001 34.6391 127.949 34.6391 127.931" stroke="#414A56" stroke-width="1.5" stroke-linecap="round" stroke-linejoin="round"/>
<path d="M29.8838 102.265C30.0833 104.437 30.2995 106.609 30.4824 108.799C30.4991 108.834 30.4991 108.886 30.4991 108.921" stroke="#414A56" stroke-width="1.5" stroke-linecap="round" stroke-linejoin="round"/>
<path d="M32.1787 113.804C33.0268 116.341 35.2385 118.322 37.7828 118.826" stroke="#414A56" stroke-width="1.5" stroke-linecap="round" stroke-linejoin="round"/>
<path d="M61.2129 122.648C66.3347 123.065 71.5564 121.484 75.6805 118.287C79.7879 115.089 81.6172 109.129 81.6172 109.129" stroke="#414A56" stroke-width="1.5" stroke-linecap="round" stroke-linejoin="round"/>
<path d="M57.9043 141.538C66.0028 131.511 80.7364 128.07 92.1442 133.562C93.5577 134.239 94.9379 135.056 96.0189 136.22C96.1852 136.394 96.3348 136.568 96.4678 136.742C97.582 138.167 98.1807 140.148 97.6485 141.92C97.1164 143.693 95.2373 145.013 93.5411 144.527" stroke="#414A56" stroke-width="1.5" stroke-linecap="round" stroke-linejoin="round"/>
<path d="M24.5283 135.421C24.9607 135.021 25.4263 134.674 25.9252 134.361C27.8708 133.162 30.2322 132.693 32.4605 133.11" stroke="#414A56" stroke-width="1.5" stroke-linecap="round" stroke-linejoin="round"/>
<path d="M39.6445 134.865C41.4405 135.473 42.4715 136.307 44.0014 137.437" stroke="#414A56" stroke-width="1.5" stroke-linecap="round" stroke-linejoin="round"/>
<path d="M50.0879 140.964C51.5513 141.277 52.9315 142.042 53.9958 143.137" stroke="#414A56" stroke-width="1.5" stroke-linecap="round" stroke-linejoin="round"/>
<path d="M57.8037 135.282C62.1107 131.632 67.1827 129.009 72.554 127.549C77.0273 126.332 81.7001 125.915 86.2899 126.419C90.6966 126.906 95.1699 128.261 98.5125 131.302C101.855 134.343 103.801 139.348 102.487 143.762" stroke="#414A56" stroke-width="1.5" stroke-linecap="round" stroke-linejoin="round"/>
<path d="M24.3789 130.937C26.4908 129.304 29.0019 128.227 31.5961 127.844" stroke="#414A56" stroke-width="1.5" stroke-linecap="round" stroke-linejoin="round"/>
<path d="M40.792 128.157C42.139 128.366 43.4361 128.904 44.5502 129.704" stroke="#414A56" stroke-width="1.5" stroke-linecap="round" stroke-linejoin="round"/>
<path d="M25.3937 100.041C25.3272 103.621 25.8095 107.218 26.8405 110.659" stroke="#414A56" stroke-width="1.5" stroke-linecap="round" stroke-linejoin="round"/>
<path d="M71.8057 124.369C75.5972 123.274 79.0727 121.05 81.7334 118.026C84.4107 115.003 86.2566 111.197 87.0049 107.166" stroke="#414A56" stroke-width="1.5" stroke-linecap="round" stroke-linejoin="round"/>
<path d="M29.7334 117.366C29.8498 118.269 30.6314 118.895 31.3465 119.434C32.128 120.007 32.9262 120.581 33.7078 121.171" stroke="#414A56" stroke-width="1.5" stroke-linecap="round" stroke-linejoin="round"/>
<path d="M55.9082 127.358C58.0035 127.236 60.0988 127.097 62.1941 126.976" stroke="#414A56" stroke-width="1.5" stroke-linecap="round" stroke-linejoin="round"/>
<path d="M18.043 128.4C17.8933 129.217 18.0097 130.086 18.3756 130.833C18.7414 131.563 19.3401 132.171 20.0718 132.536L20.0053 132.432" stroke="#404955" stroke-width="1.5" stroke-miterlimit="10"/>
<path d="M134.881 120.668C134.066 119.121 134.349 117.14 135.18 115.611C136.012 114.082 137.342 112.9 138.689 111.84C142.797 108.591 147.652 105.932 152.807 106.001C160.108 106.088 166.693 112.031 168.855 119.33C171.017 126.628 169.137 134.83 164.947 141.086C160.756 147.342 154.47 151.808 147.735 154.797C144.426 156.274 140.718 157.421 137.242 156.378C133.767 155.335 130.94 151.339 132.22 147.811" stroke="#414A56" stroke-width="1.5" stroke-linecap="round" stroke-linejoin="round"/>
<path d="M131.389 88.1721L130.025 87.5986C136.96 89.8403 143.229 94.341 147.702 100.319C148.052 100.771 148.384 101.257 148.484 101.831C148.584 102.404 148.368 103.082 147.852 103.29" stroke="#414A56" stroke-width="1.5" stroke-linecap="round" stroke-linejoin="round"/>
<path d="M129.959 119.277C130.142 121.241 131.04 123.135 132.453 124.456" stroke="#414A56" stroke-width="1.5" stroke-linecap="round" stroke-linejoin="round"/>
<path d="M127.78 124.23L130.907 126.871" stroke="#414A56" stroke-width="1.5" stroke-linecap="round" stroke-linejoin="round"/>
<path d="M139.504 74.4094C144.543 71.629 147.902 65.8077 147.902 59.8646C147.902 58.683 147.785 57.4318 148.251 56.3371C148.966 54.6341 150.862 53.8174 152.624 53.5741C155.402 53.1918 158.412 53.9216 160.407 55.9721C162.403 58.0227 163.101 61.5155 161.638 64.0004C161.072 64.9562 160.208 65.9119 160.44 66.9893C160.656 67.9798 161.688 68.5011 162.436 69.1615C164.248 70.7428 164.515 73.9228 163.001 75.8169C163.833 76.6858 163.899 78.0586 163.799 79.2924C163.334 84.7315 160.573 89.9099 156.399 93.2115C157.414 95.4011 157.114 98.1988 155.651 100.093C154.188 101.987 151.643 102.908 149.382 102.352" stroke="#414A56" stroke-width="1.5" stroke-linecap="round" stroke-linejoin="round"/>
<path d="M128.296 79.9527C130.291 78.9796 131.954 77.2245 132.852 75.1218C133.75 73.0192 133.933 70.569 133.318 68.3447C133.118 67.5975 132.636 66.746 131.888 66.8155" stroke="#414A56" stroke-width="1.5" stroke-linecap="round" stroke-linejoin="round"/>
<path d="M149.532 142.215C151.111 138.636 151.76 134.708 152.724 130.903C152.974 129.912 153.257 128.922 153.872 128.122C154.487 127.323 155.502 126.784 156.433 127.062C157.514 127.375 158.146 128.644 158.129 129.825C158.112 131.007 157.614 132.102 157.115 133.162C158.279 132.136 159.775 131.059 161.172 131.632C162.37 132.119 162.885 133.683 162.669 135.004C162.453 136.324 161.688 137.471 160.939 138.549C158.661 141.833 156.316 145.135 153.19 147.533C151.71 148.662 150.064 149.566 148.301 150.087C147.42 150.348 143.761 151.425 143.329 150.018C143.096 149.288 145.956 147.567 146.555 146.924C147.802 145.569 148.783 143.953 149.548 142.233L149.532 142.215Z" fill="#F7B675" stroke="#414A56" stroke-linecap="round" stroke-linejoin="round"/>
</g>
<defs>
<clipPath id="clip0_120_13983">
<rect width="171" height="161" fill="white"/>
</clipPath>
</defs>
</svg>
