<svg width="186" height="167" viewBox="0 0 186 167" fill="none" xmlns="http://www.w3.org/2000/svg">
<path d="M36.2385 29.3438L4.12753 25.4761L1.25391 27.8808L1.98902 32.7406L9.18977 48.5477L15.0205 54.0802L13.7174 56.2326L13.8845 59.1082L19.5649 62.0846H23.6915L23.4576 65.4983L25.3288 66.4063L24.4768 68.172L27.2 70.0218L32.3625 70.5599L35.2862 78.2616L38.5274 80.3468L39.2291 87.8972L43.3391 95.4812L51.0577 97.9868L58.3253 97.6001L62.9031 96.4397L80.8632 87.4936L95.1477 81.2381L111.955 70.0554L117.719 61.7315L117.285 53.727L111.671 47.4546L107.929 41.6363L110.836 35.448L103.852 38.1218L95.5821 27.0736L105.222 11.1488L102.282 5.93587L70.1539 1.27783L63.2539 3.51436L60.2132 8.50873L60.7813 12.2083C60.7813 12.2083 58.0747 22.9369 55.0841 15.5378L50.8071 20.8012L52.6783 12.8136C52.6783 12.8136 49.103 21.558 46.1124 21.7766C46.1124 21.7766 43.4393 21.373 43.9739 18.2957C43.9739 18.2957 38.4272 22.8192 36.2385 29.3606V29.3438Z" fill="#FFF5E3"/>
<path d="M57.1884 133.099L53.8302 128.878L50.1046 128.206L47.682 126.473L43.8394 125.986L34.1493 123.026L26.7982 124.102L19.3134 131.552L17.0078 143.071L18.9124 150.672L23.9914 158.878L32.4786 164.192L41.6006 165.739L51.9925 163.99L57.8232 160.459L59.8281 163.217L67.0288 164.73L85.3398 161.064L87.9628 162.191L89.9844 160.543L87.1776 158.878L89.9844 157.583L92.3735 155.969L104.703 158.878L107.427 161.064L111.386 161.922L113.174 163.771L115.296 163.654L116.883 161.014L123.582 161.585L126.773 160.795L134.409 159.988V162.191L136.363 162.308L138.635 158.71L141.559 158.878L142.378 156.826L148.342 160.072L157.882 161.451L171.665 158.878L179 153.06L184.747 143.39L183.711 131.922L174.355 119.528L163.562 118.099L153.922 123.026L150.213 130.93L143.764 132.544L140.857 118.873L128.361 127.197L108.061 132.78L108.295 149.125L104.302 144.971L96.9345 148.149L89.3495 146.703L90.402 131.535L75.5829 133.839L65.592 131.922L57.9402 128.878L57.1884 133.099Z" fill="#FFF5E3"/>
<path d="M144.517 98.0041L153.371 89.781L157.348 80.0109V69.5345L158.2 65.4483L160.438 64.0693L165.167 64.5234L170.73 68.4751L173.804 73.2173L175.007 81.2553L169.878 90.2015L162.677 93.4133L163.863 98.0041L161.959 100.005L158.617 99.2989L159.169 103.15L147.942 104.159L144.517 98.0041Z" fill="#FFF5E3"/>
<path d="M64.4258 60.1259C65.9208 58.5968 66.0185 56.2535 64.644 54.892C63.2694 53.5306 60.9432 53.6665 59.4482 55.1956C57.9532 56.7248 57.8555 59.068 59.23 60.4295C60.6045 61.7909 62.9308 61.655 64.4258 60.1259Z" fill="#414A56"/>
<path d="M78.5895 54.0341C80.721 54.0315 82.447 52.4559 82.4446 50.5148C82.4423 48.5738 80.7125 47.0024 78.581 47.005C76.4496 47.0076 74.7236 48.5833 74.7259 50.5243C74.7283 52.4653 76.4581 54.0367 78.5895 54.0341Z" fill="#414A56"/>
<path d="M77.3 72.1689C82.5327 69.9592 85.3481 64.7453 83.5882 60.5232C81.8284 56.3011 76.1597 54.6697 70.9269 56.8794C65.6942 59.0891 62.8788 64.303 64.6387 68.5251C66.3985 72.7472 72.0672 74.3786 77.3 72.1689Z" fill="#414A56"/>
<path d="M61.7496 13.3015C59.7448 11.334 59.7615 7.86994 61.3153 5.51569C62.869 3.16145 65.6257 1.86661 68.3991 1.44621C71.1724 1.02581 73.9792 1.37895 76.7693 1.73209C84.0703 2.67378 91.3713 3.59867 98.6723 4.54036C100.878 4.82624 102.097 5.58296 103.668 7.16366C105.957 9.46746 105.439 11.7544 104.202 14.1591C102.715 17.0515 100.594 20.1625 98.7057 22.8026C96.1829 26.3339 92.9418 30.8406 88.8652 31.4796C84.7887 32.1186 76.5521 25.14 73.1773 22.7858C69.8025 20.4315 67.7141 15.9584 68.8836 11.9899" stroke="#404955" stroke-width="1.5" stroke-linecap="round" stroke-linejoin="round"/>
<path d="M81.3305 54.6521C80.9796 52.8191 82.3496 50.8349 84.1707 50.4985" stroke="#404955" stroke-width="1.5" stroke-linecap="round" stroke-linejoin="round"/>
<path d="M85.0563 53.3237C84.2543 51.8271 84.672 49.7755 86.0086 48.7329" stroke="#404955" stroke-width="1.5" stroke-linecap="round" stroke-linejoin="round"/>
<path d="M72.5596 78.4468C72.8436 79.2203 73.161 80.0275 73.7458 80.616C74.3305 81.2046 75.3162 81.4736 76.0179 81.0364C77.0538 80.3806 76.9702 78.5813 78.0896 78.0432C79.1589 77.5219 80.3117 78.6149 81.4979 78.7494C82.2664 78.8335 83.0683 78.4467 83.486 77.8077C83.9037 77.1687 83.9538 76.2775 83.5862 75.588C84.5553 75.6721 86.2928 75.1844 87.2451 75.2517C86.6938 74.1923 86.794 72.8134 87.4957 71.8381C88.1974 70.8627 89.4838 70.3582 90.6533 70.5768C90.5865 69.5511 90.5364 68.5253 90.4696 67.4995" stroke="#404955" stroke-width="1.5" stroke-linecap="round" stroke-linejoin="round"/>
<path d="M89.1826 65.4482C90.6194 66.474 92.4572 66.8944 94.1947 66.6254" stroke="#404955" stroke-width="1.5" stroke-linecap="round" stroke-linejoin="round"/>
<path d="M36.9062 29.3439C37.3908 24.6858 40.2477 20.3305 44.3242 18.0771C44.0569 19.5906 44.5247 21.2217 45.5438 22.3484C47.2312 20.7004 48.5177 18.632 49.3029 16.3955" stroke="#404955" stroke-width="1.5" stroke-linecap="round" stroke-linejoin="round"/>
<path d="M52.3936 13.1167C53.0452 15.7568 52.3936 18.6828 50.6895 20.8016C52.9449 20.0113 54.6824 17.9093 55.0667 15.5382" stroke="#404955" stroke-width="1.5" stroke-linecap="round" stroke-linejoin="round"/>
<path d="M103.417 38.8956C106.19 38.4079 108.813 37.1131 110.902 35.2129C110.367 37.6008 109.114 39.8373 107.343 41.5357C108.797 41.8216 110.233 42.0906 111.687 42.3765" stroke="#404955" stroke-width="1.5" stroke-linecap="round" stroke-linejoin="round"/>
<path d="M36.539 76.8828C35.6702 78.9512 33.8825 80.5992 31.7607 81.3054" stroke="#404955" stroke-width="1.5" stroke-linecap="round" stroke-linejoin="round"/>
<path d="M38.5103 79.9771C37.7751 82.2136 36.071 84.097 33.9492 85.0723" stroke="#404955" stroke-width="1.5" stroke-linecap="round" stroke-linejoin="round"/>
<path d="M38.5103 30.4537L8.27048 25.5266C6.04843 25.1735 3.35859 24.9717 1.98861 26.7542C0.718873 28.4022 1.32033 30.7564 1.98861 32.7239C3.32518 36.7597 4.67845 40.8292 6.70001 44.5792C8.72157 48.3292 11.4448 51.7933 15.0368 54.0466C13.6167 55.0219 13.316 57.1408 14.0845 58.671C14.8531 60.2013 16.4569 61.1766 18.1277 61.5802C19.7984 61.9838 21.5192 61.8997 23.2233 61.8156" stroke="#404955" stroke-width="1.5" stroke-linecap="round" stroke-linejoin="round"/>
<path d="M20.4336 66.6083L27.6344 65.2798C27.8014 65.7843 27.4005 66.3224 26.9159 66.5578C26.4314 66.7932 25.8968 66.8437 25.4123 67.0287C24.9278 67.2136 24.4433 67.6508 24.4767 68.189C24.5101 68.6094 24.8443 68.9289 25.1617 69.1811C27.0496 70.6441 29.6225 71.1654 31.9281 70.5432" stroke="#404955" stroke-width="1.5" stroke-linecap="round" stroke-linejoin="round"/>
<path d="M7.28516 31.7485C7.76966 34.1028 10.1588 35.5153 12.3641 36.4234C15.9394 37.92 19.6985 38.929 23.5412 39.4671" stroke="#404955" stroke-width="1.5" stroke-linecap="round" stroke-linejoin="round"/>
<path d="M17.2422 42.9146L26.0301 44.1589C25.0778 44.3607 24.0921 44.5793 23.3403 45.2015C22.5885 45.8237 22.2209 47.0008 22.7722 47.808C23.2233 48.447 24.0754 48.632 24.8439 48.7329C27.3333 49.0524 29.856 49.0692 32.3454 48.7665" stroke="#404955" stroke-width="1.5" stroke-linecap="round" stroke-linejoin="round"/>
<path d="M28.1182 53.1889C31.0085 53.3739 33.9489 52.8526 36.6054 51.6587" stroke="#404955" stroke-width="1.5" stroke-linecap="round" stroke-linejoin="round"/>
<path d="M144.517 97.6674C153.739 92.7067 159.252 81.5576 157.598 71.1653C157.331 69.4669 156.913 67.6171 157.732 66.1037C158.952 63.8504 162.176 63.7158 164.599 64.5062C170.864 66.5577 175.341 73.1328 174.99 79.7583C174.639 86.3838 169.46 92.4376 163.011 93.7829C164.431 94.9936 164.599 97.4151 163.362 98.8277C162.126 100.24 159.72 100.358 158.35 99.0799" stroke="#404955" stroke-width="1.5" stroke-linecap="round" stroke-linejoin="round"/>
<path d="M63.2872 55.2071C63.0032 54.9716 62.6022 55.0221 62.4185 55.2743C62.2514 55.4929 62.3015 55.8293 62.4686 56.031C62.6523 56.2328 62.9865 56.3337 63.2371 56.1656C63.4209 56.0479 63.5044 55.8124 63.471 55.577" fill="white"/>
<path d="M79.2755 48.094C79.0416 47.909 78.6741 47.9258 78.4736 48.1444C78.2731 48.363 78.2731 48.733 78.4736 48.9516C78.6741 49.1702 79.0416 49.2038 79.2755 49.0188C79.4426 48.8843 79.5262 48.6657 79.4927 48.4639C79.4593 48.2621 79.3257 48.0603 79.1419 47.9763" fill="white"/>
<path d="M75.4662 58.0659C75.0652 58.3013 74.8146 58.7722 74.8648 59.243C74.9149 59.7643 75.3493 60.2184 75.8505 60.3193C76.4519 60.437 77.1035 60.067 77.2873 59.4785C77.6715 58.335 76.4352 57.4942 75.4495 58.0659H75.4662Z" fill="white"/>
<path d="M39.6631 87.6955C39.897 92.2527 43.7229 96.0363 48.05 97.3816C52.3772 98.7268 57.0886 98.071 61.4491 96.8603C68.3659 94.9432 74.915 91.6641 80.5955 87.2583" stroke="#404955" stroke-width="1.5" stroke-linecap="round" stroke-linejoin="round"/>
<path d="M83.7861 86.2999C91.321 83.458 98.5385 79.7753 105.238 75.3191C108.429 73.2003 111.537 70.8796 113.926 67.8696C116.315 64.8595 117.919 61.0927 117.702 57.2418C117.484 53.391 115.195 49.5906 111.637 48.1948" stroke="#404955" stroke-width="1.5" stroke-linecap="round" stroke-linejoin="round"/>
<path d="M116.883 71.9224C124.886 78.1443 132.955 84.4167 139.538 92.1352C142.695 95.8348 145.886 99.7361 147.941 104.159" stroke="#404955" stroke-width="1.5" stroke-linecap="round" stroke-linejoin="round"/>
<path d="M63.0197 104.276C58.0911 120.218 56.2533 137.118 57.64 153.749" stroke="#404955" stroke-width="1.5" stroke-linecap="round" stroke-linejoin="round"/>
<path d="M91.0877 129.147C88.9659 136.58 89.0328 144.651 91.2882 152.05C91.6558 153.278 92.0901 154.556 91.7894 155.8C91.4887 157.045 90.0519 158.071 88.9492 157.465" stroke="#404955" stroke-width="1.5" stroke-linecap="round" stroke-linejoin="round"/>
<path d="M59.2937 156.305C57.9571 157.129 57.4225 158.945 57.8402 160.459C58.2579 161.972 59.4942 163.183 60.9143 163.856C62.3344 164.528 63.9383 164.713 65.492 164.747C68.6163 164.78 71.7071 164.175 74.7645 163.553C77.3374 163.032 79.927 162.527 82.4999 162.006" stroke="#404955" stroke-width="1.5" stroke-linecap="round" stroke-linejoin="round"/>
<path d="M82.7344 157.97C83.2022 160.374 85.5412 162.258 87.9804 162.191" stroke="#404955" stroke-width="1.5" stroke-linecap="round" stroke-linejoin="round"/>
<path d="M86.5938 158.171C86.978 160.038 89.1833 161.266 90.9543 160.643" stroke="#404955" stroke-width="1.5" stroke-linecap="round" stroke-linejoin="round"/>
<path d="M106.541 128.878C108.529 137.017 108.964 145.526 107.828 153.833C105.823 153.513 103.751 155.195 103.634 157.23C103.517 159.264 105.405 161.165 107.427 161.064" stroke="#404955" stroke-width="1.5" stroke-linecap="round" stroke-linejoin="round"/>
<path d="M110.685 159.651C110.969 160.828 111.269 162.056 112.055 162.981C112.84 163.906 114.293 164.36 115.279 163.653C115.947 163.199 116.231 162.342 116.231 161.518C116.231 160.694 115.947 159.92 115.697 159.164C117.117 161.636 120.575 162.678 123.115 161.383" stroke="#404955" stroke-width="1.5" stroke-linecap="round" stroke-linejoin="round"/>
<path d="M126.773 160.375C129.129 161.316 131.886 161.216 134.175 160.089" stroke="#404955" stroke-width="1.5" stroke-linecap="round" stroke-linejoin="round"/>
<path d="M139.338 114.248C143.381 125.33 144.701 137.404 143.13 149.108" stroke="#404955" stroke-width="1.5" stroke-linecap="round" stroke-linejoin="round"/>
<path d="M139.287 147.763C140.691 149.545 142.144 151.462 142.361 153.716C142.428 154.472 142.361 155.246 142.161 155.969" stroke="#404955" stroke-width="1.5" stroke-linecap="round" stroke-linejoin="round"/>
<path d="M142.378 156.826C147.022 160.879 155.476 162.308 162.694 160.98C169.911 159.651 175.876 155.901 179.651 151.445C186.585 143.272 186.435 132.443 179.267 124.354C176.594 121.328 172.551 118.519 167.455 118.132C161.959 117.712 156.746 120.319 153.939 123.615C151.132 126.91 150.264 130.795 149.445 134.579" stroke="#404955" stroke-width="1.5" stroke-linecap="round" stroke-linejoin="round"/>
<path d="M56.3538 160.509C48.8523 166.546 37.6419 167.454 29.2883 162.695C20.9348 157.936 15.9227 147.796 17.2091 138.211C18.1447 131.266 22.9062 124.338 29.7896 123.211C34.2838 122.471 38.7446 124.254 43.0383 125.75C44.6756 126.322 46.4799 126.642 48.2008 126.457" stroke="#404955" stroke-width="1.5" stroke-linecap="round" stroke-linejoin="round"/>
<path d="M91.7891 155.952L103.818 158.878" stroke="#404955" stroke-width="1.5" stroke-linecap="round" stroke-linejoin="round"/>
<path d="M61.4658 97.8358C63.2869 102.427 66.1772 106.58 69.8194 109.876C71.7908 111.659 74.4305 113.273 76.9366 112.432C79.5429 111.558 80.6623 108.497 81.1635 105.79C82.2494 99.8873 82.049 93.7495 80.5954 87.9312" stroke="#404955" stroke-width="1.5" stroke-linecap="round" stroke-linejoin="round"/>
<path d="M60.0958 114.349C57.4059 117.897 55.351 121.445 52.6611 124.994C62.9193 133.637 77.8721 136.227 90.4024 131.535" fill="white"/>
<path d="M60.0958 114.349C57.4059 117.897 55.351 121.445 52.6611 124.994C62.9193 133.637 77.8721 136.227 90.4024 131.535" stroke="#404955" stroke-width="1.5" stroke-linecap="round" stroke-linejoin="round"/>
<path d="M83.6191 86.3671C88.3807 91.9163 94.1947 96.5408 100.644 99.9208C103.968 101.67 108.145 103.032 111.303 101.031C113.709 99.5004 114.711 96.5071 115.196 93.682C116.515 85.8962 115.129 77.69 111.303 70.7954" stroke="#404955" stroke-width="1.5" stroke-linecap="round" stroke-linejoin="round"/>
<path d="M85.5575 100.274C87.6459 104.394 89.2832 109.54 88.1137 114.013C87.2617 117.275 84.7055 119.865 81.7817 121.513C78.858 123.161 75.55 123.951 72.2754 124.674C73.896 121.664 74.2134 118.116 74.3471 114.685C74.4807 111.255 74.4306 107.757 75.4497 104.495C76.4689 101.233 78.457 99.1979 81.2137 97.2976C82.7674 96.2214 84.2878 91.9838 86.4764 92.8582C86.9275 93.0264 87.2282 93.4468 87.5123 93.8335C88.6818 95.4311 89.8512 97.0286 91.0207 98.6093C89.7844 99.5005 88.0135 100.224 86.7939 101.115C85.0897 100.089 83.6696 98.5757 82.7507 96.7932" fill="#F7B675"/>
<path d="M85.5575 100.274C87.6459 104.394 89.2832 109.54 88.1137 114.013C87.2617 117.275 84.7055 119.865 81.7817 121.513C78.858 123.161 75.55 123.951 72.2754 124.674C73.896 121.664 74.2134 118.116 74.3471 114.685C74.4807 111.255 74.4306 107.757 75.4497 104.495C76.4689 101.233 78.457 99.1979 81.2137 97.2976C82.7674 96.2214 84.2878 91.9838 86.4764 92.8582C86.9275 93.0264 87.2282 93.4468 87.5123 93.8335C88.6818 95.4311 89.8512 97.0286 91.0207 98.6093C89.7844 99.5005 88.0135 100.224 86.7939 101.115C85.0897 100.089 83.6696 98.5757 82.7507 96.7932" stroke="#404955" stroke-width="1.5" stroke-linecap="round" stroke-linejoin="round"/>
<path d="M98.5388 89.7976C102.298 90.7729 105.506 93.6989 106.842 97.3816C108.73 102.544 106.959 108.262 105.121 113.458C104.888 114.097 104.637 114.786 104.086 115.173C103.35 115.694 102.315 115.543 101.563 115.055C100.811 114.568 100.293 113.794 99.7919 113.037C96.2834 107.723 92.9754 102.258 89.8679 96.6921C89.3499 95.7504 87.9131 94.0016 87.9298 92.8749C87.9465 91.6641 89.3165 91.0924 90.2855 90.6384C92.8417 89.4276 95.8156 89.0913 98.5388 89.8144V89.7976Z" fill="#F7B675" stroke="#404955" stroke-width="1.5" stroke-linecap="round" stroke-linejoin="round"/>
<path d="M103.885 119.31C102.532 123.934 102.281 128.878 103.117 133.637C110.702 132.393 118.337 131.131 125.521 128.374C132.705 125.616 139.455 121.21 143.765 114.803C139.989 111.322 136.213 107.841 132.438 104.36" fill="white"/>
<path d="M103.885 119.31C102.532 123.934 102.281 128.878 103.117 133.637C110.702 132.393 118.337 131.131 125.521 128.374C132.705 125.616 139.455 121.21 143.765 114.803C139.989 111.322 136.213 107.841 132.438 104.36" stroke="#404955" stroke-width="1.5" stroke-linecap="round" stroke-linejoin="round"/>
<path d="M105.906 123.362C117.568 122.975 129.43 117.981 138.702 110.851" stroke="#404955" stroke-width="1.5" stroke-linecap="round" stroke-linejoin="round"/>
<path d="M58.9932 120.622C67.7811 126.221 78.6574 128.391 88.8988 126.574" stroke="#404955" stroke-width="1.5" stroke-linecap="round" stroke-linejoin="round"/>
<path d="M24.6264 146.669C23.5738 147.275 23.1394 148.62 23.3232 149.814C23.507 151.008 24.192 152.067 24.9438 153.009C28.0012 156.826 32.5121 159.433 37.3404 160.122C38.6603 160.307 40.1138 160.341 41.1998 159.551C42.5029 158.609 42.8705 156.826 42.8705 155.212C42.8705 151.681 41.5506 148.166 39.2618 145.492C38.0756 144.113 36.5886 142.92 34.8177 142.482C33.0467 142.045 31.0252 142.432 29.8056 143.794C28.7029 145.038 29.1874 146.3 28.8365 147.695C27.6336 146.821 26.1634 145.761 24.6096 146.653L24.6264 146.669Z" fill="#F7B675" stroke="#404955" stroke-width="1.5" stroke-linecap="round" stroke-linejoin="round"/>
<path d="M167.122 132.241C165.818 132.897 165.25 134.444 164.866 135.857C163.763 140.061 163.346 144.433 163.646 148.771C163.713 149.847 163.847 150.941 164.281 151.916C164.716 152.891 165.518 153.782 166.537 154.051C168.458 154.573 170.279 152.992 171.649 151.529C173.754 149.293 175.876 147.039 177.447 144.399C179.017 141.759 180.019 138.665 179.669 135.621C179.502 134.141 178.683 132.426 177.196 132.359C174.723 132.241 174.072 135.554 172.618 136.832C171.85 134.663 170.379 130.576 167.088 132.224L167.122 132.241Z" fill="#F7B675" stroke="#404955" stroke-width="1.5" stroke-linecap="round" stroke-linejoin="round"/>
<path d="M60.6637 109.674C54.6324 112.583 47.8827 113.979 41.1832 113.693C40.0972 118.183 42.9375 123.278 47.3147 124.674C48.2837 127.516 51.2576 129.517 54.2314 129.349" stroke="#404955" stroke-width="1.5" stroke-linecap="round" stroke-linejoin="round"/>
<path d="M140.858 102.443C147.909 105.353 156.062 105.453 163.179 102.712C165.518 101.821 168.275 100.661 170.363 102.04C171.666 102.897 172.268 104.545 172.268 106.109C172.268 107.673 171.75 109.187 171.249 110.666C173.12 109.977 175.425 110.986 176.211 112.836C176.996 114.685 175.091 118.637 173.304 119.512" stroke="#404955" stroke-width="1.5" stroke-linecap="round" stroke-linejoin="round"/>
<path d="M90.7363 147.09C95.0969 149.36 100.944 148.233 104.152 144.5C104.637 146.636 106.391 148.418 108.496 148.939" stroke="#404955" stroke-width="1.5" stroke-linecap="round" stroke-linejoin="round"/>
<path d="M143.966 132.544L146.422 131.938" stroke="#404955" stroke-width="1.5" stroke-linecap="round" stroke-linejoin="round"/>
<path d="M54.3652 129.567C55.0168 130.694 55.919 131.669 56.9715 132.392" stroke="#404955" stroke-width="1.5" stroke-linecap="round" stroke-linejoin="round"/>
<path d="M134.409 159.988C134.025 160.761 134.409 161.854 135.211 162.19C136.08 162.56 137.099 162.073 137.667 161.333C138.235 160.593 138.435 159.634 138.636 158.71C139.254 159.281 140.307 159.332 140.975 158.827C141.643 158.323 141.877 157.297 141.493 156.523" stroke="#404955" stroke-width="1.5" stroke-linecap="round" stroke-linejoin="round"/>
<path d="M155.561 100.005C156.112 101.333 157.298 102.376 158.668 102.78" stroke="#404955" stroke-width="1.5" stroke-linecap="round" stroke-linejoin="round"/>
<path d="M153.371 101.754C153.405 102.376 153.872 102.965 154.457 103.15" stroke="#404955" stroke-width="1.5" stroke-linecap="round" stroke-linejoin="round"/>
<path d="M80.8623 86.9726L84.0199 86.0981" stroke="#404955" stroke-width="1.5" stroke-linecap="round" stroke-linejoin="round"/>
</svg>
