<svg width="205" height="161" viewBox="0 0 205 161" fill="none" xmlns="http://www.w3.org/2000/svg">
<g clip-path="url(#clip0_108_10758)">
<path d="M79.9406 22.284C79.9406 22.284 67.6485 11.1627 46.428 13.7929L9.19866 1.55322L4.79675 3.33429L1.55762 15.8225L3.67551 28.5799L9.69699 37.2367L15.6562 43.0355C15.6562 43.0355 11.628 52.6035 12.9984 61.0325C14.3688 69.4615 12.2302 60.1213 12.2302 60.1213C12.2302 60.1213 -1.63999 79.8165 29.4848 93.1952C60.6096 106.574 68.9566 100.382 68.9566 100.382L113.682 61.6331L114.616 53.2662L124.084 47.8402L125.641 38.997L104.4 17.7692L91.1115 13.1923L79.9613 22.2633L79.9406 22.284Z" fill="#FFF5E3"/>
<path d="M61.0455 96.0946C60.0696 96.9023 58.5746 98.352 57.4741 100.609C55.6469 104.317 56.0829 107.817 56.3113 109.142C57.661 112.518 59.0314 115.914 60.381 119.29L60.1111 128.03L50.7882 134.885L44.9328 138.012L43.251 141.201L45.182 146.544L61.5646 155.18L69.1018 155.864L86.8548 150.976L89.3672 147.828L94.8072 146.689L100.912 152.343L104.006 157.003L107.265 157.748L115.343 156.34L118.789 155.947L130.479 159.447L137.747 158.37L151.181 147.269L151.347 142.837L154.067 144.743L160.109 142.257L160.898 138.012L168.788 129.541L171.467 117.654L169.266 109.349C169.266 109.349 176.824 107.071 177.322 102.888C177.364 102.535 177.364 102.183 177.281 101.79C176.429 96.9023 177.343 102.163 177.343 102.163L181.6 101.914L184.112 96.0946L191.525 98.5591L200.162 92.8846C200.162 92.8846 203.381 81.5976 203.381 81.3905C203.381 81.1627 200.806 70.0621 200.806 70.0621L194.971 67.5562L191.4 71.7603L180.001 82.3432L168.726 84.497L158.095 82.1361L158.531 75.9437L154.046 74.5976L151.326 75.2396C151.326 75.2396 147.277 66.4378 137.186 64.8224L133.054 63.3727L131.933 59.6035L125.309 62.5858L110.359 60.1627L60.9624 96.1153L61.0455 96.0946Z" fill="#FFF5E3"/>
<path d="M63.4089 69.5137C64.2894 63.9437 59.3558 58.5401 52.3893 57.4446C45.4229 56.349 39.0617 59.9763 38.1812 65.5464C37.3007 71.1164 42.2343 76.52 49.2008 77.6155C56.1672 78.7111 62.5284 75.0838 63.4089 69.5137Z" fill="#414A56"/>
<path d="M43.4442 56.6283C46.0174 56.0007 47.6419 53.6095 47.0727 51.2874C46.5034 48.9653 43.956 47.5916 41.3828 48.2192C38.8096 48.8467 37.1851 51.2379 37.7544 53.56C38.3236 55.8821 40.8711 57.2558 43.4442 56.6283Z" fill="#414A56"/>
<path d="M68.7166 58.2955C69.9743 56.2605 69.1657 53.4869 66.9107 52.1005C64.6557 50.7141 61.8082 51.2399 60.5506 53.2748C59.2929 55.3098 60.1015 58.0834 62.3565 59.4698C64.6115 60.8562 67.459 60.3304 68.7166 58.2955Z" fill="#414A56"/>
<path d="M36.4612 76.731C36.2951 77.3315 36.129 77.9528 36.1705 78.5742C36.212 79.1955 36.4612 79.8375 36.9803 80.1895C37.707 80.6659 38.6829 80.4588 39.4927 80.1688C40.3025 79.8789 41.1746 79.5061 42.0259 79.7339C41.839 80.6245 42.7526 81.4321 43.6454 81.515C44.5383 81.5978 45.4311 81.1629 46.2409 80.7487C46.0748 81.3493 46.5731 81.9706 47.1545 82.1777C47.7359 82.3848 48.3796 82.302 49.0025 82.1984C49.8953 82.0742 50.7674 81.9292 51.6602 81.8049" stroke="#414A56" stroke-linecap="round" stroke-linejoin="round"/>
<path d="M52.1582 80.376C52.4904 82.0742 53.1133 83.7103 54.0062 85.2014" stroke="#414A56" stroke-linecap="round" stroke-linejoin="round"/>
<path d="M56.7266 81.3906C57.3079 82.4675 58.097 83.4202 59.0313 84.2072" stroke="#414A56" stroke-linecap="round" stroke-linejoin="round"/>
<path d="M63.8691 62.006C65.3641 59.4172 68.4164 57.8018 71.4064 57.9882" stroke="#414A56" stroke-linecap="round" stroke-linejoin="round"/>
<path d="M80.3975 22.8848C83.9273 18.3493 88.2254 13.4204 93.9562 13.2133C99.1263 13.0476 103.487 16.8375 107.245 20.3789C111.501 24.3967 115.758 28.4144 120.015 32.4322C122.901 35.1452 125.974 38.2931 126.078 42.2488C126.161 45.6452 123.877 48.7517 121.011 50.6156C118.146 52.4795 114.761 53.2872 111.439 54.0742C108.117 54.8612 104.712 55.6689 101.307 55.4825C97.9013 55.2961 94.3714 53.9499 92.3366 51.2162C90.3433 48.5653 90.0318 45.0446 90.011 41.731C89.9903 35.4766 90.8208 29.2014 92.4612 23.1541" stroke="#414A56" stroke-width="1.5" stroke-linecap="round" stroke-linejoin="round"/>
<path d="M46.4278 13.8137C43.3133 11.7634 39.6796 10.645 36.1083 9.54739C28.1142 7.1036 20.0994 4.6391 12.1054 2.19532C10.4651 1.69827 8.61711 1.20123 7.0806 1.96751C5.91783 2.54739 5.21187 3.72786 4.63048 4.86691C1.30829 11.4734 0.664617 19.364 2.9071 26.4054C5.14958 33.4468 10.2159 39.5563 16.7357 43.0356" stroke="#414A56" stroke-width="1.5" stroke-linecap="round" stroke-linejoin="round"/>
<path d="M9.98785 10.355C8.82508 13.5029 8.94966 17.0857 10.3408 20.1508C11.732 23.2159 14.3482 25.6597 17.5043 26.8609" stroke="#414A56" stroke-width="1.5" stroke-linecap="round" stroke-linejoin="round"/>
<path d="M12.209 26.4468C13.4756 28.5592 15.8634 29.9468 18.3343 29.9882C16.9846 30.4438 15.635 30.8787 14.2854 31.3344C16.1541 33.4675 19.1441 34.5444 21.9472 34.0681" stroke="#414A56" stroke-width="1.5" stroke-linecap="round" stroke-linejoin="round"/>
<path d="M59.9032 120.036C60.8584 125.337 58.0968 131.095 53.3627 133.663C49.7083 135.651 44.5173 136.479 43.3961 140.497C42.8147 142.61 43.7283 144.908 45.1818 146.524C46.6352 148.139 48.6078 149.216 50.5388 150.272C55.439 152.944 60.5677 155.657 66.1531 155.947C71.1156 156.195 75.9328 154.497 80.5839 152.799C83.9268 151.598 87.4359 150.272 89.6576 147.497C91.8793 144.722 92.087 140.042 89.1593 138.053" stroke="#414A56" stroke-width="1.5" stroke-linecap="round" stroke-linejoin="round"/>
<path d="M103.797 133.911C104.586 137.95 102.531 141.947 101.368 145.902C100.205 149.858 100.413 155.035 104.026 157.024C107.659 159.012 112.02 156.485 116.152 156.299C121.343 156.05 126.139 159.592 131.33 159.467C135.109 159.384 138.556 157.376 141.795 155.429C144.993 153.524 148.315 151.473 150.121 148.222C151.928 144.97 151.533 140.186 148.294 138.364" stroke="#414A56" stroke-width="1.5" stroke-linecap="round" stroke-linejoin="round"/>
<path d="M151.223 76.0269C152.821 74.2044 155.936 73.9973 157.742 75.592C159.549 77.1867 159.757 80.2932 158.158 82.0949C168.228 87.0032 181.579 83.7932 188.286 74.8464C190.383 72.0506 192.501 68.4056 196.01 68.302C199.955 68.1985 202.281 72.7133 202.966 76.5861C204.004 82.5091 203.381 89.0949 199.54 93.734C195.698 98.373 187.995 100.009 183.469 96.0121C183.552 98.7665 181.725 101.5 179.129 102.453C176.534 103.406 173.357 102.556 171.613 100.423C171.177 101.894 169.723 102.991 168.187 102.991C166.65 102.991 165.176 101.935 164.698 100.485" stroke="#414A56" stroke-width="1.5" stroke-linecap="round" stroke-linejoin="round"/>
<path d="M169.723 111.316C171.82 115.893 172.09 121.257 170.47 126.021C168.85 130.784 165.321 134.864 160.856 137.183C161.355 139.524 160.358 142.133 158.427 143.541C156.496 144.95 153.693 145.115 151.617 143.935C151.554 143.562 151.492 143.189 151.43 142.837" stroke="#414A56" stroke-width="1.5" stroke-linecap="round" stroke-linejoin="round"/>
<path d="M56.291 109.122C56.3118 110.53 56.8724 111.917 57.8483 112.953C58.8242 113.988 60.1738 114.651 61.565 114.775" stroke="#414A56" stroke-width="1.5" stroke-linecap="round" stroke-linejoin="round"/>
<path d="M56.1035 114.961C57.5777 117.095 59.841 118.648 62.3534 119.269" stroke="#414A56" stroke-width="1.5" stroke-linecap="round" stroke-linejoin="round"/>
<path d="M142.335 68.5917C145.533 68.9438 148.876 67.5148 150.807 64.9468" stroke="#414A56" stroke-width="1.5" stroke-linecap="round" stroke-linejoin="round"/>
<path d="M145.18 71.5121C148.232 72.444 151.575 72.3819 154.586 71.3257" stroke="#414A56" stroke-width="1.5" stroke-linecap="round" stroke-linejoin="round"/>
<path d="M164.407 107.816C167.75 109.701 171.986 109.95 175.516 108.458" stroke="#414A56" stroke-width="1.5" stroke-linecap="round" stroke-linejoin="round"/>
<path d="M95.7628 143.272C95.2022 145.903 93.2504 148.181 90.7588 149.175" stroke="#414A56" stroke-width="1.5" stroke-linecap="round" stroke-linejoin="round"/>
<path d="M97.5268 146.399C97.6722 148.139 96.8416 149.92 95.4297 150.956" stroke="#414A56" stroke-width="1.5" stroke-linecap="round" stroke-linejoin="round"/>
<path d="M150.724 83.0059C149.499 84.5177 149.292 86.7544 150.205 88.4526C151.119 90.1508 153.091 91.2278 155.022 91.0621C153.839 92.1804 153.569 94.1272 154.399 95.5147C155.23 96.9023 157.057 97.6065 158.614 97.1301" stroke="#414A56" stroke-width="1.5" stroke-linecap="round" stroke-linejoin="round"/>
<path d="M162.87 96.0947C161.874 98.3935 159.86 100.237 157.472 101.024" stroke="#414A56" stroke-width="1.5" stroke-linecap="round" stroke-linejoin="round"/>
<path d="M85.7334 72.734C95.6584 62.2133 111.75 57.947 125.6 62.1304" stroke="#414A56" stroke-width="1.5" stroke-linecap="round" stroke-linejoin="round"/>
<path d="M123.938 66.2929L123.232 65.2367C124.997 63.1243 127.302 61.4675 129.877 60.4527C130.604 60.1627 131.476 59.9349 132.161 60.3077C132.971 60.7633 133.157 61.8817 132.825 62.7308C132.493 63.5799 131.808 64.2426 131.123 64.8639C133.012 63.4556 135.836 63.4142 137.767 64.7604C137.601 64.7604 137.414 64.7604 137.248 64.7604" stroke="#414A56" stroke-width="1.5" stroke-linecap="round" stroke-linejoin="round"/>
<path d="M13.1024 59.645C11.5035 62.4823 8.01525 64.1391 4.79688 63.6006" stroke="#414A56" stroke-width="1.5" stroke-linecap="round" stroke-linejoin="round"/>
<path d="M12.9984 65.7754C11.4411 67.9707 9.0325 69.5239 6.39551 70.0417" stroke="#414A56" stroke-width="1.5" stroke-linecap="round" stroke-linejoin="round"/>
<path d="M43.9782 52.4171C44.8382 52.4171 45.5355 51.7216 45.5355 50.8638C45.5355 50.006 44.8382 49.3105 43.9782 49.3105C43.1181 49.3105 42.4209 50.006 42.4209 50.8638C42.4209 51.7216 43.1181 52.4171 43.9782 52.4171Z" fill="white"/>
<path d="M65.6754 55.6275C66.5355 55.6275 67.2327 54.9321 67.2327 54.0743C67.2327 53.2164 66.5355 52.521 65.6754 52.521C64.8154 52.521 64.1182 53.2164 64.1182 54.0743C64.1182 54.9321 64.8154 55.6275 65.6754 55.6275Z" fill="white"/>
<path d="M57.8688 64.7603C58.7289 64.7603 59.4261 64.0649 59.4261 63.2071C59.4261 62.3492 58.7289 61.6538 57.8688 61.6538C57.0087 61.6538 56.3115 62.3492 56.3115 63.2071C56.3115 64.0649 57.0087 64.7603 57.8688 64.7603Z" fill="white"/>
</g>
<defs>
<clipPath id="clip0_108_10758">
<rect width="205" height="161" fill="white"/>
</clipPath>
</defs>
</svg>
