<svg width="122" height="73" viewBox="0 0 122 73" fill="none" xmlns="http://www.w3.org/2000/svg">
<g clip-path="url(#clip0_360_8743)">
<path d="M35.6798 9.15999C35.6398 9.09999 31.4298 4.27999 31.4298 4.27999L23.7298 0.929993H16.1398L8.9898 3.76999L3.9298 9.44999L1.1198 16.25L1.7598 23.51L3.9998 26.19L6.7198 26.55L11.8398 24.65C11.8398 24.65 17.1898 20.53 17.2798 20.41C17.3698 20.29 18.9398 14.89 18.9398 14.89L24.1398 12.89L30.4898 13.75L33.0298 15.78L27.8698 19.02L23.1798 23.34C23.1798 23.34 14.1498 28.44 22.7498 39.8C31.3498 51.16 22.7298 40.08 22.7298 40.08C22.7298 40.08 21.4798 43.92 19.2398 43.94C16.9998 43.96 19.5098 44.07 19.5098 44.07L6.8798 38.27L4.4098 37.98L1.7598 39.84L0.549805 43.53C0.549805 43.53 0.829805 49.23 1.1098 49.27C1.3898 49.31 5.5098 55.94 5.5098 55.94L11.8098 59.73L19.7498 60.49L22.3598 66.13L28.0998 70.17L32.4798 69.84C32.4798 69.84 34.3398 70.3 33.5698 71.47L33.7598 69.4L35.6598 68.99C35.6598 68.99 35.9298 70.79 35.9298 70.73C35.9298 70.67 37.6798 68.2 37.6798 68.2L38.6698 67.62L42.0398 68.72L48.9898 67.86L57.1698 64.21L62.9198 64.64L68.8998 62.41L85.5798 58.72L100.21 52.52L106.39 48.34C106.39 48.34 114.18 48.45 114.36 48.4C114.54 48.35 117.31 47.15 117.31 47.15L119.95 44.44L121.05 41.19L119.16 37.06L114.29 32.4L108.38 29.76L104.24 29.42L99.3598 31.29L95.4198 26.14L90.7298 21.81L87.9798 20.4L89.0098 18.81L88.6798 17.51C88.6798 17.51 90.3398 16.82 90.4198 16.54C90.4998 16.26 90.2898 13.24 90.2898 13.24L88.1598 10.27L85.3798 9.30999L84.1498 8.01999L82.6998 8.16999C82.6998 8.16999 81.6898 7.61999 81.6198 7.62999C81.5498 7.63999 79.9998 8.16999 79.9998 8.16999L79.6398 8.57999L77.8798 9.53999L76.1198 11.59L77.0498 17.55L66.8398 19.41L64.3498 20.39L64.2098 15.42L63.6498 11.8L61.5198 6.10999L58.8498 2.69999L56.4598 2.30999L53.9798 3.79999L51.9698 12.56L50.0598 10.55C50.0598 10.55 49.2398 11.26 49.4298 12.29L46.4098 9.52999L44.4998 10.02L41.5798 7.04999L38.4698 6.69999L37.6098 9.05999L35.6798 9.16999V9.15999Z" fill="#A0BCEF"/>
<path d="M34.1373 31.3783C34.828 30.7261 35.0835 29.8752 34.7081 29.4776C34.3327 29.0801 33.4685 29.2866 32.7779 29.9388C32.0872 30.591 31.8317 31.4419 32.2071 31.8395C32.5825 32.237 33.4467 32.0305 34.1373 31.3783Z" fill="#404955"/>
<path d="M39.7448 33.106C40.217 32.8304 40.2117 31.9419 39.7328 31.1215C39.254 30.301 38.483 29.8594 38.0108 30.135C37.5386 30.4106 37.5439 31.2991 38.0228 32.1195C38.5016 32.9399 39.2726 33.3816 39.7448 33.106Z" fill="#404955"/>
<path d="M38.2199 33.7C38.1499 34.21 36.7399 35.55 35.2699 35.34C33.7999 35.13 32.8299 33.45 32.9099 32.93C32.9899 32.41 34.2299 32.17 35.6999 32.38C37.1699 32.59 38.2999 33.18 38.2199 33.69V33.7Z" fill="#404955"/>
<path d="M39.6101 10.82C39.1101 10.49 38.6101 10.16 38.2501 9.69003C37.8901 9.22003 37.6801 8.59003 37.8601 8.02003C38.0901 7.30003 38.9001 6.90003 39.6501 6.91003C40.4001 6.92003 41.1101 7.27003 41.7501 7.66003C43.6301 8.80003 45.2401 10.37 46.4301 12.21C45.9201 11.91 45.3901 11.59 45.1101 11.07C44.8301 10.55 44.9401 9.78003 45.4801 9.54003C45.9701 9.32003 46.5301 9.64003 46.9501 9.97003C47.8601 10.69 48.6401 11.57 49.2501 12.55C49.3701 12.53 49.5001 12.51 49.6201 12.48" stroke="#404955" stroke-width="1.5" stroke-linecap="round" stroke-linejoin="round"/>
<path d="M50.5098 10.75L51.6398 13.25" stroke="#404955" stroke-width="1.5" stroke-linecap="round" stroke-linejoin="round"/>
<path d="M17.81 11.91C19.66 14.38 19.18 18.05 17.38 20.56C15.58 23.07 12.76 24.64 9.90999 25.85C8.08999 26.63 5.95999 27.28 4.18999 26.41C2.25999 25.46 1.52999 23.09 1.35999 20.95C0.939989 15.45 3.08999 9.80002 7.07999 5.98002C11.07 2.16002 16.79 0.230025 22.27 0.870025C27.75 1.52002 32.88 4.73002 35.86 9.37002" stroke="#404955" stroke-width="1.5" stroke-linecap="round" stroke-linejoin="round"/>
<path d="M18.9297 15.29C21.0097 13.8 23.5897 13.02 26.1497 13.1C28.7097 13.18 31.2397 14.13 33.2197 15.75" stroke="#404955" stroke-width="1.5" stroke-linecap="round" stroke-linejoin="round"/>
<path d="M34.9197 35.12C34.5197 36.01 34.5497 37.08 34.9997 37.94" stroke="#404955" stroke-width="1.5" stroke-linecap="round" stroke-linejoin="round"/>
<path d="M64.3899 15.62C64.1099 11.97 62.9799 8.39 61.0999 5.24C60.3299 3.95 59.2599 2.62 57.7699 2.42C56.5199 2.26 55.2799 2.98 54.4999 3.98C53.7199 4.98 53.3499 6.22 53.0399 7.45C51.1099 15.26 51.84 23.7 55.08 31.07C55.75 32.59 56.5799 34.13 57.9999 35C60.3699 36.46 63.7299 35.36 65.3399 33.08C66.9499 30.8 67.0299 27.73 66.2199 25.06C65.4099 22.39 63.8399 20.04 62.2799 17.73" stroke="#404955" stroke-width="1.5" stroke-linecap="round" stroke-linejoin="round"/>
<path d="M61.3201 16.73C60.9101 14.81 59.8301 13.04 58.3101 11.79" stroke="#404955" stroke-width="1.5" stroke-linecap="round" stroke-linejoin="round"/>
<path d="M64.7098 17.41L64.5298 20.59" stroke="#404955" stroke-width="1.5" stroke-linecap="round" stroke-linejoin="round"/>
<path d="M22.9301 40.29C23.1301 41.86 21.9301 43.47 20.3701 43.73C20.4301 43.63 20.4801 43.53 20.5401 43.44" stroke="#404955" stroke-width="1.5" stroke-linecap="round" stroke-linejoin="round"/>
<path d="M24.3097 42.6C23.9297 43.91 22.5797 44.86 21.2197 44.78" stroke="#404955" stroke-width="1.5" stroke-linecap="round" stroke-linejoin="round"/>
<path d="M32.6798 52.0901C30.8798 50.8401 28.8698 49.8801 26.7598 49.2701C25.2098 48.8201 23.4798 48.5601 21.9998 49.2201C19.4398 50.3601 18.7198 53.6901 18.9898 56.4801C19.4598 61.2701 21.9498 65.8401 25.7298 68.8201C27.6298 70.3201 30.3998 71.4101 32.3698 70.0201" stroke="#404955" stroke-width="1.5" stroke-linecap="round" stroke-linejoin="round"/>
<path d="M20.5799 44.68C16.8099 42.91 13.0399 41.14 9.26988 39.36C7.66988 38.61 5.87988 37.84 4.17988 38.33C1.66988 39.06 0.699878 42.14 0.749878 44.75C0.849878 49.34 2.97988 53.84 6.45988 56.83C9.93988 59.82 14.7299 61.23 19.2699 60.62" stroke="#404955" stroke-width="1.5" stroke-linecap="round" stroke-linejoin="round"/>
<path d="M67.02 19.6C72.91 17.43 79.56 17.4 85.46 19.53C91.36 21.66 96.34 26.14 99.49 31.56C102.06 29.73 105.47 29.28 108.55 29.95C111.64 30.62 114.43 32.32 116.79 34.42C119.2 36.56 121.34 39.58 120.79 42.76C120.3 45.59 117.72 47.6901 114.96 48.4901C112.2 49.2901 109.58 48.7 106.72 48.44C95.54 56.21 82.39 61.14 68.85 62.64" stroke="#404955" stroke-width="1.5" stroke-linecap="round" stroke-linejoin="round"/>
<path d="M77.9199 18.09C77.4099 17.31 77.0099 16.47 76.7199 15.58C76.2699 14.21 76.1199 12.68 76.6199 11.32C77.1199 9.96002 78.3799 8.83002 79.8199 8.77002" stroke="#404955" stroke-width="1.5" stroke-linecap="round" stroke-linejoin="round"/>
<path d="M80.1897 9.50003C80.1397 9.02003 80.3397 8.52003 80.7097 8.20003C81.0797 7.88003 81.5997 7.75003 82.0697 7.86003" stroke="#404955" stroke-width="1.5" stroke-linecap="round" stroke-linejoin="round"/>
<path d="M81.9098 9.74C81.7798 9.61 81.7798 9.39 81.8698 9.23C81.9598 9.07 82.1198 8.96 82.2798 8.87C82.8998 8.51 83.6198 8.34 84.3398 8.38" stroke="#404955" stroke-width="1.5" stroke-linecap="round" stroke-linejoin="round"/>
<path d="M85.7798 9.56C88.0098 10.02 89.9398 11.74 90.6498 13.9C90.9198 14.71 91.0198 15.61 90.7398 16.41C90.4598 17.21 89.7198 17.9 88.8698 17.93C89.1998 18.39 89.2798 19.02 89.0998 19.56C88.9198 20.1 88.4598 20.53 87.9098 20.69" stroke="#404955" stroke-width="1.5" stroke-linecap="round" stroke-linejoin="round"/>
<path d="M33.4497 68.92C34.2897 69.6 34.3997 71.01 33.6697 71.81" stroke="#404955" stroke-width="1.5" stroke-linecap="round" stroke-linejoin="round"/>
<path d="M35.6201 68.7C36.1301 69.59 36.2701 70.68 36.0001 71.67C36.8501 70.78 37.4201 69.62 37.6001 68.41" stroke="#404955" stroke-width="1.5" stroke-linecap="round" stroke-linejoin="round"/>
<path d="M38.8701 67.58C40.4701 68.87 42.6901 69.01 44.7401 68.85C48.7701 68.53 52.5401 67.19 56.0101 65.15C57.6901 64.16 58.7601 64.9 60.6401 64.98C62.7301 65.07 64.8401 64.65 66.7201 63.75" stroke="#404955" stroke-width="1.5" stroke-linecap="round" stroke-linejoin="round"/>
<path d="M34.0196 52.72C34.0896 51.42 33.6796 50.1 32.8896 49.07C34.0996 49.86 35.1396 50.9 35.9296 52.11C35.9496 51.52 36.0396 50.82 36.5696 50.55C37.0796 50.29 37.6796 50.59 38.1696 50.89" stroke="#404955" stroke-width="1.5" stroke-linecap="round" stroke-linejoin="round"/>
<path d="M35.2397 14.9C30.6697 16.71 26.5797 19.72 23.4897 23.55" stroke="#404955" stroke-width="1.5" stroke-linecap="round" stroke-linejoin="round"/>
<path d="M48.3999 36.21C49.7399 37.63 51.3999 38.74 53.2299 39.43" stroke="#404955" stroke-width="1.5" stroke-linecap="round" stroke-linejoin="round"/>
<path d="M49.0201 39.55C49.7601 40.6 50.7601 41.46 51.9101 42.03C50.2701 42.48 48.5101 42.4901 46.8701 42.0601" stroke="#404955" stroke-width="1.5" stroke-linecap="round" stroke-linejoin="round"/>
<path d="M33.96 38.91L34.87 38.2C35.34 38.59 35.8 38.98 36.27 39.37" stroke="#404955" stroke-width="1.5" stroke-linecap="round" stroke-linejoin="round"/>
<path d="M22.7599 27.47C21.1199 28.54 19.0199 28.87 17.1299 28.37" stroke="#404955" stroke-width="1.5" stroke-linecap="round" stroke-linejoin="round"/>
<path d="M21.8501 30.98C20.5301 31.63 18.9501 31.73 17.5601 31.25C18.1501 32.89 19.3801 34.28 20.9401 35.05" stroke="#404955" stroke-width="1.5" stroke-linecap="round" stroke-linejoin="round"/>
<path d="M34.2399 19.98C33.5999 22.29 34.4899 24.95 36.3999 26.41" stroke="#404955" stroke-width="1.5" stroke-linecap="round" stroke-linejoin="round"/>
<path d="M36.0801 22.36C36.7201 24.33 38.2701 25.99 40.1901 26.76C40.3601 25.9 40.0901 24.95 39.4801 24.31" stroke="#404955" stroke-width="1.5" stroke-linecap="round" stroke-linejoin="round"/>
</g>
<defs>
<clipPath id="clip0_360_8743">
<rect width="121.64" height="72.56" fill="white"/>
</clipPath>
</defs>
</svg>
