<svg width="105" height="108" viewBox="0 0 105 108" fill="none" xmlns="http://www.w3.org/2000/svg">
<g clip-path="url(#clip0_360_8780)">
<path d="M38.18 10.09L32.41 6.43001L28.04 4.89001L19.41 5.54001L12.99 7.98001L7.81 11.88L3.96 17.29L1.5 23.76L1.89 30.51L3.01 35.32L5.77 38.27C5.77 38.27 9.52 38.93 9.58 38.73C9.64 38.53 14.37 36.02 14.37 36.02L19.83 31.19L22.01 26.57V22.43L25.54 19.74L29.07 18.84L30.81 16.97L36.87 15.36L39.27 12.53L38.19 10.06L38.18 10.09Z" fill="#A0BCEF"/>
<path d="M40.7204 19.75L36.0204 23.77L32.3204 30.01C32.3204 30.01 22.2104 36.7 33.9804 47.76C45.7504 58.82 62.8604 55.93 62.8604 55.93L72.3904 52.82C72.3904 52.82 88.8904 47.11 83.7804 29.9C83.7804 29.9 83.2404 22.35 78.0304 19.49L78.3804 13.54L77.1504 5.88001L74.1204 1.83001L70.5204 0.76001L67.1504 1.83001L64.4404 4.91001L61.2504 14.69L58.9004 11.54L58.1204 14.13L54.5004 11.59L51.9004 11.75L49.5104 10.2L44.7904 9.15001L43.6004 10.9L44.1404 12.3L45.4704 13.29L44.1404 15.03L44.7204 16.87L42.9304 18.87L40.7104 19.76L40.7204 19.75Z" fill="#A0BCEF"/>
<path d="M31.8503 35.33L28.0303 36.85C28.0303 36.85 25.9203 35.5 25.8003 35.71C25.6803 35.92 27.8103 39.26 27.8103 39.26L32.4003 40.79L31.8503 35.34V35.33Z" fill="#9EB7DF"/>
<path d="M32.8902 62.52L32.0302 63.87L29.9402 65.3L28.2702 64.65L31.8502 66.64L29.9402 67.94V69.11L25.9202 77.28L24.4402 81.63L22.3002 79.67L18.0302 76.94L13.7802 75.79L7.49023 77.57L3.69023 80.8C3.69023 80.8 1.23023 85.47 1.19023 85.64C1.15023 85.81 0.740234 90.58 0.740234 90.58L2.12023 94.69L5.05023 98.7L9.63023 101.26L14.6502 102.57L19.6402 102.2L28.4402 99.73L30.7802 101.28L36.4402 102.59L41.9102 100.98L43.1202 103.54C43.1202 103.54 47.6002 106.51 47.6902 106.64C47.7802 106.77 54.0502 106.7 54.0502 106.7L63.3402 101.94L69.4502 101.99L79.6402 105.22L86.8502 105.79L93.4402 103.37L98.6302 98.96L102.21 92.61C102.21 92.61 102.79 86.82 102.79 86.91C102.79 87 101.96 82.27 101.96 82.27L98.0502 76.07L100.85 74.99L103.44 70.72L102.56 65.95L99.3402 62.66L96.8402 62.36L95.5202 60.4L91.7802 61.33C91.7802 61.33 87.7602 64.41 87.5702 64.68C87.3802 64.95 82.8402 59.73 82.8402 59.73C82.8402 59.73 79.6202 56.04 79.3902 56.04C79.1602 56.04 77.8102 57.01 77.8102 57.01L79.5302 58.4C79.5302 58.4 79.4802 61.03 79.4802 61.18C79.4802 61.33 78.7102 63.33 78.7102 63.33L75.4202 63.96L75.2102 67.33C75.2102 67.33 73.2902 69.35 73.1502 69.57C73.0102 69.79 71.4502 70.45 71.4502 70.45L69.2102 70.33V72.81L66.9202 75.06L64.2402 74.96L63.0202 74.26L62.4702 76.58L59.3102 78.03L56.5102 75.66L54.2202 77.74L50.6202 77.69L49.2602 74.96L47.5202 76.73L45.5802 75.63L45.4302 73.1L43.8102 73.38L41.3302 72.83L39.8502 69.99H37.9202L36.2002 68.58L35.7702 66.11L36.3902 64.59L34.9402 64.69L33.3102 63.57L32.9002 62.56L32.8902 62.52Z" fill="#A0BCEF"/>
<path d="M37.6703 8L37.3203 3.53L40.1403 2.19H44.5303L49.1303 5.17L51.7203 12.02L46.3603 9.3L43.6003 10.16L43.3803 11.54L45.4703 13.53L43.6003 15.39L44.1403 15.9L43.8503 17.75L41.3503 19.98L37.8103 22.29L34.4903 26.15L29.9803 24.3L28.2803 21.65L28.8703 18.86L31.9803 16.57L36.9003 15.63L37.6703 13.91L38.7103 13.2L37.6703 8Z" fill="#FFF5E3"/>
<path d="M40.0002 52.25L38.5502 55.16L38.2202 61.22L40.3702 66.52L43.6002 69.96L49.1102 72.76L55.6902 73.27L62.1602 71.72L68.1602 67.93L72.7102 62.52L75.2202 57.14L76.0102 51L69.2202 54.2L58.0402 56.43L49.5102 56L40.0002 52.25Z" fill="#FFF5E3"/>
<path d="M48.766 35.8829C49.5045 34.9531 49.672 33.8568 49.14 33.4343C48.6081 33.0118 47.5782 33.423 46.8397 34.3528C46.1011 35.2826 45.9337 36.3789 46.4656 36.8014C46.9975 37.2239 48.0274 36.8127 48.766 35.8829Z" fill="#404955"/>
<path d="M56.0107 37.0155C56.5426 36.5929 56.3751 35.4967 55.6366 34.5669C54.898 33.6371 53.8681 33.2259 53.3362 33.6484C52.8043 34.0709 52.9717 35.1671 53.7103 36.0969C54.4488 37.0267 55.4787 37.438 56.0107 37.0155Z" fill="#404955"/>
<path d="M54.2303 38.03C54.2303 38.68 52.7303 40.59 50.8803 40.59C49.0303 40.59 47.5303 38.68 47.5303 38.03C47.5303 37.38 49.0303 36.86 50.8803 36.86C52.7303 36.86 54.2303 37.39 54.2303 38.03Z" fill="#404955"/>
<path d="M45.9101 13.84C45.2601 13.53 44.6001 13.22 44.0901 12.73C43.5801 12.24 43.2201 11.52 43.3401 10.81C43.4901 9.92003 44.3801 9.29003 45.2801 9.18003C46.1801 9.07003 47.0801 9.36003 47.9101 9.71003C50.3401 10.75 52.5401 12.34 54.2701 14.34C53.6101 14.07 52.9201 13.78 52.5001 13.21C52.0801 12.64 52.0801 11.7 52.6801 11.33C53.2301 10.99 53.9401 11.27 54.5001 11.59C55.7101 12.29 56.7901 13.2 57.6801 14.27C57.8201 14.22 57.9701 14.17 58.1101 14.13" stroke="#404955" stroke-width="1.5" stroke-linecap="round" stroke-linejoin="round"/>
<path d="M58.9004 11.89L60.6804 14.68" stroke="#404955" stroke-width="1.5" stroke-linecap="round" stroke-linejoin="round"/>
<path d="M38.3404 10.63C34.0804 6.75 30.1704 4.53 23.5204 4.95C16.8804 5.37 10.3604 8.39 6.26039 13.64C2.17039 18.88 0.570393 25.99 2.02039 32.48C2.58039 35.01 3.87039 37.71 6.33039 38.51C8.60039 39.25 11.0204 38.1 13.0604 36.86C16.2404 34.93 19.3504 32.58 21.0604 29.27C22.7704 25.96 22.7304 21.51 20.0904 18.88" stroke="#404955" stroke-width="1.5" stroke-linecap="round" stroke-linejoin="round"/>
<path d="M22.0103 22.72C24.2403 20.59 26.0003 19.21 29.0703 18.87" stroke="#404955" stroke-width="1.5" stroke-linecap="round" stroke-linejoin="round"/>
<path d="M40.7203 19.98C37.0903 22.49 34.1503 25.99 32.3203 30.01" stroke="#404955" stroke-width="1.5" stroke-linecap="round" stroke-linejoin="round"/>
<path d="M50.4104 40.36C50.0704 41.53 50.3004 42.85 51.0104 43.84" stroke="#404955" stroke-width="1.5" stroke-linecap="round" stroke-linejoin="round"/>
<path d="M78.0601 18.75C78.7301 14.39 78.3601 9.86001 77.0001 5.65001C76.4401 3.91001 74.3001 1.74001 72.5901 1.10001C71.1501 0.560015 68.6501 0.420015 66.5101 2.33001C65.3701 3.35001 64.5301 4.64001 63.8401 6.00001C59.4301 14.64 61.0101 24.76 62.8401 34.31C63.2201 36.28 63.7901 38.32 65.2201 39.73C67.6301 42.1 71.9101 41.74 74.4301 39.52C76.9501 37.3 77.8801 33.7 77.6601 30.35C77.4401 27 76.2101 23.79 75.0001 20.65" stroke="#404955" stroke-width="1.5" stroke-linecap="round" stroke-linejoin="round"/>
<path d="M74.1301 19.2C74.1601 16.83 73.3702 14.45 71.9102 12.56" stroke="#404955" stroke-width="1.5" stroke-linecap="round" stroke-linejoin="round"/>
<path d="M31.5602 33.57C29.9002 33.96 28.0902 33.63 26.6602 32.69" stroke="#404955" stroke-width="1.5" stroke-linecap="round" stroke-linejoin="round"/>
<path d="M30.1105 36.17C28.5805 36.92 26.5604 36.5 25.4604 35.19C26.1504 37.86 28.4805 40.04 31.1905 40.54" stroke="#404955" stroke-width="1.5" stroke-linecap="round" stroke-linejoin="round"/>
<path d="M45.4202 13.67C44.6302 14.37 43.8402 14.92 43.0502 15.5C42.0602 16.22 40.6502 15.92 40.0802 14.84C38.7302 12.25 37.8202 9.44 37.4102 6.55C37.2602 5.51 37.2002 4.38 37.7502 3.49C38.3602 2.5 39.5702 2.06 40.7202 1.9C43.3402 1.54 46.0902 2.37 48.0902 4.1C50.0902 5.83 51.2802 8.45 51.3002 11.09" stroke="#404955" stroke-width="1.5" stroke-linecap="round" stroke-linejoin="round"/>
<path d="M39.0305 13.09C36.4905 13.86 36.5705 16.72 37.3205 17.93C38.1005 19.18 39.6305 19.91 41.0905 19.74C42.5505 19.57 45.0405 17.7 43.8205 15.29" stroke="#404955" stroke-width="1.5" stroke-linecap="round" stroke-linejoin="round"/>
<path d="M36.4904 15.63C34.5604 15.86 32.5604 16.11 30.8904 17.11C29.2204 18.11 27.9604 20.08 28.4204 21.97C28.6604 22.98 29.3604 23.84 30.1904 24.46C31.0204 25.08 33.7604 25.49 34.7304 25.87" stroke="#404955" stroke-width="1.5" stroke-linecap="round" stroke-linejoin="round"/>
<path d="M49.5103 45.57C49.5703 44.84 49.9803 44.15 50.6003 43.76C51.3203 44.22 52.0003 44.67 52.7203 45.13" stroke="#404955" stroke-width="1.5" stroke-linecap="round" stroke-linejoin="round"/>
<path d="M18.5104 15.63L18.1904 15.39C19.7804 15.47 21.3104 16.38 22.1304 17.75" stroke="#404955" stroke-width="1.5" stroke-linecap="round" stroke-linejoin="round"/>
<path d="M17.8501 13.76C18.8701 13.31 20.1401 13.53 20.9501 14.29" stroke="#404955" stroke-width="1.5" stroke-linecap="round" stroke-linejoin="round"/>
<path d="M33.9805 48.07C45.5705 57.97 62.7405 59.22 75.4305 51.09" stroke="#404955" stroke-width="1.5" stroke-linecap="round" stroke-linejoin="round"/>
<path d="M78.3501 20.09C81.5201 22.31 83.5801 26.03 83.7801 29.89" stroke="#404955" stroke-width="1.5" stroke-linecap="round" stroke-linejoin="round"/>
<path d="M80.2104 29.7C80.9504 31.38 82.6604 32.59 84.4904 32.73" stroke="#404955" stroke-width="1.5" stroke-linecap="round" stroke-linejoin="round"/>
<path d="M79.8604 32.97C81.0004 34.67 83.1104 35.67 85.1504 35.46C84.3004 37.37 82.1604 38.62 80.0704 38.42" stroke="#404955" stroke-width="1.5" stroke-linecap="round" stroke-linejoin="round"/>
<path d="M75.9801 51.8C75.7301 61.53 68.2901 70.63 58.8101 72.81C53.2001 74.1 46.9001 72.99 42.6201 69.14C38.3401 65.29 36.6201 58.57 39.2601 53.46C37.4801 52.54 34.9401 53.16 33.8601 54.85C33.4201 55.54 33.1901 56.42 33.4401 57.2C33.6901 57.98 34.5101 58.6 35.3201 58.46C34.5001 59.1 33.8101 59.93 33.4901 60.91C33.1701 61.89 33.2801 63.05 33.9101 63.86C34.5401 64.67 35.7401 65.07 36.6801 64.64C35.5801 65.57 35.3101 67.34 36.0701 68.56C36.8301 69.78 38.5401 70.31 39.8601 69.73C39.7401 71.19 40.6901 72.67 42.0701 73.16C43.4501 73.65 45.1201 73.13 45.9601 71.93C45.4501 72.73 45.0901 73.87 45.3001 74.8C45.5101 75.73 46.2701 76.56 47.2101 76.68C48.1501 76.8 49.1701 76.06 49.2001 75.11C49.5801 76.69 51.0901 77.92 52.7101 77.98C54.3301 78.04 55.9201 76.93 56.4301 75.39C57.0101 76.84 58.6801 77.76 60.2101 77.49C61.7401 77.22 62.9901 75.78 63.0401 74.22C64.2501 75.37 66.2601 75.56 67.6601 74.65C69.0601 73.74 69.7101 71.84 69.1701 70.26C70.8701 70.8 72.8501 70.31 74.1201 69.06C75.3901 67.81 75.8701 65.82 75.3401 64.12C77.0901 64.37 78.9401 63.25 79.5401 61.59C80.1401 59.93 79.4201 57.89 77.9201 56.96C79.0801 56.17 80.1001 55.06 80.4201 53.69C80.7401 52.32 80.2201 50.7 78.9801 50.06C77.7401 49.42 76.0401 50.4 76.0101 51.81L75.9801 51.8Z" stroke="#404955" stroke-width="1.5" stroke-linecap="round" stroke-linejoin="round"/>
<path d="M53.7303 85.34C53.5203 87.9 51.1603 89.72 48.8703 90.89C46.5803 92.06 44.0003 93.03 42.5303 95.14C40.2203 98.45 41.8903 103.47 45.3303 105.59C48.7703 107.71 53.2803 107.36 56.9603 105.69C60.6403 104.02 63.6703 101.23 66.6203 98.48" stroke="#404955" stroke-width="1.5" stroke-linecap="round" stroke-linejoin="round"/>
<path d="M66.1304 96.9C68.1704 97.54 70.4804 97.27 72.3104 96.16" stroke="#404955" stroke-width="1.5" stroke-linecap="round" stroke-linejoin="round"/>
<path d="M67.6904 93.53C69.1904 94.16 70.9404 94.18 72.4604 93.58C71.7004 93.19 70.9504 92.8 70.1904 92.41C71.8704 92.08 73.5404 91.74 75.2204 91.41" stroke="#404955" stroke-width="1.5" stroke-linecap="round" stroke-linejoin="round"/>
<path d="M71.9902 89.32C78.1002 86.24 82.2402 79.6 82.3202 72.76" stroke="#404955" stroke-width="1.5" stroke-linecap="round" stroke-linejoin="round"/>
<path d="M30.1604 68.7C27.6404 73.36 25.0904 78.11 24.0604 83.31C23.0304 88.51 23.7004 94.31 27.1004 98.37C30.5004 102.43 37.0004 104.03 41.3204 100.97" stroke="#404955" stroke-width="1.5" stroke-linecap="round" stroke-linejoin="round"/>
<path d="M41.3404 78.48C39.3004 81.82 39.8004 86.5 42.4904 89.34" stroke="#404955" stroke-width="1.5" stroke-linecap="round" stroke-linejoin="round"/>
<path d="M22.6502 80.01C19.5402 76.68 14.5202 75.27 10.1302 76.48C4.85024 77.94 0.890237 83.15 0.760237 88.63C0.630237 94.11 4.24024 99.44 9.33024 101.48C15.2602 103.85 21.9402 101.93 28.0202 100" stroke="#404955" stroke-width="1.5" stroke-linecap="round" stroke-linejoin="round"/>
<path d="M63.8301 102.05C69.3601 100.45 74.8701 104.23 80.5101 105.4C85.6001 106.45 91.1201 105.23 95.3001 102.14C99.4801 99.05 102.25 94.12 102.73 88.94C103.08 85.11 102.15 81.06 99.6201 78.16C97.0901 75.26 92.8401 73.78 89.2101 75.04C86.0301 76.15 83.7701 79.11 82.6801 82.3C81.5901 85.49 81.4701 88.91 81.3701 92.28" stroke="#404955" stroke-width="1.5" stroke-linecap="round" stroke-linejoin="round"/>
<path d="M79.1504 56C85.5304 61.94 88.5204 66.51 91.7804 74.6" stroke="#404955" stroke-width="1.5" stroke-linecap="round" stroke-linejoin="round"/>
<path d="M31.8503 63.87C31.0603 65.07 29.3503 65.57 28.0303 64.98" stroke="#404955" stroke-width="1.5" stroke-linecap="round" stroke-linejoin="round"/>
<path d="M31.4901 66.85C30.5201 67.79 29.2301 68.4 27.8901 68.54" stroke="#404955" stroke-width="1.5" stroke-linecap="round" stroke-linejoin="round"/>
<path d="M36.75 95.41C36.84 93.07 38.46 90.87 40.66 90.08C42.86 89.29 45.51 89.98 47.06 91.73" stroke="#404955" stroke-width="1.5" stroke-linecap="round" stroke-linejoin="round"/>
<path d="M81.5 71.03L84.15 70.69" stroke="#404955" stroke-width="1.5" stroke-linecap="round" stroke-linejoin="round"/>
<path d="M47.3401 21.12C44.6301 22.33 43.0401 25.63 43.7901 28.51" stroke="#404955" stroke-width="1.5" stroke-linecap="round" stroke-linejoin="round"/>
<path d="M49.1204 23.77C47.5104 25.63 47.5304 28.7 49.1804 30.52C49.6404 29.36 50.1004 28.2 50.5604 27.04C51.6104 28.31 53.1004 29.21 54.7104 29.56" stroke="#404955" stroke-width="1.5" stroke-linecap="round" stroke-linejoin="round"/>
<path d="M88.02 64.64C89.67 61.62 93.5 59.97 96.83 60.86" stroke="#404955" stroke-width="1.5" stroke-linecap="round" stroke-linejoin="round"/>
<path d="M95.2305 64.08C95.6605 63.08 96.7905 62.5 97.8705 62.51C98.9505 62.52 99.9805 63.04 100.82 63.74C102.9 65.48 103.88 68.43 103.26 71.06C102.64 73.69 100.45 75.9 97.8105 76.53" stroke="#404955" stroke-width="1.5" stroke-linecap="round" stroke-linejoin="round"/>
</g>
<defs>
<clipPath id="clip0_360_8780">
<rect width="104.19" height="107.81" fill="white"/>
</clipPath>
</defs>
</svg>
