<svg width="98" height="117" viewBox="0 0 98 117" fill="none" xmlns="http://www.w3.org/2000/svg">
<g clip-path="url(#clip0_360_8831)">
<path d="M73.67 79.4C76.8235 79.4 79.38 76.8435 79.38 73.69C79.38 70.5364 76.8235 67.98 73.67 67.98C70.5164 67.98 67.96 70.5364 67.96 73.69C67.96 76.8435 70.5164 79.4 73.67 79.4Z" fill="#A0BCEF"/>
<path d="M96.7798 18.13L96.8998 18.36L96.8598 18.51C96.8398 18.38 96.8098 18.25 96.7798 18.13Z" fill="#A0BCEF"/>
<path d="M95.9401 21.93L95.8101 22.41L94.8301 23.11C95.2501 22.77 95.6301 22.37 95.9401 21.93Z" fill="#A0BCEF"/>
<path d="M94.27 13.38L94.98 14.73C94.98 14.73 94.93 14.66 94.91 14.63C94.29 13.79 93.64 12.96 92.96 12.15L94.27 13.38Z" fill="#A0BCEF"/>
<path d="M93.67 23.93L91.91 25.19L89.04 26.02C89.61 25.81 90.17 25.58 90.71 25.35C91.72 24.93 92.74 24.5 93.67 23.93Z" fill="#A0BCEF"/>
<path d="M91.2797 93.67L90.5697 93.93C86.6997 97.66 82.4497 101 77.8997 103.87C76.6097 104.68 75.2797 105.46 73.8197 105.89C72.3597 106.31 70.7397 106.36 69.3497 105.72C68.2697 105.22 67.4597 104.38 66.7697 103.4L67.4997 103.01C66.2097 95.85 64.0997 88.84 61.2397 82.14L61.1597 81.4C63.1797 81.15 65.1897 80.77 67.1697 80.26V80.28C75.7897 80.73 84.1197 84.96 89.6497 91.55C90.2297 92.23 90.7697 92.94 91.2797 93.67Z" fill="#FFF5E3"/>
<path d="M85.14 27.14L83.42 27.64L82.21 27.24C83.16 27.37 84.15 27.31 85.14 27.14Z" fill="#A0BCEF"/>
<path d="M80.6797 4.26001L81.0297 4.41001C80.7497 4.37001 80.4797 4.34001 80.1997 4.32001L80.6797 4.26001Z" fill="#A0BCEF"/>
<path d="M79.5698 26.37L78.4098 25.99L77.7598 24.84C78.2698 25.45 78.8698 25.98 79.5698 26.37Z" fill="#A0BCEF"/>
<path d="M75.5398 16.3C75.5998 16.3 75.6599 16.29 75.7299 16.29C75.6199 17.31 75.5799 18.33 75.6599 19.35L75.3398 18.01L75.5398 16.3Z" fill="#A0BCEF"/>
<path d="M75.7297 16.29C75.6597 16.29 75.5997 16.3 75.5397 16.3H75.4497C73.5097 16.39 71.8297 16.7 70.1897 17.24H70.1397L70.0997 17.27C68.6697 17.74 67.2797 18.38 65.7697 19.19C65.4497 18.74 65.1297 18.29 64.8197 17.84L62.9497 14.32C62.9497 14.32 62.9597 14.28 62.9697 14.27L66.0297 9.96C66.4797 9.5 66.9597 9.08 67.4597 8.69L74.1297 5.05H74.1397L80.1997 4.31C80.4797 4.33 80.7497 4.36 81.0297 4.4H81.0497L87.5897 7.12L92.9597 12.14C93.6397 12.95 94.2897 13.78 94.9097 14.62C94.9297 14.65 94.9597 14.69 94.9797 14.72L96.7797 18.12C96.8097 18.24 96.8397 18.37 96.8597 18.5L95.9397 21.92C95.6297 22.36 95.2497 22.76 94.8297 23.1L93.6697 23.92C92.7397 24.49 91.7197 24.92 90.7097 25.34C90.1697 25.57 89.6097 25.8 89.0397 26.01L85.1797 27.12C85.1797 27.12 85.1597 27.13 85.1397 27.13C84.1497 27.3 83.1597 27.36 82.2097 27.23L79.5697 26.36C78.8697 25.97 78.2697 25.44 77.7597 24.83L76.3997 22.43L75.6597 19.34C75.5797 18.32 75.6197 17.3 75.7297 16.28V16.29Z" fill="#A0BCEF"/>
<path d="M75.4499 16.31L70.1899 17.25C71.8299 16.71 73.5099 16.4 75.4499 16.31Z" fill="#A0BCEF"/>
<path d="M72.6301 62.17L72.6701 63.8L72.0801 64.85C72.3701 63.98 72.5501 63.08 72.6301 62.17Z" fill="#A0BCEF"/>
<path d="M71.8896 56.86L72.2796 57.49L72.5097 57.87L72.5497 59.51C72.4297 58.61 72.2096 57.72 71.8896 56.86Z" fill="#A0BCEF"/>
<path d="M69.6897 52.42C70.4797 52.01 71.4596 51.99 72.2696 52.37L74.5797 52.43C74.9097 54.28 74.1497 56.33 72.5497 57.33L72.2796 57.49L71.8896 56.86C71.3296 55.33 70.4796 53.91 69.3896 52.7L69.6897 52.42Z" fill="white"/>
<path d="M70.0698 35.72L71.7298 37.18C71.1098 36.79 70.5398 36.29 70.0698 35.72Z" fill="#A0BCEF"/>
<path d="M70.1 17.28L65.97 19.48C65.9 19.39 65.83 19.29 65.77 19.2C67.28 18.39 68.67 17.75 70.1 17.28Z" fill="#A0BCEF"/>
<path d="M39.7497 76.4V76.37C39.7697 76.24 39.7897 76.1 39.8097 75.96L40.5197 76.06C45.4597 76.87 50.4497 77.4 55.4597 77.44C59.8197 77.48 63.6997 76.61 67.7197 74.92C67.9897 74.81 68.2597 74.69 68.5297 74.55L69.7797 74.7C70.1897 75.12 70.6097 75.55 70.8697 76.07C70.9897 76.31 71.0797 76.58 71.1197 76.84C71.1597 77.16 71.1297 77.48 70.9997 77.77C70.7297 78.35 70.1397 78.69 69.5897 79C68.8797 79.38 68.1797 79.77 67.4797 80.15V80.18C67.3797 80.21 67.2797 80.24 67.1697 80.26C65.1897 80.77 63.1797 81.15 61.1597 81.4C58.6197 81.73 56.0497 81.86 53.4797 81.79C48.5697 81.68 43.6597 80.85 38.9897 79.32C39.3397 78.38 39.5997 77.41 39.7397 76.42V76.4H39.7497Z" fill="white"/>
<path d="M69.6499 38.15L69.1199 38.75C69.0199 38.59 68.9299 38.42 68.8599 38.24C69.1199 38.21 69.3899 38.18 69.6499 38.15Z" fill="#A0BCEF"/>
<path d="M68.1997 42.27C68.7397 42.57 69.1397 43.03 69.0697 43.94L68.1997 42.27Z" fill="#A0BCEF"/>
<path d="M68.9198 38.97L68.8598 39.04C68.8598 39.04 68.1598 37.95 68.0698 37.78C68.1398 37.85 68.3698 38.17 68.8598 38.88L68.9198 38.97Z" fill="#A0BCEF"/>
<path d="M66.5998 9.17001L67.4598 8.70001C66.9598 9.09001 66.4798 9.51001 66.0298 9.97001L66.5998 9.17001Z" fill="#A0BCEF"/>
<path d="M67.1699 80.26C67.2799 80.24 67.3799 80.21 67.4899 80.18V80.15C68.1799 79.77 68.8799 79.38 69.5899 79C70.1399 78.69 70.7299 78.35 70.9999 77.77C71.1299 77.48 71.1599 77.16 71.1199 76.84L72.1999 76.7C74.5899 76.23 77.0099 75.95 79.4499 75.87C83.9599 75.73 88.4999 76.25 92.8499 77.45C94.2199 82.08 93.1599 87.37 90.1099 91.12L89.6499 91.55C84.1199 84.96 75.7899 80.73 67.1799 80.28V80.26H67.1699Z" fill="#FFF5E3"/>
<path d="M67.2997 71.42L67.1997 71.53L67.1797 71.51C67.1797 71.51 67.2597 71.46 67.2997 71.42Z" fill="#A0BCEF"/>
<path d="M65.7398 19.6L64.8198 17.85C65.1298 18.3 65.4498 18.75 65.7698 19.2C65.8298 19.29 65.8998 19.39 65.9698 19.48L65.7398 19.6Z" fill="#A0BCEF"/>
<path d="M69.2997 52.61C68.7297 51.97 68.0797 51.39 67.3697 50.89C66.6397 50.37 65.8297 49.94 64.9797 49.62L64.7197 49.44L64.7797 49.28L64.9797 49.35C66.1997 48.42 67.7497 47.95 69.2797 48.04C71.4497 48.18 73.5597 49.56 74.3397 51.58C74.4497 51.85 74.5297 52.14 74.5797 52.43L72.2697 52.37C71.4597 51.99 70.4797 52.01 69.6897 52.42L69.3897 52.7C69.3897 52.7 69.3397 52.64 69.2997 52.61Z" fill="white"/>
<path d="M64.9497 100.34L64.9797 100.37H64.9697C64.9697 100.37 64.9597 100.35 64.9497 100.34Z" fill="#A0BCEF"/>
<path d="M70.1399 34.38C68.1899 27.8 65.1099 21.57 61.1099 16.01L62.8299 14.89C63.4599 15.87 64.1299 16.86 64.8199 17.85L65.7399 19.6L65.9699 19.48C67.2699 21.29 68.5999 23.08 69.8499 24.75C72.4399 28.23 75.1499 32 75.3299 36.33C75.4799 40.01 73.5399 43.66 70.5399 45.75L69.0699 43.94C69.0699 43.94 70.6299 41.56 68.9199 38.97L69.1199 38.75L69.6499 38.15C70.5499 38.05 71.4499 37.94 72.3399 37.83C72.3799 37.83 72.4199 37.82 72.4599 37.82C72.5999 37.8 72.7299 37.79 72.8699 37.77C72.4699 37.61 72.0899 37.41 71.7299 37.18L70.0699 35.72C70.0199 35.66 69.9699 35.61 69.9299 35.55L70.1699 34.47C70.1699 34.47 70.1599 34.41 70.1399 34.38Z" fill="#FFF5E3"/>
<path d="M63.5598 101.78L56.2998 109.01C58.4698 106.6 61.1198 103.49 63.5598 101.78Z" fill="#A0BCEF"/>
<path d="M62.9497 14.32L62.9697 14.28C62.9697 14.28 62.9497 14.31 62.9497 14.33V14.32Z" fill="#A0BCEF"/>
<path d="M62.8899 67.51C62.9799 67.67 63.0699 67.84 63.1699 67.99L62.9599 67.8L62.7799 67.64L62.6899 67.11C62.7499 67.25 62.8199 67.38 62.8899 67.51Z" fill="#A0BCEF"/>
<path d="M60.9998 61.12L58.1798 59.01L56.4898 57.05C56.1598 56.5 55.9098 55.91 55.7998 55.26C55.6298 54.28 55.8098 53.3 56.2398 52.41C56.9498 50.95 58.3298 49.77 59.8998 49.3C61.5698 48.81 63.3498 48.99 64.9898 49.62L69.3098 52.61L71.8998 56.86C72.2198 57.72 72.4398 58.61 72.5598 59.51L72.6398 62.17C72.5598 63.08 72.3798 63.98 72.0898 64.85L69.9898 68.64L67.3098 71.42C67.3098 71.42 67.2298 71.48 67.1898 71.51L63.1798 67.99C63.0798 67.84 62.9898 67.67 62.8998 67.51C62.8298 67.38 62.7598 67.25 62.6998 67.11L61.8398 62.05L61.7798 61.7L61.0098 61.12H60.9998Z" fill="#A0BCEF"/>
<path d="M61.8299 62.05C61.6299 63.78 61.9299 65.55 62.6899 67.11L62.7799 67.64L62.9599 67.8L62.7799 68.01C59.9699 66.03 58.2299 62.61 58.2999 59.17L58.3299 59.13C58.9499 59.67 59.6199 60.16 60.2699 60.62C60.5099 60.79 60.7499 60.96 60.9999 61.12L61.7699 61.7L61.8299 62.05Z" fill="white"/>
<path d="M56.3199 16.68L55.6299 15.13C55.9299 15.62 56.1599 16.14 56.3199 16.68Z" fill="#A0BCEF"/>
<path d="M55.0498 92.58L55.6998 92.9C55.1698 92.77 54.6398 92.67 54.0898 92.62L55.0498 92.58Z" fill="#A0BCEF"/>
<path d="M55.6998 56.3L53.7998 63.07C53.9098 60.77 54.6498 58.28 55.6998 56.3Z" fill="#A0BCEF"/>
<path d="M61.24 82.14C64.1 88.84 66.21 95.85 67.5 103.01L66.77 103.4C66.21 102.61 65.73 101.72 65.24 100.85C65.15 100.69 65.06 100.53 64.97 100.38H64.98L64.95 100.34C64.76 100.01 64.57 99.68 64.37 99.37C63.41 97.86 62.24 96.55 60.92 95.51C60.91 95.49 60.9 95.48 60.89 95.48C59.35 94.24 57.6 93.36 55.7 92.9L55.05 92.58L54.09 92.62L51.16 92.75L50.6 92.05C49.9 90.96 49.27 89.89 48.22 89.06L48.08 88.88L47.96 88.73C49.16 86.72 50.58 84.82 52.17 83.1C52.64 82.59 53.18 82.19 53.87 82.06C53.74 82.03 53.61 81.99 53.48 81.96V81.79C56.05 81.86 58.62 81.73 61.16 81.4L61.24 82.14Z" fill="#FFF5E3"/>
<path d="M51.05 63.55L39.46 61.15C43.39 61.52 47.28 62.32 51.05 63.55Z" fill="#A0BCEF"/>
<path d="M54.0901 92.62C54.6401 92.67 55.1701 92.77 55.7001 92.9L60.8901 95.48C60.8901 95.48 60.9101 95.49 60.9201 95.51L64.9501 100.34C64.9501 100.34 64.9701 100.36 64.9701 100.38L63.5601 101.78C61.1201 103.49 58.4701 106.6 56.3001 109.01L53.0501 112.24L53.0201 112.27L48.0301 115.38L43.3001 115.86C43.3001 115.86 43.2901 115.86 43.2801 115.85L37.5401 112.47L33.8701 106.65H33.8601C32.8301 104.2 32.2701 101.56 32.4201 98.93C32.5801 96.09 33.6201 93.26 35.4501 91.12C35.4601 91.12 35.4601 91.1 35.4701 91.1H35.4801L40.5401 87.84C41.2101 87.65 41.8901 87.54 42.5801 87.49L47.3901 88.49C47.5801 88.6 47.7501 88.71 47.9101 88.82L47.8501 88.91C47.9001 88.9 47.9501 88.9 48.0001 88.89C48.0801 88.94 48.1501 89 48.2201 89.06L50.6001 92.05L51.1601 92.75L54.0901 92.62Z" fill="#A0BCEF"/>
<path d="M50.1001 34.99C50.8201 35.65 51.2301 36.71 51.0001 37.35C50.7701 37.99 49.9901 37.98 49.2701 37.31C48.5401 36.65 48.1401 35.59 48.3701 34.95C48.6001 34.31 49.3701 34.33 50.1001 34.99Z" fill="#404955"/>
<path d="M47.7597 55.46L49.6397 59.08C48.6797 58.06 47.9497 56.85 47.4897 55.55L47.7597 55.46Z" fill="#A0BCEF"/>
<path d="M49.4699 14.63C49.3799 14.86 49.3799 15.12 49.4799 15.35C49.1899 15.11 48.8999 14.86 48.6099 14.62H49.4699V14.63Z" fill="#A0BCEF"/>
<path d="M48.08 88.88L48.22 89.06C48.15 89 48.08 88.94 48 88.89C48.03 88.89 48.05 88.88 48.08 88.88Z" fill="#A0BCEF"/>
<path d="M47.9597 88.73L48.0797 88.88C48.0797 88.88 48.0297 88.89 47.9997 88.89C47.9697 88.86 47.9397 88.84 47.9097 88.82C47.9197 88.79 47.9397 88.76 47.9597 88.73Z" fill="#A0BCEF"/>
<path d="M47.0801 53.75C47.1801 52.28 49.2001 52.86 50.2601 53.85C51.0701 54.62 51.5701 55.71 51.6101 56.83C51.6501 57.95 51.2301 59.07 50.4701 59.89C50.4001 59.83 50.3301 59.77 50.2601 59.69L50.6101 59.34L50.4401 56.6L47.0801 53.75Z" fill="#FFF5E3"/>
<path d="M47.9101 88.82C47.9101 88.82 47.9701 88.86 48.0001 88.89C47.9501 88.9 47.9001 88.9 47.8501 88.91L47.9101 88.82Z" fill="#A0BCEF"/>
<path d="M47.8496 88.59L47.9596 88.73C47.9596 88.73 47.9196 88.79 47.9096 88.82C47.7496 88.71 47.5796 88.6 47.3896 88.49L47.8496 88.59Z" fill="#A0BCEF"/>
<path d="M47.0797 53.75L50.4396 56.6L50.6097 59.34L50.2596 59.69C50.0396 59.51 49.8297 59.3 49.6397 59.08L47.7596 55.46L47.4897 55.55C47.3597 55.23 47.2597 54.91 47.1797 54.59C47.0897 54.26 47.0597 53.98 47.0797 53.75Z" fill="#FFF5E3"/>
<path d="M45.56 40.38C44.18 40.01 43.22 38.52 43.26 38.01C43.31 37.44 44.65 37.09 46.27 37.21C47.88 37.34 49.15 37.9 49.11 38.47C49.06 39.03 47.62 40.59 46.01 40.47C45.86 40.46 45.71 40.43 45.56 40.38Z" fill="#404955"/>
<path d="M44.4901 11.29L44.7501 11.5C44.6101 11.43 44.4701 11.37 44.3301 11.34L44.4901 11.29Z" fill="#A0BCEF"/>
<path d="M45.2901 55.87C44.9201 55.61 44.6601 55.2 44.5601 54.75C44.5101 54.54 44.4901 54.33 44.5101 54.12C44.5801 53.47 44.9701 52.87 45.5101 52.5L46.6901 52.57C46.6901 52.57 46.7701 52.58 46.8101 52.58L47.0101 53.69L47.0801 53.75C47.0601 53.98 47.0901 54.26 47.1801 54.59C47.2601 54.91 47.3601 55.23 47.4901 55.55L46.3901 55.93L45.2901 55.87Z" fill="#FFF5E3"/>
<path d="M45.1897 34.5C45.3197 35.17 44.7497 36.15 43.9297 36.69C43.1097 37.23 42.3397 37.13 42.2197 36.46C42.0897 35.79 42.6597 34.81 43.4797 34.27C44.2997 33.73 45.0697 33.83 45.1897 34.5Z" fill="#404955"/>
<path d="M42.21 58.12L44.05 56.17C43.67 56.93 43.08 57.59 42.35 58.04C42.3 58.07 42.26 58.1 42.21 58.12Z" fill="#A0BCEF"/>
<path d="M43.7498 15.39L43.4398 14.87C43.9598 15.35 44.6198 15.71 45.2498 16.04C44.5498 15.74 43.7898 15.58 43.0298 15.56L43.7498 15.39Z" fill="#A0BCEF"/>
<path d="M38.4899 55.67L44.2299 52.42L45.5099 52.5C44.9699 52.87 44.5799 53.47 44.5099 54.12C44.4899 54.33 44.5099 54.54 44.5599 54.74C44.4699 55.24 44.2999 55.72 44.0499 56.17L42.2099 58.12C40.8899 58.9 39.1999 59 37.7899 58.39C37.4499 58.24 37.0899 57.99 37.0499 57.62C37.0199 57.32 37.2199 57.05 37.4099 56.82C37.7499 56.41 38.1099 56.03 38.4899 55.67Z" fill="#FFF5E3"/>
<path d="M42.9997 11.76L42.9697 11.79V11.77H42.9997V11.76Z" fill="#A0BCEF"/>
<path d="M42.5698 13.39C42.5698 13.39 42.5798 13.41 42.5798 13.42H42.5698V13.39Z" fill="#A0BCEF"/>
<path d="M41.45 87.26L42.58 87.49C41.89 87.54 41.21 87.65 40.54 87.84L41.45 87.26Z" fill="#A0BCEF"/>
<path d="M50.2599 53.85C49.1999 52.86 47.1799 52.28 47.0799 53.75L47.0099 53.69L46.8099 52.58C49.8499 52.88 52.9499 52.79 55.9099 52.36L56.2299 52.41C55.7999 53.3 55.6199 54.28 55.7899 55.26C55.8999 55.91 56.1499 56.5 56.4799 57.05L55.7499 56.2L55.7299 56.18L55.6999 56.3C54.6499 58.28 53.9099 60.77 53.7999 63.07L53.5199 64.06L51.0499 63.55C47.2799 62.32 43.3899 61.52 39.4599 61.15L38.3999 60.93V59.77L38.4999 59.07L41.6699 58.69L42.2099 58.12C42.2099 58.12 42.2999 58.07 42.3499 58.04C43.0799 57.59 43.6699 56.93 44.0499 56.17L44.3899 55.82L45.2899 55.87L46.3899 55.93L47.4899 55.55C47.9499 56.85 48.6799 58.06 49.6399 59.08L50.0599 59.89L50.2599 59.69C50.3299 59.77 50.3999 59.83 50.4699 59.89C51.2299 59.07 51.6499 57.95 51.6099 56.83C51.5699 55.71 51.0699 54.62 50.2599 53.85Z" fill="#A0BCEF"/>
<path d="M39.1698 69.43L39.2198 70.06C39.1098 69.68 38.9698 69.31 38.8198 68.94L39.1698 69.43Z" fill="#A0BCEF"/>
<path d="M38.3997 59.77V60.93L38.2397 60.9L38.3997 59.77Z" fill="#A0BCEF"/>
<path d="M37.0297 82.95V82.98L36.9897 83C37.0097 82.99 37.0297 82.97 37.0297 82.95Z" fill="#A0BCEF"/>
<path d="M35.85 11.89L36.05 12.16L32.52 15.56C33.58 14.29 34.68 13.04 35.85 11.89Z" fill="#A0BCEF"/>
<path d="M31.1099 17.25V17.37L29.6299 21.78C29.6299 21.8 29.6199 21.82 29.5999 21.83L24.9299 26.6C24.7699 26.72 24.5999 26.84 24.4299 26.96C23.4499 27.65 22.3699 28.29 21.2399 28.75L17.6399 29.38L14.1999 27.77C13.7299 27.31 13.3099 26.8 12.9499 26.24L9.69994 19.44C9.66994 19.38 9.63994 19.32 9.62994 19.26L8.23994 14.68C8.04994 13.72 7.93994 12.73 7.93994 11.75L8.48994 8.03C8.65994 7.47 8.87994 6.92 9.15994 6.4C9.24994 6.23 9.34994 6.06 9.44994 5.9L12.2499 2.95C12.6499 2.67 13.0699 2.41 13.5099 2.18L19.6699 0.759999C19.6699 0.759999 19.6999 0.749999 19.7199 0.759999L25.2899 2.04C25.2899 2.04 25.3299 2.05 25.3399 2.06L32.1199 6.84L35.8499 11.89C34.6799 13.04 33.5799 14.29 32.5199 15.56L31.3399 16.69L31.1899 17.15C31.1899 17.15 31.1399 17.22 31.1099 17.25Z" fill="#A0BCEF"/>
<path d="M32.8097 50.14C36.1297 53.59 37.0197 59.16 34.9197 63.47C34.9197 63.48 34.9097 63.49 34.9097 63.5L34.4597 63.11L28.1697 57.6C27.6297 56.99 27.0997 56.35 26.5997 55.7C26.3697 55.4 26.1397 55.1 25.9197 54.79C24.9597 53.48 24.0597 51.83 24.6497 50.32C25.1897 48.92 26.8697 48.26 28.3597 48.41C29.8497 48.56 31.1897 49.34 32.4797 50.1L32.8097 50.14Z" fill="white"/>
<path d="M22.6498 63.84V61.86C22.7198 61.79 22.7898 61.73 22.8498 61.67C22.8498 61.59 22.8498 61.52 22.8498 61.44L24.5798 57.87L26.8098 56.4L28.1698 57.6C30.0198 59.7 32.0998 61.6 34.3598 63.26C34.3898 63.21 34.4298 63.16 34.4598 63.11L34.9098 63.5L38.8198 68.94C38.9698 69.31 39.1098 69.68 39.2198 70.06L39.7498 76.37C39.7498 76.37 39.7498 76.4 39.7398 76.42L37.0298 82.95C37.0298 82.95 37.0098 82.99 36.9898 83L32.8098 86.68L28.5298 87.36C28.2898 87.31 28.0598 87.24 27.8298 87.14C27.4498 86.98 27.1098 86.78 26.7998 86.54C26.6298 86.42 26.4698 86.28 26.3198 86.14C25.4998 85.36 24.8998 84.33 24.4498 83.25L23.0998 78.95C22.6098 76.85 22.3598 74.69 22.3498 72.54V72.46L22.3998 70.89L22.4698 68.64L21.8398 67.02C21.8398 67.02 21.8398 66.96 21.8398 66.93L22.6398 65.76V63.84H22.6498Z" fill="#A0BCEF"/>
<path d="M34.4397 48.79C35.1797 49.4 35.6797 49.75 35.7397 49.67C35.8897 49.47 37.5597 53.53 38.1897 55.09C38.3497 55.47 38.4397 55.7 38.4397 55.7L38.4897 55.67C38.1097 56.03 37.7497 56.41 37.4097 56.82C37.2197 57.05 37.0197 57.32 37.0497 57.62C37.0897 57.99 37.4497 58.24 37.7897 58.39C39.1997 59 40.8897 58.9 42.2097 58.12L41.6697 58.69L38.4997 59.07L38.3997 59.77L38.2397 60.9L38.3997 60.93V61.05C38.7497 61.08 39.1097 61.11 39.4597 61.15L51.0497 63.55C51.9797 63.84 52.8997 64.16 53.8097 64.51C53.7697 64.04 53.7697 63.56 53.7997 63.07L55.6997 56.3C55.6997 56.3 55.7297 56.23 55.7497 56.2L56.4797 57.05C56.9197 57.77 57.5097 58.41 58.1697 59C58.2197 59.05 58.2697 59.1 58.3197 59.13L58.2897 59.17C58.2197 62.61 59.9597 66.03 62.7697 68.01L62.9497 67.8L63.1597 67.99C64.1197 69.52 65.5197 70.76 67.1597 71.52C67.1597 71.52 67.1797 71.53 67.1897 71.53L67.2897 71.42C68.0097 70.93 68.6597 70.35 69.2497 69.71L69.5097 69.95C70.6497 70.24 71.0197 71.82 70.4697 72.85C70.0597 73.63 69.3197 74.15 68.5197 74.55C68.2497 74.69 67.9797 74.81 67.7097 74.92C63.6897 76.61 59.8097 77.48 55.4497 77.44C50.4397 77.4 45.4497 76.87 40.5097 76.06L39.7997 75.96C39.8597 75.43 39.8897 74.88 39.8897 74.34C39.8797 72.89 39.6497 71.44 39.2097 70.06L39.1597 69.43L38.8097 68.94C37.9597 66.85 36.6197 64.95 34.9097 63.47C37.0097 59.16 36.1197 53.59 32.7997 50.14L32.4697 50.1L32.6997 50.05C32.6297 49.98 32.5697 49.91 32.4997 49.84C33.1397 49.5 33.7797 49.16 34.4097 48.82L34.4297 48.79H34.4397Z" fill="#FFF5E3"/>
<path d="M35.4498 91.12C33.6198 93.26 32.5798 96.09 32.4198 98.93C32.2698 101.56 32.8298 104.2 33.8598 106.64L32.2098 108.7L29.6098 111.96L28.0498 112.53L23.5798 114.16L18.9198 113.82H18.8998L14.3098 111.37C14.3098 111.37 14.2998 111.37 14.2898 111.37L10.6798 106.96C10.6798 106.96 10.6498 106.91 10.6498 106.89L9.09984 101.93C8.97984 100.97 8.93984 100.01 8.97984 99.05L9.29984 96.24C9.47984 95.34 9.71984 94.44 10.0298 93.58L13.6398 87.48L18.7798 84.6C18.9698 84.56 19.1598 84.54 19.3398 84.52L23.1898 84.97L23.2798 85L26.5398 86.69C26.5398 86.69 26.6398 86.75 26.6898 86.8L29.5798 89.49C29.5798 89.49 29.5798 89.5 29.5998 89.51L30.5198 89.77L35.4398 91.13L35.4498 91.12Z" fill="#A0BCEF"/>
<path d="M38.1899 55.09C37.5599 53.53 35.8899 49.47 35.7399 49.67C35.6799 49.75 35.1799 49.4 34.4399 48.79C34.0099 48.43 33.4899 47.98 32.9399 47.46C36.7399 50.45 41.6299 52.06 46.6899 52.57L45.5099 52.5L44.2299 52.42L38.4899 55.67L38.4399 55.7C38.4399 55.7 38.3499 55.47 38.1899 55.09Z" fill="#A0BCEF"/>
<path d="M34.3599 63.26C32.0999 61.6 30.0199 59.7 28.1699 57.6L34.4599 63.11C34.4599 63.11 34.3899 63.21 34.3599 63.26Z" fill="#A0BCEF"/>
<path d="M61.1099 16.01C65.1099 21.57 68.1899 27.8 70.1399 34.38C69.6999 33.17 64.9199 20.25 61.4899 17.21L60.8899 18.71C60.8899 18.71 60.7999 18.54 60.6399 18.26C59.9499 17.12 57.9199 14.16 54.9499 13.6L55.6299 15.13L56.3199 16.68C56.2599 16.56 55.6699 15.57 52.8499 15.5C52.8499 15.49 52.8499 15.48 52.8499 15.48C52.6899 15.13 52.4999 14.79 52.2399 14.51C51.7799 13.99 51.0699 13.64 50.3999 13.79C49.9799 13.88 49.6199 14.23 49.4799 14.63H48.6199C47.6399 13.79 46.6599 12.97 45.6699 12.14C45.3899 11.9 45.0899 11.66 44.7599 11.5L44.4999 11.29L44.3399 11.34C44.1899 11.29 44.0299 11.28 43.8699 11.29C43.5199 11.32 43.2199 11.5 43.0099 11.76H42.9899L42.9799 11.79C42.6399 12.2 42.4999 12.82 42.5799 13.39V13.41H42.5899C42.6199 13.59 42.6699 13.76 42.7399 13.92C42.9099 14.29 43.1599 14.6 43.4499 14.87L43.7599 15.39L43.0399 15.56L40.4699 16.16C40.4699 16.16 41.1899 18.42 39.6399 18.36L34.1199 19.26L33.6499 19.34C33.6499 19.34 32.3099 19.28 33.0699 20.43C33.7399 21.44 34.2899 21.74 34.4099 21.8C33.5499 21.59 32.8199 20.95 32.4899 20.13L30.6099 19.76C30.8799 18.99 31.0499 18.18 31.1199 17.38L31.1899 17.18C31.2999 17.04 31.4099 16.9 31.5299 16.76C31.8599 16.36 32.1899 15.96 32.5299 15.56L36.0599 12.16L35.8599 11.89C37.9499 9.82999 40.2499 8.06999 42.9599 7.00999C46.3399 5.68999 50.1799 5.59999 53.6099 6.75999C57.0399 7.91999 60.0299 10.32 61.9199 13.41C62.2199 13.9 62.5199 14.39 62.8399 14.89L61.1199 16.01H61.1099Z" fill="#FFF5E3"/>
<path d="M32.9297 47.45C32.4097 47.04 31.9097 46.61 31.4297 46.14L31.5797 46.12C32.0397 46.59 32.4997 47.04 32.9297 47.45Z" fill="#FFF5E3"/>
<path d="M31.1899 17.15V17.18C31.1899 17.18 31.1399 17.23 31.1099 17.25C31.1399 17.22 31.1599 17.19 31.1899 17.15Z" fill="#A0BCEF"/>
<path d="M31.1799 17.18L31.1099 17.37V17.25C31.1099 17.25 31.1599 17.2 31.1799 17.18Z" fill="#A0BCEF"/>
<path d="M24.6997 32.41H28.4197C27.2397 32.88 25.8797 32.89 24.6997 32.41Z" fill="#A0BCEF"/>
<path d="M38.99 79.32C43.66 80.85 48.57 81.68 53.48 81.79V81.96C53.61 81.99 53.74 82.03 53.87 82.06C53.18 82.19 52.64 82.59 52.17 83.1C50.58 84.82 49.16 86.72 47.96 88.73L47.85 88.59L47.39 88.49C47.39 88.49 47.34 88.46 47.31 88.45C45.86 87.68 44.22 87.38 42.58 87.49L41.45 87.26L40.54 87.84C39.3 88.18 38.13 88.75 37.12 89.53C36.51 90 35.96 90.52 35.48 91.1H35.47C33.91 90.39 32.23 89.93 30.53 89.76L29.61 89.5C29.61 89.5 29.6 89.48 29.59 89.48C29 88.8 28.38 88.16 27.71 87.58L27.83 87.44L27.87 87.47L28.53 87.36C30.67 87.9 33.03 86.85 34.76 85.39C35.6 84.69 36.35 83.88 36.99 83L37.02 82.98V82.95C37.17 82.77 37.31 82.58 37.43 82.39C38.07 81.43 38.6 80.4 38.99 79.32Z" fill="#FFF5E3"/>
<path d="M28.3897 34.4C28.4597 34.4 28.5297 34.39 28.6097 34.39C28.5397 34.39 28.4697 34.39 28.3897 34.4ZM46.0097 40.47C47.6197 40.59 49.0597 39.03 49.1097 38.47C49.1497 37.9 47.8797 37.34 46.2697 37.21C44.6497 37.09 43.3097 37.44 43.2597 38.01C43.2197 38.52 44.1797 40.01 45.5597 40.38C45.7097 40.43 45.8597 40.46 46.0097 40.47ZM49.2697 37.31C49.9897 37.98 50.7697 37.99 50.9997 37.35C51.2297 36.71 50.8197 35.65 50.0997 34.99C49.3697 34.33 48.5997 34.31 48.3697 34.95C48.1397 35.59 48.5397 36.65 49.2697 37.31ZM34.4297 21.81C34.4297 21.81 34.4097 21.81 34.3997 21.8C34.2797 21.74 33.7297 21.44 33.0597 20.43C32.2997 19.28 33.6397 19.34 33.6397 19.34L34.1097 19.26L39.6297 18.36C41.1797 18.42 40.4597 16.16 40.4597 16.16L43.0297 15.56C43.7897 15.58 44.5497 15.74 45.2497 16.04C44.6197 15.71 43.9597 15.35 43.4397 14.87L42.5797 13.42C42.5797 13.42 42.5797 13.4 42.5697 13.39L42.9697 11.79L42.9997 11.76L44.3297 11.34C44.4697 11.37 44.6097 11.43 44.7497 11.5L48.6097 14.62C48.8997 14.86 49.1897 15.11 49.4797 15.35C49.3797 15.12 49.3797 14.86 49.4697 14.63C51.0097 12.75 52.6897 15.25 52.8397 15.48C52.8397 15.48 52.8397 15.49 52.8397 15.5C55.6597 15.57 56.2497 16.56 56.3097 16.68C56.1497 16.14 55.9197 15.62 55.6197 15.13L54.9397 13.6C57.9097 14.16 59.9397 17.12 60.6297 18.26C60.7897 18.54 60.8797 18.71 60.8797 18.71L61.4797 17.21C64.9097 20.25 69.6897 33.17 70.1297 34.38C70.1497 34.41 70.1497 34.44 70.1597 34.47L69.9197 35.55V35.59L70.0597 35.72C70.5297 36.29 71.0997 36.79 71.7197 37.18L72.4497 37.82C72.4497 37.82 72.3697 37.83 72.3297 37.83L69.6797 38.1L69.6397 38.15C69.3797 38.18 69.1097 38.21 68.8497 38.24C68.9197 38.42 69.0097 38.59 69.1097 38.75L68.9097 38.97L68.8497 38.88C68.3597 38.17 68.1297 37.85 68.0597 37.78C68.1497 37.95 68.8497 39.04 68.8497 39.04L68.9097 38.97C70.6197 41.56 69.0597 43.94 69.0597 43.94C69.1297 43.03 68.7297 42.57 68.1897 42.27L67.8597 42.79V42.81L66.3497 45.26L65.9397 45.93L64.7697 49.28L64.7097 49.44L64.9697 49.62C63.3297 48.99 61.5497 48.81 59.8797 49.3C58.3097 49.77 56.9297 50.95 56.2197 52.41L55.8997 52.36C52.9397 52.79 49.8397 52.88 46.7997 52.58C46.7597 52.58 46.7197 52.58 46.6797 52.57C41.6197 52.06 36.7297 50.45 32.9297 47.46H32.9197C32.4897 47.05 32.0297 46.6 31.5697 46.13C30.5597 45.09 29.5497 43.94 28.7697 42.85C26.4397 39.57 27.4997 38.11 27.4997 38.11L26.5997 37.65L23.4397 36.02C23.4397 36.02 23.4297 36.02 23.4297 36.01L24.5697 35.61L27.9697 34.42H27.8797C25.1597 34.45 24.4497 32.42 24.4497 32.42H24.6897C25.8697 32.9 27.2297 32.89 28.4097 32.42C28.9697 27.68 31.5497 27.55 32.3097 25.87C32.3697 25.74 32.4197 25.6 32.4597 25.45C32.9697 23.35 34.4097 21.82 34.4097 21.82L34.4297 21.81ZM43.9297 36.69C44.7497 36.15 45.3197 35.17 45.1897 34.5C45.0697 33.83 44.2997 33.73 43.4797 34.27C42.6597 34.81 42.0897 35.79 42.2197 36.46C42.3397 37.13 43.1097 37.23 43.9297 36.69Z" fill="#A0BCEF"/>
<path d="M27.8298 87.44L26.7998 86.54C27.1098 86.78 27.4498 86.98 27.8298 87.14C28.0598 87.24 28.2898 87.31 28.5298 87.36L27.8698 87.47L27.8298 87.44Z" fill="#A0BCEF"/>
<path d="M26.6298 86.72L26.6998 86.79C26.6998 86.79 26.5998 86.7 26.5498 86.68L26.6298 86.72Z" fill="#A0BCEF"/>
<path d="M26.3197 86.14L24.9997 85L24.4497 83.25C24.8997 84.33 25.4997 85.36 26.3197 86.14Z" fill="#A0BCEF"/>
<path d="M23.9897 27.55L21.8997 28.63L21.2397 28.75C22.3697 28.29 23.4497 27.65 24.4297 26.96C24.5997 26.84 24.7697 26.72 24.9297 26.6L23.9997 27.55H23.9897Z" fill="#A0BCEF"/>
<path d="M23.2897 84.99L23.1997 84.96H23.2497L23.2897 84.99Z" fill="#A0BCEF"/>
<path d="M26.6299 86.72L26.5499 86.68C26.4099 86.56 26.2699 86.47 26.1199 86.37C25.2399 85.79 24.2899 85.32 23.2899 84.99L23.2499 84.97H23.1999C21.9499 84.56 20.6499 84.38 19.3499 84.51L18.9999 84.47L18.7899 84.59C18.6999 84.6 18.6099 84.62 18.5199 84.64C16.6299 85.03 14.9999 86.08 13.6499 87.47C12.5199 88.63 11.5999 90.02 10.8999 91.47C10.5699 92.15 10.2799 92.85 10.0399 93.57L9.51988 94.44L9.30988 96.23C9.12988 97.15 9.01988 98.09 8.98988 99.04V99.08L8.76988 99.06C5.88988 97.45 3.40988 95.11 1.65988 92.32C1.10988 91.44 0.609883 90.43 0.799883 89.41C1.00988 88.28 1.97988 87.48 2.89988 86.79C5.78988 84.57 8.70988 82.34 11.9599 80.68C15.2099 79.01 18.8299 77.93 22.4799 78.17L22.8299 78.06L23.1099 78.95C23.3499 80.03 23.6499 81.1 24.0199 82.14C24.1499 82.51 24.2899 82.88 24.4599 83.25L25.0099 85L26.3299 86.14C26.4799 86.28 26.6399 86.42 26.8099 86.54L27.8399 87.44L27.7199 87.58C27.3899 87.3 27.0599 87.03 26.7099 86.79L26.6399 86.72H26.6299Z" fill="#FFF5E3"/>
<path d="M22.6499 61.86L22.8499 61.44C22.8499 61.52 22.8499 61.59 22.8499 61.67C22.7899 61.73 22.7199 61.79 22.6499 61.86Z" fill="#A0BCEF"/>
<path d="M23.0997 78.95L22.8197 78.06L22.2397 76.23L22.3497 72.54C22.3597 74.69 22.6097 76.85 23.0997 78.95Z" fill="#A0BCEF"/>
<path d="M30.4997 46.26C26.6097 45.52 23.2197 42.58 21.9197 38.84C21.4997 37.64 21.3097 36.37 21.3197 35.09L22.6097 35.12C22.8597 35.44 23.1397 35.73 23.4397 36C23.4397 36 23.443 36.0034 23.4497 36.01C24.3397 36.81 25.4397 37.38 26.6097 37.64L27.5097 38.1C27.5097 38.1 26.4497 39.56 28.7797 42.84C29.5597 43.93 30.5697 45.08 31.5797 46.12L31.4297 46.14L30.4997 46.26Z" fill="#FFF5E3"/>
<path d="M32.4798 20.13C32.8098 20.95 33.5398 21.59 34.3998 21.8C34.4098 21.81 34.4198 21.81 34.4298 21.81C34.4298 21.81 32.9898 23.34 32.4798 25.44C32.4398 25.59 32.3898 25.73 32.3298 25.86C31.5698 27.54 28.9898 27.67 28.4298 32.41H24.4598C24.4598 32.41 25.1698 34.44 27.8898 34.41H27.9798L24.5798 35.6C23.8998 35.56 23.2298 35.39 22.6098 35.12L21.3198 35.09C21.3498 32.41 22.3098 29.73 24.0698 27.7L23.9898 27.55H23.9998L24.9298 26.6C26.7498 25.28 28.4298 23.74 29.5998 21.83C29.6198 21.82 29.6298 21.8 29.6298 21.78C29.7098 21.67 29.7698 21.56 29.8398 21.44C30.1398 20.91 30.3998 20.34 30.5998 19.76L32.4798 20.13Z" fill="#FFF5E3"/>
<path d="M21.8198 66.97L21.8498 66.93C21.8498 66.93 21.8498 66.99 21.8498 67.02L21.8298 66.97H21.8198Z" fill="#A0BCEF"/>
<path d="M19.7199 0.759999C19.7199 0.759999 19.6899 0.749999 19.6699 0.759999H19.6899H19.7199Z" fill="#A0BCEF"/>
<path d="M18.9898 84.47L19.3398 84.51C19.1598 84.53 18.9698 84.55 18.7798 84.59L18.9898 84.47Z" fill="#A0BCEF"/>
<path d="M14.1997 27.77L13.5297 27.45L12.9497 26.24C13.3097 26.8 13.7297 27.31 14.1997 27.77Z" fill="#A0BCEF"/>
<path d="M12.83 2.33999L13.51 2.17999C13.07 2.40999 12.65 2.66999 12.25 2.94999L12.83 2.33999Z" fill="#A0BCEF"/>
<path d="M10.6797 106.95L10.6597 106.92V106.88C10.6597 106.88 10.6697 106.93 10.6797 106.95Z" fill="#A0BCEF"/>
<path d="M9.5098 94.44L10.0298 93.57C9.7198 94.43 9.4798 95.33 9.2998 96.23L9.5098 94.44Z" fill="#A0BCEF"/>
<path d="M9.69988 19.44L9.64988 19.34L9.62988 19.26C9.63988 19.32 9.66988 19.38 9.69988 19.44Z" fill="#A0BCEF"/>
<path d="M9.44975 5.89999C9.34975 6.05999 9.24975 6.22999 9.15975 6.39999C8.87975 6.91999 8.65975 7.46999 8.48975 8.02999L8.67975 6.70999L9.44975 5.89999Z" fill="#A0BCEF"/>
<path d="M8.77002 100.85L8.97002 99.08V99.04C8.94002 100 8.98002 100.96 9.10002 101.92L8.77002 100.85Z" fill="#A0BCEF"/>
<path d="M8.24 14.68L7.75 13.06L7.94 11.75C7.94 12.73 8.05 13.72 8.24 14.68Z" fill="#A0BCEF"/>
<path d="M32.9399 47.46C33.4899 47.98 34.0099 48.43 34.4399 48.79" stroke="#404955" stroke-width="1.5" stroke-linecap="round" stroke-linejoin="round"/>
<path d="M45.6102 40.24C45.6102 40.24 45.5802 40.33 45.5602 40.38C45.2502 41.35 45.3702 42.44 45.8902 43.31" stroke="#404955" stroke-width="1.5" stroke-linecap="round" stroke-linejoin="round"/>
<path d="M44.4702 44.72C44.5702 44.09 44.9802 43.52 45.5502 43.22C46.1402 43.66 46.7002 44.11 47.3002 44.55" stroke="#404955" stroke-width="1.5" stroke-linecap="round" stroke-linejoin="round"/>
<path d="M52.8501 15.5C52.9801 15.76 53.0901 16.04 53.2001 16.32" stroke="#404955" stroke-width="1.5" stroke-linecap="round" stroke-linejoin="round"/>
<path d="M40.46 16.03C41.27 15.69 42.15 15.53 43.03 15.56C43.79 15.58 44.55 15.74 45.25 16.04C44.62 15.71 43.96 15.35 43.44 14.87C43.15 14.6 42.9 14.29 42.73 13.92C42.66 13.76 42.61 13.59 42.58 13.42C42.58 13.41 42.58 13.4 42.57 13.39C42.49 12.82 42.63 12.2 42.97 11.79L43 11.76C43.21 11.5 43.51 11.32 43.86 11.29C44.02 11.28 44.18 11.29 44.33 11.34C44.47 11.37 44.61 11.43 44.75 11.5C45.08 11.66 45.38 11.9 45.66 12.14C46.65 12.97 47.63 13.79 48.61 14.62C48.9 14.86 49.19 15.11 49.48 15.35C49.38 15.12 49.38 14.86 49.47 14.63C49.61 14.23 49.97 13.88 50.39 13.79C51.06 13.64 51.77 13.99 52.23 14.51C52.49 14.79 52.68 15.13 52.84 15.48" stroke="#404955" stroke-width="1.5" stroke-linecap="round" stroke-linejoin="round"/>
<path d="M53.5703 12.84C54.4103 13.45 55.1203 14.23 55.6303 15.13C55.9303 15.62 56.1603 16.14 56.3203 16.68" stroke="#404955" stroke-width="1.5" stroke-linecap="round" stroke-linejoin="round"/>
<path d="M33.4002 25.2C33.0302 25.4 32.6702 25.62 32.3302 25.86C30.6802 27.02 29.3802 28.67 28.6602 30.55" stroke="#404955" stroke-width="1.5" stroke-linecap="round" stroke-linejoin="round"/>
<path d="M28.4202 32.41C27.2402 32.88 25.8802 32.89 24.7002 32.41" stroke="#404955" stroke-width="1.5" stroke-linecap="round" stroke-linejoin="round"/>
<path d="M28.9202 32.18C28.7602 32.27 28.6002 32.34 28.4302 32.41" stroke="#404955" stroke-width="1.5" stroke-linecap="round" stroke-linejoin="round"/>
<path d="M23.4502 36.01C24.3402 36.81 25.4402 37.38 26.6102 37.64C26.9602 37.72 27.3202 37.77 27.6802 37.79" stroke="#404955" stroke-width="1.5" stroke-linecap="round" stroke-linejoin="round"/>
<path d="M28.0204 34.8C26.9904 35.41 25.7704 35.68 24.5804 35.6C23.9004 35.56 23.2304 35.39 22.6104 35.12C22.8604 35.44 23.1404 35.73 23.4404 36" stroke="#404955" stroke-width="1.5" stroke-linecap="round" stroke-linejoin="round"/>
<path d="M69.8403 35.44C69.8403 35.44 69.9004 35.51 69.9304 35.55C69.9704 35.61 70.0204 35.66 70.0704 35.72C70.5404 36.29 71.1104 36.79 71.7304 37.18C72.0904 37.41 72.4704 37.61 72.8704 37.77C72.7304 37.79 72.6004 37.8 72.4604 37.82C72.4204 37.82 72.3803 37.83 72.3403 37.83C71.4503 37.94 70.5504 38.05 69.6504 38.15C69.3904 38.18 69.1204 38.21 68.8604 38.24C68.9304 38.42 69.0204 38.59 69.1204 38.75C69.6704 39.72 70.6003 40.45 71.6703 40.76" stroke="#404955" stroke-width="1.5" stroke-linecap="round" stroke-linejoin="round"/>
<path d="M67.0103 41.73C67.4003 41.91 67.8402 42.05 68.2002 42.27C68.7402 42.57 69.1403 43.03 69.0703 43.94" stroke="#404955" stroke-width="1.5" stroke-linecap="round" stroke-linejoin="round"/>
<path d="M76.4703 12.3C76.1703 13.62 75.8803 14.95 75.7303 16.29C75.6203 17.31 75.5803 18.33 75.6603 19.35C75.6703 19.58 75.7003 19.81 75.7303 20.04C75.9703 21.78 76.6403 23.51 77.7603 24.84C78.2703 25.45 78.8703 25.98 79.5703 26.37C79.6103 26.4 79.6603 26.43 79.7003 26.45C80.5003 26.89 81.3403 27.14 82.2103 27.24C83.1603 27.37 84.1503 27.31 85.1403 27.14C85.1603 27.14 85.1703 27.14 85.1803 27.13C86.4803 26.91 87.7803 26.5 89.0403 26.02C89.6103 25.81 90.1703 25.58 90.7103 25.35C91.7203 24.93 92.7403 24.5 93.6703 23.93C94.0303 23.72 94.3703 23.48 94.7003 23.22C94.7403 23.18 94.7903 23.15 94.8303 23.11C95.2503 22.77 95.6303 22.37 95.9403 21.93C96.4903 21.19 96.8503 20.33 96.9003 19.41C96.9203 19.11 96.9003 18.81 96.8603 18.51C96.8403 18.38 96.8103 18.25 96.7803 18.13C96.4903 16.91 95.7503 15.77 94.9803 14.73C94.9603 14.7 94.9303 14.66 94.9103 14.63C94.2903 13.79 93.6403 12.96 92.9603 12.15C91.3603 10.26 89.5803 8.5 87.5903 7.13C85.6203 5.77 83.4403 4.78 81.0503 4.41H81.0303C80.7503 4.37 80.4803 4.34 80.2003 4.32C78.1603 4.13 76.1103 4.43 74.1403 5.06H74.1303C71.9503 5.77 69.8703 6.89 68.0303 8.25C67.8403 8.39 67.6503 8.54 67.4603 8.7C66.9603 9.09 66.4803 9.51 66.0303 9.97C64.7703 11.22 63.7003 12.67 62.9703 14.28C62.9603 14.29 62.9503 14.31 62.9503 14.33C62.9103 14.41 62.8703 14.49 62.8403 14.57" stroke="#404955" stroke-width="1.5" stroke-linecap="round" stroke-linejoin="round"/>
<path d="M31.1099 17.38C31.0399 18.18 30.8699 18.99 30.5999 19.76C30.3999 20.34 30.1399 20.91 29.8399 21.44C29.7699 21.56 29.7099 21.67 29.6299 21.78C29.6299 21.8 29.6199 21.82 29.5999 21.83C28.4299 23.74 26.7499 25.28 24.9299 26.6C24.7699 26.72 24.5999 26.84 24.4299 26.96C23.4499 27.65 22.3699 28.29 21.2399 28.75C20.0599 29.22 18.8399 29.49 17.6399 29.38C17.1499 29.34 16.6599 29.23 16.1899 29.05C15.4299 28.76 14.7699 28.31 14.1999 27.77C13.7299 27.31 13.3099 26.8 12.9499 26.24C12.2399 25.2 11.6799 24.02 11.1799 22.89C10.6699 21.75 10.1499 20.6 9.69994 19.44C9.66994 19.38 9.63994 19.32 9.62994 19.26C9.04994 17.81 8.55994 16.33 8.25994 14.8C8.25994 14.76 8.23994 14.72 8.23994 14.68C8.04994 13.72 7.93994 12.73 7.93994 11.75C7.93994 10.48 8.09994 9.22 8.48994 8.03C8.65994 7.47 8.87994 6.92 9.15994 6.4C9.24994 6.23 9.34994 6.06 9.44994 5.9C10.1599 4.72 11.1299 3.73 12.2499 2.95C12.6499 2.67 13.0699 2.41 13.5099 2.18C15.3799 1.2 17.5399 0.710002 19.6699 0.760002C19.6899 0.750002 19.6999 0.750002 19.7199 0.760002C19.9799 0.760002 20.2299 0.780002 20.4799 0.800002C22.1499 0.940002 23.7599 1.38 25.2899 2.04C25.3099 2.05 25.3299 2.05 25.3399 2.06C27.8799 3.16 30.1799 4.86 32.1199 6.84C33.5199 8.28 34.6799 9.85 35.7399 11.56" stroke="#404955" stroke-width="1.5" stroke-linecap="round" stroke-linejoin="round"/>
<path d="M24.3901 10.3C26.9401 9.81001 29.6001 11.56 30.5901 13.96C31.0201 15 31.1801 16.12 31.1101 17.25V17.37" stroke="#404955" stroke-width="1.5" stroke-linecap="round" stroke-linejoin="round"/>
<path d="M32.9399 47.46C36.7399 50.45 41.6299 52.06 46.6899 52.57C46.7299 52.58 46.7699 52.58 46.8099 52.58C49.8499 52.88 52.9499 52.79 55.9099 52.36" stroke="#404955" stroke-width="1.5" stroke-linecap="round" stroke-linejoin="round"/>
<path d="M28.9399 43.17C29.6699 44.27 30.5099 45.26 31.4299 46.14C31.9099 46.61 32.4099 47.04 32.9299 47.45" stroke="#404955" stroke-width="1.5" stroke-linecap="round" stroke-linejoin="round"/>
<path d="M30.5002 46.26C26.6102 45.52 23.2202 42.58 21.9202 38.84C21.5002 37.64 21.3102 36.37 21.3202 35.09C21.3502 32.41 22.3102 29.73 24.0702 27.7" stroke="#404955" stroke-width="1.5" stroke-linecap="round" stroke-linejoin="round"/>
<path d="M31.0601 17.32C31.0601 17.32 31.1001 17.27 31.1101 17.25C31.1401 17.23 31.1601 17.2 31.1801 17.18C31.2901 17.04 31.4001 16.9 31.5201 16.76C31.8501 16.36 32.1801 15.96 32.5201 15.56C33.5801 14.29 34.6801 13.04 35.8501 11.89C37.9401 9.82999 40.2401 8.06999 42.9501 7.00999C46.3301 5.68999 50.1701 5.59999 53.6001 6.75999C57.0301 7.91999 60.0201 10.32 61.9101 13.41C62.2101 13.9 62.5101 14.39 62.8301 14.89C63.4601 15.87 64.1301 16.86 64.8201 17.85C65.1301 18.3 65.4501 18.75 65.7701 19.2C65.8301 19.29 65.9001 19.39 65.9701 19.48C67.2701 21.29 68.6001 23.08 69.8501 24.75C72.4401 28.23 75.1501 32 75.3301 36.33C75.4801 40.01 73.5401 43.66 70.5401 45.75C69.8701 46.22 69.1401 46.61 68.3801 46.9" stroke="#404955" stroke-width="1.5" stroke-linecap="round" stroke-linejoin="round"/>
<path d="M31.4104 17.1C31.4504 16.98 31.4804 16.87 31.5204 16.76C31.5404 16.68 31.5704 16.61 31.5904 16.54C31.4304 16.73 31.3204 16.95 31.1904 17.15C31.1604 17.19 31.1404 17.22 31.1104 17.25" stroke="#404955" stroke-width="1.5" stroke-linecap="round" stroke-linejoin="round"/>
<path d="M58.0903 12.16C59.1503 13.4 60.1503 14.69 61.1103 16.01C65.1103 21.57 68.1903 27.8 70.1403 34.38C70.1603 34.41 70.1603 34.44 70.1703 34.47C70.2203 34.64 70.2703 34.8 70.3203 34.97" stroke="#404955" stroke-width="1.5" stroke-linecap="round" stroke-linejoin="round"/>
<path d="M65.7402 19.21C65.7402 19.21 65.7602 19.2 65.7702 19.2C67.2802 18.39 68.6702 17.75 70.1002 17.28C70.1302 17.26 70.1602 17.25 70.1902 17.25C71.8302 16.71 73.5102 16.4 75.4502 16.31C75.4802 16.31 75.5102 16.31 75.5402 16.31C75.6002 16.31 75.6602 16.3 75.7302 16.3H75.7402" stroke="#404955" stroke-width="1.5" stroke-linecap="round" stroke-linejoin="round"/>
<path d="M61.4903 17.04C61.1303 17.39 60.8403 17.81 60.6403 18.26C60.4703 18.6 60.3503 18.97 60.2803 19.34" stroke="#404955" stroke-width="1.5" stroke-linecap="round" stroke-linejoin="round"/>
<path d="M39.63 18.47C39.47 18.95 38.9 19.13 38.41 19.22C36.99 19.47 35.53 19.49 34.11 19.26C34 19.25 33.88 19.23 33.77 19.21" stroke="#404955" stroke-width="1.5" stroke-linecap="round" stroke-linejoin="round"/>
<path d="M32.48 20.13C32.81 20.95 33.54 21.59 34.4 21.8C34.41 21.81 34.42 21.81 34.43 21.81" stroke="#404955" stroke-width="1.5" stroke-linecap="round" stroke-linejoin="round"/>
<path d="M50.2601 59.69C50.3301 59.77 50.4001 59.83 50.4701 59.89C51.2301 59.07 51.6501 57.95 51.6101 56.83C51.5701 55.71 51.0701 54.62 50.2601 53.85C49.2001 52.86 47.1801 52.28 47.0801 53.75C47.0601 53.98 47.0901 54.26 47.1801 54.59C47.2601 54.91 47.3601 55.23 47.4901 55.55C47.9501 56.85 48.6801 58.06 49.6401 59.08C49.8301 59.3 50.0401 59.51 50.2601 59.69Z" stroke="#404955" stroke-width="1.5" stroke-linecap="round" stroke-linejoin="round"/>
<path d="M44.5601 54.75C44.6601 55.2 44.9201 55.61 45.2901 55.87C45.3001 55.88 45.3101 55.88 45.3201 55.89C45.8901 56.27 46.7001 56.27 47.2401 55.86" stroke="#404955" stroke-width="1.5" stroke-linecap="round" stroke-linejoin="round"/>
<path d="M45.5701 52.46C45.5701 52.46 45.5301 52.49 45.5101 52.5C44.9701 52.87 44.5801 53.47 44.5101 54.12C44.4901 54.33 44.5101 54.54 44.5601 54.74" stroke="#404955" stroke-width="1.5" stroke-linecap="round" stroke-linejoin="round"/>
<path d="M43.9199 52.42C41.8899 53.07 40.0199 54.19 38.4899 55.67C38.1099 56.03 37.7499 56.41 37.4099 56.82C37.2199 57.05 37.0199 57.32 37.0499 57.62C37.0899 57.99 37.4499 58.24 37.7899 58.39C39.1999 59 40.8899 58.9 42.2099 58.12C42.2599 58.1 42.2999 58.07 42.3499 58.04C43.0799 57.59 43.6699 56.93 44.0499 56.17C44.2999 55.72 44.4699 55.24 44.5599 54.75C44.5999 54.52 44.6199 54.31 44.6299 54.09" stroke="#404955" stroke-width="1.5" stroke-linecap="round" stroke-linejoin="round"/>
<path d="M67.8702 42.81C67.6302 43.75 67.1002 44.63 66.3602 45.26C66.2302 45.38 66.0902 45.48 65.9502 45.58" stroke="#404955" stroke-width="1.5" stroke-linecap="round" stroke-linejoin="round"/>
<path d="M67.9601 42.3C67.9401 42.46 67.9101 42.63 67.8701 42.79" stroke="#404955" stroke-width="1.5" stroke-linecap="round" stroke-linejoin="round"/>
<path d="M43.7499 24.52C41.2899 25.18 39.3699 27.5 39.1699 30.04" stroke="#404955" stroke-width="1.5" stroke-linecap="round" stroke-linejoin="round"/>
<path d="M46.22 25.99C44.62 26.85 43.31 28.27 42.58 29.94C42.37 30.4 42.32 31.11 42.8 31.25C43.07 31.33 43.34 31.16 43.56 31C44.92 30.07 46.28 29.13 47.63 28.2C48.34 29.46 49.47 30.49 50.81 31.06" stroke="#404955" stroke-width="1.5" stroke-linecap="round" stroke-linejoin="round"/>
<path d="M51.1001 28.19C52.1701 29.24 53.7001 29.8 55.1901 29.7" stroke="#404955" stroke-width="1.5" stroke-linecap="round" stroke-linejoin="round"/>
<path d="M22.6101 68.64C22.5101 69.39 22.4401 70.14 22.4001 70.89C22.3701 71.41 22.3501 71.94 22.3501 72.46V72.54C22.3601 74.69 22.6101 76.85 23.1001 78.95C23.3401 80.03 23.6401 81.1 24.0101 82.14C24.1401 82.51 24.2801 82.88 24.4501 83.25C24.9001 84.33 25.5001 85.36 26.3201 86.14C26.4701 86.28 26.6301 86.42 26.8001 86.54C27.1101 86.78 27.4501 86.98 27.8301 87.14C28.0601 87.24 28.2901 87.31 28.5301 87.36C30.6701 87.9 33.0301 86.85 34.7601 85.39C35.6001 84.69 36.3501 83.88 36.9901 83C37.0101 82.99 37.0301 82.97 37.0301 82.95C37.1701 82.77 37.3101 82.58 37.4301 82.39C38.0701 81.43 38.6001 80.4 38.9901 79.32C39.3401 78.38 39.6001 77.41 39.7401 76.42C39.7501 76.4 39.7501 76.39 39.7501 76.37C39.7701 76.24 39.7901 76.1 39.8101 75.96C39.8701 75.43 39.9001 74.88 39.9001 74.34C39.8901 72.89 39.6601 71.44 39.2201 70.06C39.1101 69.68 38.9701 69.31 38.8201 68.94C37.9701 66.85 36.6301 64.95 34.9201 63.47C34.8601 63.41 34.7901 63.35 34.7301 63.3" stroke="#404955" stroke-width="1.5" stroke-linecap="round" stroke-linejoin="round"/>
<path d="M58.17 59C57.51 58.41 56.92 57.77 56.48 57.05C56.15 56.5 55.9 55.91 55.79 55.26C55.62 54.28 55.8 53.3 56.23 52.41C56.94 50.95 58.32 49.77 59.89 49.3C61.56 48.81 63.34 48.99 64.98 49.62C65.83 49.94 66.64 50.37 67.37 50.89C68.08 51.39 68.73 51.97 69.3 52.61C69.34 52.64 69.36 52.67 69.39 52.7C70.48 53.91 71.33 55.33 71.89 56.86C72.21 57.72 72.43 58.61 72.55 59.51C72.64 60.1 72.68 60.69 72.67 61.28C72.67 61.58 72.65 61.87 72.63 62.17C72.55 63.08 72.37 63.98 72.08 64.85C71.58 66.43 70.77 67.92 69.71 69.2C69.56 69.38 69.42 69.55 69.26 69.71C68.67 70.35 68.02 70.93 67.3 71.42C67.26 71.46 67.22 71.48 67.18 71.51C67.18 71.51 67.16 71.53 67.15 71.54" stroke="#404955" stroke-width="1.5" stroke-linecap="round" stroke-linejoin="round"/>
<path d="M67.8002 61.9C67.3602 62.31 66.8102 62.57 66.2202 62.7C65.4702 62.86 64.6402 62.81 63.8902 62.6C62.8402 62.31 61.9002 61.75 61.0002 61.12C60.7502 60.96 60.5102 60.79 60.2702 60.62C59.6202 60.16 58.9502 59.67 58.3302 59.13C58.2802 59.1 58.2302 59.05 58.1802 59.01" stroke="#404955" stroke-width="1.5" stroke-linecap="round" stroke-linejoin="round"/>
<path d="M67.6899 80.13C67.6199 80.15 67.5599 80.17 67.4899 80.18C67.3799 80.21 67.2799 80.24 67.1699 80.26C65.1899 80.77 63.1799 81.15 61.1599 81.4C58.6199 81.73 56.0499 81.86 53.4799 81.79C48.5699 81.68 43.6599 80.85 38.9899 79.32C38.9699 79.32 38.9399 79.31 38.9199 79.3" stroke="#404955" stroke-width="1.5" stroke-linecap="round" stroke-linejoin="round"/>
<path d="M40.52 76.06C45.46 76.87 50.45 77.4 55.46 77.44C59.82 77.48 63.7 76.61 67.72 74.92C67.99 74.81 68.26 74.69 68.53 74.55C69.33 74.15 70.07 73.63 70.48 72.85C71.03 71.82 70.66 70.24 69.52 69.95" stroke="#404955" stroke-width="1.5" stroke-linecap="round" stroke-linejoin="round"/>
<path d="M34.9102 63.5C34.9102 63.5 34.9202 63.48 34.9202 63.47C34.9402 63.39 34.9602 63.32 34.9802 63.24" stroke="#404955" stroke-width="1.5" stroke-linecap="round" stroke-linejoin="round"/>
<path d="M32.8101 50.14C36.1301 53.59 37.0201 59.16 34.9201 63.47" stroke="#404955" stroke-width="1.5" stroke-linecap="round" stroke-linejoin="round"/>
<path d="M61.8703 61.7C61.8503 61.82 61.8403 61.93 61.8303 62.05C61.6303 63.78 61.9303 65.55 62.6903 67.11C62.7503 67.25 62.8203 67.38 62.8903 67.51C62.9803 67.67 63.0703 67.84 63.1703 67.99C64.1303 69.52 65.5303 70.76 67.1703 71.52C67.1703 71.52 67.1903 71.53 67.2003 71.53" stroke="#404955" stroke-width="1.5" stroke-linecap="round" stroke-linejoin="round"/>
<path d="M32.4802 50.1C31.1902 49.34 29.8502 48.56 28.3602 48.41C26.8702 48.26 25.1902 48.92 24.6502 50.32C24.0602 51.83 24.9602 53.48 25.9202 54.79C26.1402 55.1 26.3702 55.4 26.6002 55.7C27.1002 56.35 27.6302 56.99 28.1702 57.6C30.0202 59.7 32.1002 61.6 34.3602 63.26C34.3902 63.21 34.4302 63.16 34.4602 63.11C34.5202 63.01 34.5802 62.91 34.6502 62.81" stroke="#404955" stroke-width="1.5" stroke-linecap="round" stroke-linejoin="round"/>
<path d="M32.7103 50.05C32.6403 49.98 32.5803 49.91 32.5103 49.84C33.1503 49.5 33.7903 49.16 34.4203 48.82" stroke="#404955" stroke-width="1.5" stroke-linecap="round" stroke-linejoin="round"/>
<path d="M62.7799 68.01C59.9699 66.03 58.2299 62.61 58.2999 59.17" stroke="#404955" stroke-width="1.5" stroke-linecap="round" stroke-linejoin="round"/>
<path d="M64.98 49.35C66.2 48.42 67.75 47.95 69.28 48.04C71.45 48.18 73.56 49.56 74.34 51.58C74.45 51.85 74.53 52.14 74.58 52.43C74.91 54.28 74.15 56.33 72.55 57.33" stroke="#404955" stroke-width="1.5" stroke-linecap="round" stroke-linejoin="round"/>
<path d="M69.6899 52.42C70.4799 52.01 71.4599 51.99 72.2699 52.37" stroke="#404955" stroke-width="1.5" stroke-linecap="round" stroke-linejoin="round"/>
<path d="M36.3203 50.24C37.3503 51.65 37.9903 53.34 38.1903 55.09C38.2103 55.29 38.2303 55.5 38.2403 55.7" stroke="#404955" stroke-width="1.5" stroke-linecap="round" stroke-linejoin="round"/>
<path d="M38.3999 58.98V61.05C38.7499 61.08 39.1099 61.11 39.4599 61.15C43.3899 61.52 47.2799 62.32 51.0499 63.55C51.9799 63.84 52.8999 64.16 53.8099 64.51C53.7699 64.04 53.7699 63.56 53.7999 63.07C53.9099 60.77 54.6499 58.28 55.6999 56.3C55.7099 56.27 55.7299 56.23 55.7499 56.2C55.7999 56.1 55.8599 56.01 55.9099 55.91" stroke="#404955" stroke-width="1.5" stroke-linecap="round" stroke-linejoin="round"/>
<path d="M67.1802 80.28C75.7902 80.73 84.1202 84.96 89.6502 91.55C90.2302 92.23 90.7702 92.94 91.2802 93.67" stroke="#404955" stroke-width="1.5" stroke-linecap="round" stroke-linejoin="round"/>
<path d="M43.3003 115.86C43.5703 115.91 43.8403 115.95 44.1203 115.97C45.4703 116.08 46.7803 115.84 48.0303 115.38C49.8303 114.71 51.5103 113.56 53.0203 112.27L53.0503 112.24C53.5003 111.86 53.9303 111.47 54.3403 111.07C54.9303 110.51 55.5903 109.8 56.3003 109.01C58.4703 106.6 61.1203 103.49 63.5603 101.78C64.1303 101.39 64.7003 101.07 65.2403 100.85" stroke="#404955" stroke-width="1.5" stroke-linecap="round" stroke-linejoin="round"/>
<path d="M33.8701 106.65C34.2401 107.55 34.6701 108.42 35.1601 109.25C35.8201 110.39 36.6201 111.5 37.5401 112.47C39.1201 114.16 41.0701 115.45 43.2801 115.85" stroke="#404955" stroke-width="1.5" stroke-linecap="round" stroke-linejoin="round"/>
<path d="M35.4701 91.1C35.4701 91.1 35.4601 91.11 35.4501 91.12C33.6201 93.26 32.5801 96.09 32.4201 98.93C32.2701 101.56 32.8301 104.2 33.8601 106.64" stroke="#404955" stroke-width="1.5" stroke-linecap="round" stroke-linejoin="round"/>
<path d="M56.56 96.54C54.86 95.78 53.1 95.13 51.84 93.72C51.36 93.18 50.97 92.61 50.6 92.05C49.9 90.96 49.27 89.89 48.22 89.06C48.15 89 48.08 88.94 48 88.89C47.97 88.86 47.94 88.84 47.91 88.82C47.75 88.71 47.58 88.6 47.39 88.49C47.36 88.48 47.34 88.46 47.31 88.45C45.86 87.68 44.22 87.38 42.58 87.49C41.89 87.54 41.21 87.65 40.54 87.84C39.3 88.18 38.13 88.75 37.12 89.53C36.51 90 35.96 90.52 35.48 91.1" stroke="#404955" stroke-width="1.5" stroke-linecap="round" stroke-linejoin="round"/>
<path d="M18.9199 113.82C19.6099 114.02 20.3199 114.16 21.0399 114.23C23.4799 114.46 25.9799 113.82 28.0499 112.53C30.1199 111.25 31.7699 109.34 32.5099 107.02" stroke="#404955" stroke-width="1.5" stroke-linecap="round" stroke-linejoin="round"/>
<path d="M14.3101 111.37C15.6701 112.48 17.2301 113.33 18.9001 113.82" stroke="#404955" stroke-width="1.5" stroke-linecap="round" stroke-linejoin="round"/>
<path d="M19.3403 84.51C19.1603 84.53 18.9703 84.55 18.7803 84.59C18.6903 84.6 18.6003 84.62 18.5103 84.64C16.6203 85.03 14.9903 86.08 13.6403 87.47C12.5103 88.63 11.5903 90.02 10.8903 91.47C10.5603 92.15 10.2703 92.85 10.0303 93.57C9.72033 94.43 9.48033 95.33 9.30033 96.23C9.12033 97.15 9.01033 98.09 8.98033 99.04C8.94033 100 8.98033 100.96 9.10033 101.92C9.27033 103.2 9.60033 104.46 10.0803 105.66C10.2503 106.08 10.4403 106.48 10.6503 106.88C10.6503 106.9 10.6703 106.93 10.6803 106.95C11.5703 108.64 12.8103 110.15 14.2903 111.36" stroke="#404955" stroke-width="1.5" stroke-linecap="round" stroke-linejoin="round"/>
<path d="M29.5901 89.48C29.0001 88.8 28.3801 88.16 27.7101 87.58C27.3801 87.3 27.0501 87.03 26.7001 86.79C26.6501 86.74 26.6001 86.7 26.5501 86.68C26.4101 86.56 26.2701 86.47 26.1201 86.37C25.2401 85.79 24.2901 85.32 23.2901 84.99L23.2001 84.96C21.9501 84.56 20.6501 84.38 19.3501 84.51" stroke="#404955" stroke-width="1.5" stroke-linecap="round" stroke-linejoin="round"/>
<path d="M31.6304 92.11C31.0004 91.21 30.3304 90.33 29.6104 89.5" stroke="#404955" stroke-width="1.5" stroke-linecap="round" stroke-linejoin="round"/>
<path d="M51.48 92.59C52.37 92.51 53.24 92.52 54.09 92.62C54.64 92.67 55.17 92.77 55.7 92.9C57.6 93.36 59.35 94.24 60.89 95.48C60.9 95.48 60.91 95.49 60.92 95.51C62.24 96.55 63.41 97.86 64.37 99.37C64.57 99.68 64.76 100.01 64.95 100.34C64.96 100.35 64.97 100.36 64.97 100.38C65.06 100.53 65.15 100.69 65.24 100.85C65.73 101.72 66.21 102.61 66.77 103.4C67.46 104.38 68.27 105.22 69.35 105.72C70.74 106.36 72.36 106.31 73.82 105.89C75.28 105.46 76.61 104.68 77.9 103.87C82.45 101 86.7 97.66 90.57 93.93" stroke="#404955" stroke-width="1.5" stroke-linecap="round" stroke-linejoin="round"/>
<path d="M31.1299 109.87L32.2099 108.7C32.6999 108.17 33.1799 107.65 33.6699 107.13" stroke="#404955" stroke-width="1.5" stroke-linecap="round" stroke-linejoin="round"/>
<path d="M35.48 91.1C35.48 91.1 35.55 91.13 35.58 91.15" stroke="#404955" stroke-width="1.5" stroke-linecap="round" stroke-linejoin="round"/>
<path d="M29.8403 89.7C30.0703 89.7 30.3003 89.73 30.5303 89.76C32.2303 89.93 33.9103 90.39 35.4703 91.1" stroke="#404955" stroke-width="1.5" stroke-linecap="round" stroke-linejoin="round"/>
<path d="M22.4701 78.17C18.8201 77.93 15.2001 79.01 11.9501 80.68C8.70012 82.34 5.78012 84.57 2.89012 86.79C1.97012 87.48 1.00012 88.28 0.790117 89.41C0.600117 90.43 1.10012 91.44 1.65012 92.32C3.40012 95.11 5.88012 97.45 8.76012 99.06" stroke="#404955" stroke-width="1.5" stroke-linecap="round" stroke-linejoin="round"/>
<path d="M67.48 80.15C68.18 79.77 68.88 79.38 69.59 79C70.14 78.69 70.73 78.35 71 77.77C71.13 77.48 71.16 77.16 71.12 76.84C71.08 76.58 70.99 76.31 70.87 76.07C70.61 75.55 70.19 75.12 69.78 74.7" stroke="#404955" stroke-width="1.5" stroke-linecap="round" stroke-linejoin="round"/>
<path d="M72.2002 76.7C74.5902 76.23 77.0102 75.95 79.4502 75.87C83.9602 75.73 88.5002 76.25 92.8502 77.45C94.2202 82.08 93.1602 87.37 90.1102 91.12" stroke="#404955" stroke-width="1.5" stroke-linecap="round" stroke-linejoin="round"/>
<path d="M61.2402 82.14C64.1002 88.84 66.2102 95.85 67.5002 103.01" stroke="#404955" stroke-width="1.5" stroke-linecap="round" stroke-linejoin="round"/>
<path d="M53.4801 81.96C53.6101 81.99 53.7401 82.03 53.8701 82.06C53.1801 82.19 52.6401 82.59 52.1701 83.1C50.5801 84.82 49.1601 86.72 47.9601 88.73C47.9401 88.76 47.9201 88.79 47.9101 88.82L47.8501 88.91C47.9001 88.9 47.9501 88.9 48.0001 88.89C48.0301 88.89 48.0501 88.88 48.0801 88.88L48.3201 88.85" stroke="#404955" stroke-width="1.5" stroke-linecap="round" stroke-linejoin="round"/>
<path d="M37.3003 82.52C37.3403 82.47 37.3803 82.43 37.4303 82.39C38.6203 81.1 40.4303 80.39 42.1903 80.54" stroke="#404955" stroke-width="1.5" stroke-linecap="round" stroke-linejoin="round"/>
<path d="M69.98 69.43C71.26 67.85 73.71 67.38 75.49 68.36" stroke="#404955" stroke-width="1.5" stroke-linecap="round" stroke-linejoin="round"/>
<path d="M74.0801 70.69C74.3501 69.93 74.9301 69.3 75.6301 68.92C76.0601 68.68 76.5301 68.54 77.0101 68.51" stroke="#404955" stroke-width="1.5" stroke-linecap="round" stroke-linejoin="round"/>
<path d="M75.6001 71.2C76.1601 71.03 76.7101 70.86 77.2601 70.69" stroke="#404955" stroke-width="1.5" stroke-linecap="round" stroke-linejoin="round"/>
<path d="M78.4199 71.45C79.3899 72.65 79.7799 74.29 79.4499 75.8" stroke="#404955" stroke-width="1.5" stroke-linecap="round" stroke-linejoin="round"/>
<path d="M26.6002 55.7C25.0202 56.54 24.1602 58.1 23.3602 59.7C23.0802 60.25 22.8702 60.84 22.8502 61.44C22.8502 61.52 22.8502 61.59 22.8502 61.67C22.7902 61.73 22.7202 61.79 22.6502 61.86C21.7802 62.65 20.5502 63.5 19.4302 63.34C19.5202 63.29 19.6002 63.24 19.6902 63.19" stroke="#404955" stroke-width="1.5" stroke-linecap="round" stroke-linejoin="round"/>
<path d="M22.8302 63.65C22.7702 63.72 22.7102 63.78 22.6502 63.84C21.6902 64.79 20.1802 65.13 18.9102 64.66" stroke="#404955" stroke-width="1.5" stroke-linecap="round" stroke-linejoin="round"/>
<path d="M22.6501 65.76C22.2001 65.98 21.9201 66.44 21.8501 66.93C21.8501 66.96 21.8501 66.99 21.8501 67.02C21.8001 67.43 21.9101 67.86 22.1801 68.17" stroke="#404955" stroke-width="1.5" stroke-linecap="round" stroke-linejoin="round"/>
<path d="M66.7 62.33C66.54 62.39 66.37 62.46 66.21 62.53C66.21 62.59 66.21 62.64 66.22 62.7C66.26 63.55 66.79 64.37 67.55 64.73" stroke="#404955" stroke-width="1.5" stroke-linecap="round" stroke-linejoin="round"/>
</g>
<defs>
<clipPath id="clip0_360_8831">
<rect width="97.66" height="116.74" fill="white"/>
</clipPath>
</defs>
</svg>
